{
.appVersion = "3219";
.formatVersion = 3;
DisplayStrings = (
"½½¼¼ÂÂÄÄÅÅÇÇÊÊËËÎÎÏÏÔÔÖÖÛÛÜÜââääååççêêëëîîïïôôööûûüüÿÿ/Acircumflex.smcp/Acircumflex.smcp/Adieresis.smcp/Adieresis.smcp/Aring.smcp/Aring.smcp/Ccedilla.smcp/Ccedilla.smcp/Ecircumflex.smcp/Ecircumflex.smcp/Edieresis.smcp/Edieresis.smcp/Icircumflex.smcp/Icircumflex.smcp/Idieresis.smcp/Idieresis.smcp/Ocircumflex.smcp/Ocircumflex.smcp/Odieresis.smcp/Odieresis.smcp/Ucircumflex.smcp/Ucircumflex.smcp/Udieresis.smcp/Udieresis.smcp ̃̃"
);
axes = (
{
name = Weight;
tag = wght;
}
);
customParameters = (
{
name = fsType;
value = (
);
},
{
name = "Use Typo Metrics";
value = 1;
}
);
date = "2016-03-30 11:22:10 +0000";
familyName = Heebo;
featurePrefixes = (
{
automatic = 1;
code = "languagesystem DFLT dflt;

languagesystem latn dflt;
languagesystem latn AZE;
languagesystem latn CRT;
languagesystem latn KAZ;
languagesystem latn TAT;
languagesystem latn TRK;
languagesystem latn ROM;
languagesystem latn MOL;
languagesystem latn CAT;

languagesystem hebr dflt;
languagesystem hebr IWR;
";
name = Languagesystems;
}
);
features = (
{
automatic = 1;
code = "feature locl;
feature subs;
feature sinf;
feature sups;
feature frac;
feature ordn;
feature c2sc;
feature smcp;
feature case;
feature ss06;
feature ss07;
";
tag = aalt;
},
{
automatic = 1;
code = "lookup ccmp_Other_1 {
	@CombiningTopAccents = [acutecomb brevecomb caroncomb circumflexcomb commaturnedabovecomb dieresiscomb dotaccentcomb gravecomb hungarumlautcomb macroncomb ringcomb tildecomb];
	lookupflag UseMarkFilteringSet @CombiningTopAccents;
	sub i' @CombiningTopAccents by idotless;
	sub j' @CombiningTopAccents by jdotless;
} ccmp_Other_1;

lookup ccmp_latn_1 {
	sub fi by f i;
} ccmp_latn_1;

script latn;
lookup ccmp_latn_1;
";
tag = ccmp;
},
{
automatic = 1;
code = "script latn;
language AZE;
lookup locl_latn_0 {
	sub i by idotaccent;
} locl_latn_0;
language CRT;
lookup locl_latn_0;
language KAZ;
lookup locl_latn_0;
language TAT;
lookup locl_latn_0;
language TRK;

glyphs = (
{
glyphname = A;
lastChange = "2023-09-21 14:36:57 +0000";
layers = (
{
anchors = (
{
name = bottom;
pos = (638,0);
},
{
name = bottom_dd;
pos = (1223,-407);
},
{
name = ogonek;
pos = (1189,0);
},
{
name = right;
pos = (1189,0);
},
{
name = tonos;
pos = (281,1454);
},
{
name = top;
pos = (612,1612);
},
{
name = top0315;
pos = (1223,1612);
},
{
name = top_dd;
pos = (1223,1600);
}
);
guides = (
{
pos = (0,901);
},
{
pos = (0,555);
}
);
layerId = "445B0B85-2678-4800-8A4D-B1A9856CF63B";
shapes = (
{
closed = 1;
nodes = (
(618,1410,l),
(630,1456,l),
(578,1456,l),
(33,0,l),
(92,0,l)
);
},
{
closed = 1;
nodes = (
(1130,0,l),
(1189,0,l),
(644,1456,l),
(593,1456,l),
(604,1410,l)
);
},
{
closed = 1;
nodes = (
(976,489,l),
(247,489,l),
(247,435,l),
(976,435,l)
);
}
);
width = 1223;
},
{
anchors = (
{
name = bottom;
pos = (707,11);
},
{
name = bottom_dd;
pos = (1409,-407);
},
{
name = ogonek;
pos = (1300,0);
},
{
name = right;
pos = (1417,0);
},
{
name = tonos;
pos = (322,1454);
},
{
name = top;
pos = (706,1599);
},
{
name = top0315;
pos = (1409,1599);
},
{
name = top_dd;
pos = (1409,1600);
}
);
layerId = "20EE6398-45C7-446F-8F4E-C33CF1AD7937";
shapes = (
{
closed = 1;
nodes = (
(737,1105,l),
(781,1456,l),
(527,1456,l),
(-7,0,l),
(396,0,l)
);
},
{
closed = 1;
nodes = (
(1013,0,l),
(1416,0,l),
(879,1456,l),
(622,1456,l),
(671,1105,l)
);
},
{
closed = 1;
nodes = (
(1009,547,l),
(262,547,l),
(262,244,l),
(1009,244,l)
);
}
);
width = 1408.675;
},
{
anchors = (
{
name = bottom;
pos = (686,0);
},
{
name = bottom_dd;
pos = (1338,-407);
},
{
name = ogonek;
pos = (1273,0);
},
{
name = right;
pos = (1307,0);
},
{
name = tonos;
pos = (361.99,1454);
},
{
name = top;
pos = (673,1601);
},
{
name = top0315;
pos = (1338,1601);
},
{
name = top_dd;
pos = (1338,1600);
}
);
layerId = "275CACE8-FD52-4067-B7BC-43A450B7EDC9";
shapes = (
{
closed = 1;
nodes = (
(709,1328,l),
(712,1456,l),
(584,1456,l),
(28,0,l),
(228,0,l)
);
},
{
closed = 1;
nodes = (
(1112,0,l),
(1311,0,l),
(754,1456,l),
(627,1456,l),
(629,1328,l)
);
},
{
closed = 1;
nodes = (
(1088,538,l),
(269,538,l),
(269,381,l),
(1088,381,l)
);
}
);
width = 1337.66;
}
);
unicode = 65;
},
{
glyphname = AE;
lastChange = "2023-09-21 14:36:57 +0000";
layers = (
{
anchors = (
{
name = top;
pos = (971,1612);
},
{
name = top0315;
pos = (1816,1612);
},
{
name = top_dd;
pos = (1816,1600);
}
);
layerId = "445B0B85-2678-4800-8A4D-B1A9856CF63B";
shapes = (
{
closed = 1;
nodes = (
(963,1408,l),
(980,1456,l),
(931,1456,l),
(50,0,l),
(115,0,l)
);
},
{
closed = 1;
nodes = (
(1003,478,l),
(354,478,l),
(354,425,l),
(1003,425,l)
);
},
{
closed = 1;
nodes = (
(1768,54,l),
(1035,54,l),
(1035,0,l),
(1768,0,l)
);
},
{
closed = 1;
nodes = (
(1009,1456,l),
(955,1456,l),
(1016,0,l),
(1070,0,l)
);
},
{
closed = 1;
nodes = (
(1625,786,l),
(995,786,l),
(995,732,l),
(1625,732,l)
);
},
{
closed = 1;
nodes = (
(1707,1456,l),
(974,1456,l),
(974,1402,l),
(1707,1402,l)
);
}
);
width = 1816;
},
{
anchors = (
{
name = top;
pos = (931,1612);
},
{
name = top0315;
pos = (1934,1612);
},
{
name = top_dd;
pos = (1934,1600);
}
);
layerId = "20EE6398-45C7-446F-8F4E-C33CF1AD7937";
shapes = (
{
closed = 1;
nodes = (
(1011,1290,l),
(962,1456,l),
(736,1456,l),
(14,0,l),
(431,0,l)
);
},
{
closed = 1;
nodes = (
(1092,618,l),
(333,618,l),
(333,319,l),
(1092,319,l)
);
},
{
closed = 1;
nodes = (
(1857,295,l),
(1125,295,l),
(1125,0,l),
(1857,0,l)
);
},
{
closed = 1;
nodes = (
(1249,1456,l),
(888,1456,l),
(949,0,l),
(1310,0,l)
);
},
{
closed = 1;
nodes = (
(1715,888,l),
(1084,888,l),
(1084,593,l),
(1715,593,l)
);
},
{
closed = 1;
nodes = (
(1796,1456,l),
(1064,1456,l),
(1064,1161,l),
(1796,1161,l)
);
}
);
width = 1934.4;
},
{
anchors = (
{
name = top;
pos = (938,1612);
},
{
name = top0315;
pos = (1915,1612);
},
{
name = top_dd;
pos = (1915,1600);
}
);
layerId = "275CACE8-FD52-4067-B7BC-43A450B7EDC9";
shapes = (
{
closed = 1;
nodes = (
(970,1308,l),
(985,1456,l),
(865,1456,l),
(-16,0,l),
(213,0,l)
);
},
{
closed = 1;
nodes = (
(1116,527,l),
(372,527,l),
(372,354,l),
(1116,354,l)
);
},
{
closed = 1;
nodes = (
(1881,150,l),
(1148,150,l),
(1148,0,l),
(1881,0,l)
);
},
{
closed = 1;
nodes = (
(1122,1456,l),
(935,1456,l),
(996,0,l),
(1183,0,l)
);
},
{
closed = 1;
nodes = (
(1738,833,l),
(1108,833,l),
(1108,683,l),
(1738,683,l)
);
},
{
closed = 1;
nodes = (
(1819,1456,l),
(1087,1456,l),
(1087,1306,l),
(1819,1306,l)
);
}
);
width = 1915.19;
}
);
unicode = 198;
},
{
glyphname = B;
lastChange = "2023-09-21 14:36:57 +0000";
layers = (
{
anchors = (
{
name = bottom;
pos = (560,10);
},
{
name = bottom_dd;
pos = (1235,-407);
},
{
name = top;
pos = (560,1612);
},
{
name = top0315;
pos = (1235,1612);
},
{
name = top_dd;
pos = (1235,1600);
}
);
guides = (
{
pos = (0,901);
},
{
pos = (0,555);
}
);
layerId = "445B0B85-2678-4800-8A4D-B1A9856CF63B";
shapes = (
{
closed = 1;
nodes = (
(685,719,l),
(770,749,l),
(957,768,o),
(1059,903,o),
(1059,1083,c),
(1059,1340,o),
(877,1456,o),
(583,1456,c),
(200,1456,l),
(200,0,l),
(254,0,l),
(254,1402,l),
(583,1402,l),
(860,1402,o),
(1004,1296,o),
(1004,1087,c),
(1004,874,o),
(867,773,o),
(603,773,c),
(231,773,l),
(233,719,l)
);
},
{
closed = 1;
nodes = (
(675,0,l),
(940,0,o),
(1125,142,o),
(1125,401,cs),
(1125,579,o),
(984,732,o),
(800,754,c),
(796,773,l),
(451,773,l),
(449,719,l),
(685,719,ls),
(943,719,o),
(1071,566,o),
(1071,399,cs),
(1071,182,o),
(920,54,o),
(675,54,cs),
(248,54,l),
(231,0,l)
);
}
);
width = 1235;
},
{
anchors = (
{
name = bottom;
pos = (594,10);
},
{
name = bottom_dd;
pos = (1329,-407);
},
{
name = top;
pos = (596,1612);
},
{
name = top0315;
pos = (1329,1612);
},
{
name = top_dd;
pos = (1329,1600);
}
);
layerId = "20EE6398-45C7-446F-8F4E-C33CF1AD7937";
shapes = (
{
closed = 1;
nodes = (
(707,603,l),
(805,705,l),
(1120,703,o),
(1220,871,o),
(1220,1050,c),
(1220,1323,o),
(1002,1456,o),
(637,1456,c),
(103,1456,l),
(103,0,l),
(479,0,l),
(479,1153,l),
(637,1153,l),
(784,1153,o),
(845,1110,o),
(845,998,c),
(845,903,o),
(790,856,o),
(634,856,c),
(335,856,l),
(337,603,l)
);
},
{
closed = 1;
nodes = (
(693,0,l),
(1060,0,o),
(1248,145,o),
(1248,435,cs),
(1248,598,o),
(1152,773,o),
(851,753,c),
(763,856,l),
(409,856,l),
(407,603,l),
(707,603,ls),
(829,603,o),
(874,542,o),
(874,441,cs),
(874,368,o),
(827,302,o),
(693,302,cs),
(374,302,l),
(246,0,l)
);
}
);
width = 1328.7;
},
{
anchors = (
{
name = bottom;
pos = (614,10);
},
{
name = bottom_dd;
pos = (1276,-407);
},
{
name = top;
pos = (606,1612);
},
{
name = top0315;
pos = (1276,1612);
},
{
name = top_dd;
pos = (1276,1600);
}
);
layerId = "275CACE8-FD52-4067-B7BC-43A450B7EDC9";
shapes = (
{
closed = 1;
nodes = (
(688,682,l),
(756,728,l),
(974,753,o),
(1122,888,o),
(1122,1068,c),
(1122,1339,o),
(944,1456,o),
(647,1456,c),
(169,1456,l),
(169,0,l),
(363,0,l),
(363,1299,l),
(647,1299,l),
(836,1299,o),
(928,1230,o),
(928,1070,c),
(928,922,o),
(817,835,o),
(652,835,c),
(318,835,l),
(320,682,l)
);
},
{
closed = 1;
nodes = (
(679,0,l),
(970,0,o),
(1160,147,o),
(1160,420,cs),
(1160,607,o),
(1042,761,o),
(832,779,c),
(791,835,l),
(415,835,l),
(413,682,l),
(688,682,ls),
(883,682,o),
(966,580,o),
(966,418,cs),
(966,258,o),
(861,156,o),
(679,156,cs),
(354,156,l),
(243,0,l)
);
}
);
width = 1275.95;
}
);
unicode = 66;
},
{
glyphname = C;
lastChange = "2023-09-21 14:36:57 +0000";
layers = (
{
anchors = (
{
name = bottom;
pos = (678,-10);
},
{
name = bottom_dd;
pos = (1327,-407);
},
{
name = top;
pos = (678,1633);
},
{
name = top0315;
pos = (1327,1633);
},
{
name = top_dd;
pos = (1327,1600);
}
);
guides = (
{
pos = (0,901);
},
{
pos = (0,555);
},
{
angle = 90;
pos = (920,0);
}
);
layerId = "445B0B85-2678-4800-8A4D-B1A9856CF63B";
shapes = (
{
closed = 1;
nodes = (
(1136,446,l),
(1106,161,o),
(941,34,o),
(671,34,cs),
(388,34,o),
(198,266,o),
(198,619,cs),
(198,839,ls),
(198,1190,o),
(388,1422,o),
(671,1422,cs),
(947,1422,o),
(1106,1279,o),
(1136,1012,c),
(1190,1012,l),
(1160,1323,o),
(963,1476,o),
(671,1476,cs),
(351,1476,o),
(144,1217,o),
(144,837,c),
(144,619,l),
(144,239,o),
(351,-20,o),
(671,-20,cs),
(963,-20,o),
(1160,131,o),
(1190,446,c)
);
}
);
width = 1327;
},
{
anchors = (
{
name = bottom;
pos = (689,2);
},
{
name = bottom_dd;
pos = (1346,-407);
},
{
name = top;
pos = (694,1593);
},
{
name = top0315;
pos = (1346,1593);
},
{
name = top_dd;
pos = (1346,1600);
}
);
layerId = "20EE6398-45C7-446F-8F4E-C33CF1AD7937";
shapes = (
{
closed = 1;
nodes = (
(923,501,l),
(920,351,o),
(838,288,o),
(688,288,cs),
(505,288,o),
(445,388,o),
(445,698,cs),
(445,759,ls),
(445,1067,o),
(519,1169,o),
(682,1169,cs),
(862,1169,o),
(922,1095,o),
(925,943,c),
(1299,943,l),
(1273,1247,o),
(1070,1477,o),
(682,1477,cs),
(309,1477,o),
(64,1204,o),
(64,757,c),
(64,698,l),
(64,251,o),
(293,-20,o),
(688,-20,cs),
(1052,-20,o),
(1284,192,o),
(1297,501,c)
);
}
);
width = 1345.55;
},
{
anchors = (
{
name = bottom;
pos = (680,-10);
},
{
name = bottom_dd;
pos = (1333,-407);
},
{
name = top;
pos = (680,1633);
},
{
name = top0315;
pos = (1333,1633);
},
{
name = top_dd;
pos = (1333,1600);
}
);
layerId = "275CACE8-FD52-4067-B7BC-43A450B7EDC9";
shapes = (
{
closed = 1;
nodes = (
(1047,462,l),
(1014,257,o),
(934,136,o),
(688,136,cs),
(430,136,o),
(314,368,o),
(314,654,cs),
(314,803,ls),
(314,1112,o),
(448,1319,o),
(706,1319,cs),
(930,1319,o),
(1018,1193,o),
(1047,989,c),
(1241,989,l),
(1211,1277,o),
(1036,1476,o),
(706,1476,cs),
(345,1476,o),
(119,1208,o),
(119,801,c),
(119,654,l),
(119,247,o),
(346,-20,o),
(688,-20,cs),
(1039,-20,o),
(1210,187,o),
(1241,462,c)
);
}
);
width = 1333.37;
}
);
unicode = 67;
},
{
glyphname = D;
lastChange = "2023-09-21 14:36:57 +0000";
layers = (
{
anchors = (
{
name = bottom;
pos = (590,10);
},
{
name = bottom_dd;
pos = (1340,-407);
},
{
name = cross;
pos = (359,738);
},
{
name = top;
pos = (590,1612);
},
{
name = top0315;
pos = (1340,1612);
},
{
name = top_dd;
pos = (1340,1600);
}
);
guides = (
{
pos = (0,901);
},
{
pos = (0,555);
}
);
layerId = "445B0B85-2678-4800-8A4D-B1A9856CF63B";
shapes = (
{
closed = 1;
nodes = (
(603,0,l),
(947,0,o),
(1204,260,o),
(1204,639,c),
(1204,817,l),
(1204,1196,o),
(947,1456,o),
(603,1456,c),
(242,1456,l),
(242,1402,l),
(603,1402,l),
(916,1402,o),
(1150,1159,o),
(1150,820,c),
(1150,639,ls),
(1150,297,o),
(916,54,o),
(603,54,c),
(250,54,l),
(248,0,l)
);
},
{
closed = 1;
nodes = (
(254,1456,l),
(200,1456,l),
(200,0,l),
(254,0,l)
);
}
);
width = 1340;
},
{
anchors = (
{
name = bottom;
pos = (471,10);
},
{
name = bottom_dd;
pos = (1323,-407);
},
{
name = cross;
pos = (326,723);
},
{
name = top;
pos = (472,1597);
},
{
name = top0315;
pos = (1323,1597);
},
{
name = top_dd;
pos = (1323,1600);
}
);
layerId = "20EE6398-45C7-446F-8F4E-C33CF1AD7937";
shapes = (
{
closed = 1;
nodes = (
(583,0,l),
(976,0,o),
(1258,290,o),
(1258,703,c),
(1258,752,l),
(1258,1165,o),
(976,1456,o),
(577,1456,c),
(256,1456,l),
(256,1153,l),
(577,1153,l),
(775,1153,o),
(876,1021,o),
(876,754,c),
(876,703,ls),
(876,432,o),
(772,302,o),
(583,302,c),
(264,302,l),
(262,0,l)
);
},
{
closed = 1;
nodes = (
(479,1456,l),
(103,1456,l),
(103,0,l),
(479,0,l)
);
}
);
width = 1323.475;
},
{
anchors = (
{
name = bottom;
pos = (613,10);
},
{
name = bottom_dd;
pos = (1344,-407);
},
{
name = cross;
pos = (322,738);
},
{
name = top;
pos = (609,1612);
},
{
name = top0315;
pos = (1344,1612);
},
{
name = top_dd;
pos = (1344,1600);
}
);
layerId = "275CACE8-FD52-4067-B7BC-43A450B7EDC9";
shapes = (
{
closed = 1;
nodes = (
(563,0,l),
(967,0,o),
(1223,263,o),
(1223,684,c),
(1223,772,l),
(1223,1192,o),
(963,1456,o),
(580,1456,c),
(253,1456,l),
(253,1299,l),
(580,1299,l),
(868,1299,o),
(1031,1107,o),
(1031,774,c),
(1031,684,ls),
(1031,364,o),
(873,156,o),
(563,156,c),
(261,156,l),
(259,0,l)
);
},
{
closed = 1;
nodes = (
(363,1456,l),
(169,1456,l),
(169,0,l),
(363,0,l)
);
}
);
width = 1343.64;
}
);
unicode = 68;
},
{
glyphname = E;
lastChange = "2023-09-21 14:36:57 +0000";
layers = (
{
anchors = (
{
name = bottom;
pos = (619,10);
},
{
name = bottom_dd;
pos = (1166,-407);
},
{
name = ogonek;
pos = (1027,0);
},
{
name = tonos;
pos = (-70,1457);
},
{
name = top;
pos = (619,1612);
},
{
name = top0315;
pos = (1166,1612);
},
{
name = top_dd;
pos = (1166,1600);
}
);
layerId = "445B0B85-2678-4800-8A4D-B1A9856CF63B";
shapes = (
{
closed = 1;
nodes = (
(1086,54,l),
(219,54,l),
(219,0,l),
(1086,0,l)
);
},
{
closed = 1;
nodes = (
(254,1456,l),
(200,1456,l),
(200,0,l),
(254,0,l)
);
},
{
closed = 1;
nodes = (
(984,776,l),
(219,776,l),
(219,722,l),
(984,722,l)
);
},
{
closed = 1;
nodes = (
(1086,1456,l),
(219,1456,l),
(219,1402,l),
(1086,1402,l)
);
}
);
width = 1166;
},
{
anchors = (
{
name = bottom;
pos = (651,10);
},
{
name = bottom_dd;
pos = (1144,-407);
},
{
name = ogonek;
pos = (909,0);
},
{
name = tonos;
pos = (-111,1457);
},
{
name = top;
pos = (646,1597);
},
{
name = top0315;
pos = (1144,1597);
},
{
name = top_dd;
pos = (1144,1600);
}
);
layerId = "20EE6398-45C7-446F-8F4E-C33CF1AD7937";
shapes = (
{
closed = 1;
nodes = (
(1115,302,l),
(346,302,l),
(346,0,l),
(1115,0,l)
);
},
{
closed = 1;
nodes = (
(479,1456,l),
(103,1456,l),
(103,0,l),
(479,0,l)
);
},
{
closed = 1;
nodes = (
(1016,892,l),
(346,892,l),
(346,601,l),
(1016,601,l)
);
},
{
closed = 1;
nodes = (
(1118,1456,l),
(346,1456,l),
(346,1153,l),
(1118,1153,l)
);
}
);
width = 1144.25;
},
{
anchors = (
{
name = bottom;
pos = (619,10);
},
{
name = bottom_dd;
pos = (1164,-407);
},
{
name = ogonek;
pos = (1022,0);
},
{
name = tonos;
pos = (-42,1455);
},
{
name = top;
pos = (619,1612);
},
{
name = top0315;
pos = (1164,1612);
},
{
name = top_dd;
pos = (1164,1600);
}
);
layerId = "275CACE8-FD52-4067-B7BC-43A450B7EDC9";
shapes = (
{
closed = 1;
nodes = (
(1094,156,l),
(325,156,l),
(325,0,l),
(1094,0,l)
);
},
{
closed = 1;
nodes = (
(363,1456,l),
(169,1456,l),
(169,0,l),
(363,0,l)
);
},
{
closed = 1;
nodes = (
(992,830,l),
(325,830,l),
(325,674,l),
(992,674,l)
);
},
{
closed = 1;
nodes = (
(1084,1456,l),
(325,1456,l),
(325,1299,l),
(1084,1299,l)
);
}
);
width = 1164.18;
}
);
unicode = 69;
},
{
glyphname = F;
lastChange = "2023-09-21 14:36:57 +0000";
layers = (
{
anchors = (
{
name = bottom;
pos = (531,10);
},
{
name = bottom_dd;
pos = (1172,-407);
},
{
name = cross;
pos = (331,337);
},
{
name = top;
pos = (619,1612);
},
{
name = top0315;
pos = (1172,1612);
},
{
name = top_dd;
pos = (1172,1600);
}
);
layerId = "445B0B85-2678-4800-8A4D-B1A9856CF63B";
shapes = (
{
closed = 1;
nodes = (
(254,1456,l),
(200,1456,l),
(200,0,l),
(254,0,l)
);
},
{
closed = 1;
nodes = (
(1000,772,l),
(215,772,l),
(215,716,l),
(1000,716,l)
);
},
{
closed = 1;
nodes = (
(1102,1456,l),
(215,1456,l),
(215,1402,l),
(1102,1402,l)
);
}
);
width = 1172;
},
{
anchors = (
{
name = bottom;
pos = (531,10);
},
{
name = bottom_dd;
pos = (1116,-407);
},
{
name = cross;
pos = (329,281);
},
{
name = top;
pos = (646,1612);
},
{
name = top0315;
pos = (1116,1612);
},
{
name = top_dd;
pos = (1116,1600);
}
);
layerId = "20EE6398-45C7-446F-8F4E-C33CF1AD7937";
shapes = (
{
closed = 1;
nodes = (
(479,1456,l),
(103,1456,l),
(103,0,l),
(479,0,l)
);
},
{
closed = 1;
nodes = (
(1030,863,l),
(374,863,l),
(374,561,l),
(1030,561,l)
);
},
{
closed = 1;
nodes = (
(1084,1456,l),
(374,1456,l),
(374,1153,l),
(1084,1153,l)
);
}
);
width = 1116.125;
},
{
anchors = (
{
name = bottom;
pos = (531,10);
},
{
name = bottom_dd;
pos = (1132,-407);
},
{
name = cross;
pos = (333,337);
},
{
name = top;
pos = (619,1612);
},
{
name = top0315;
pos = (1132,1612);
},
{
name = top_dd;
pos = (1132,1600);
}
);
layerId = "275CACE8-FD52-4067-B7BC-43A450B7EDC9";
shapes = (
{
closed = 1;
nodes = (
(363,1456,l),
(169,1456,l),
(169,0,l),
(363,0,l)
);
},
{
closed = 1;
nodes = (
(972,800,l),
(321,800,l),
(321,644,l),
(972,644,l)
);
},
{
closed = 1;
nodes = (
(1071,1456,l),
(321,1456,l),
(321,1299,l),
(1071,1299,l)
);
}
);
width = 1131.96;
}
);
unicode = 70;
},
{
glyphname = G;
lastChange = "2023-09-21 14:36:57 +0000";
layers = (
{
anchors = (
{
name = bottom;
pos = (729,0);
},
{
name = bottom_dd;
pos = (1406,-407);
},
{
name = top;
pos = (703,1633);
},
{
name = top0315;
pos = (1406,1633);
},
{
name = top_dd;
pos = (1406,1600);
}
);
guides = (
{
pos = (0,901);
},
{
pos = (0,555);
}
);
layerId = "445B0B85-2678-4800-8A4D-B1A9856CF63B";
shapes = (
{
closed = 1;
nodes = (
(1226,660,l),
(727,660,l),
(727,605,l),
(1172,605,l),
(1172,181,l),
(1127,122,o),
(967,34,o),
(729,34,cs),
(421,34,o),
(222,277,o),
(222,620,cs),
(222,860,ls),
(222,1188,o),
(415,1422,o),
(712,1422,cs),
(1015,1422,o),
(1140,1252,o),
(1170,1062,c),
(1224,1062,l),
(1197,1295,o),
(1027,1476,o),
(712,1476,cs),
(391,1476,o),
(168,1225,o),
(168,858,cs),
(168,620,ls),
(168,240,o),
(397,-20,o),
(729,-20,cs),
(1013,-20,o),
(1179,90,o),
(1226,156,c)
);
}
);
width = 1406;
},
{
anchors = (
{
name = bottom;
pos = (725,2);
},
{
name = bottom_dd;
pos = (1396,-407);
},
{
name = top;
pos = (711,1593);
},
{
name = top0315;
pos = (1396,1593);
},
{
name = top_dd;
pos = (1396,1600);
}
);
layerId = "20EE6398-45C7-446F-8F4E-C33CF1AD7937";
shapes = (
{
closed = 1;
nodes = (
(1309,794,l),
(706,794,l),
(706,528,l),
(933,528,l),
(933,330,l),
(906,308,o),
(851,282,o),
(750,282,cs),
(543,282,o),
(456,413,o),
(456,694,cs),
(456,762,ls),
(456,1047,o),
(558,1176,o),
(716,1176,cs),
(867,1176,o),
(928,1107,o),
(947,968,c),
(1308,968,l),
(1279,1268,o),
(1112,1477,o),
(703,1477,cs),
(338,1477,o),
(75,1221,o),
(75,760,cs),
(75,694,ls),
(75,233,o),
(331,-20,o),
(723,-20,cs),
(1039,-20,o),
(1231,96,o),
(1309,180,c)
);
}
);
width = 1395.55;
},
{
anchors = (
{
name = bottom;
pos = (730,-9);
},
{
name = bottom_dd;
pos = (1395,-407);
},
{
name = top;
pos = (671,1633);
},
{
name = top0315;
pos = (1395,1633);
},
{
name = top_dd;
pos = (1395,1600);
}
);
layerId = "275CACE8-FD52-4067-B7BC-43A450B7EDC9";
shapes = (
{
closed = 1;
nodes = (
(1245,725,l),
(716,725,l),
(716,570,l),
(1052,570,l),
(1052,242,l),
(1013,198,o),
(937,136,o),
(731,136,cs),
(483,136,o),
(317,335,o),
(317,671,cs),
(317,788,ls),
(317,1115,o),
(438,1319,o),
(708,1319,cs),
(930,1319,o),
(1024,1187,o),
(1051,1030,c),
(1245,1030,l),
(1208,1288,o),
(1041,1476,o),
(707,1476,cs),
(331,1476,o),
(122,1220,o),
(122,786,cs),
(122,671,ls),
(122,236,o),
(375,-20,o),
(730,-20,cs),
(1057,-20,o),
(1190,112,o),
(1245,191,c)
);
}
);
width = 1395.08;
}
);
unicode = 71;
},
{
glyphname = H;
lastChange = "2023-09-21 14:36:57 +0000";
layers = (
{
anchors = (
{
name = bottom;
pos = (716,10);
},
{
name = bottom_dd;
pos = (1438,-407);
},
{
name = right;
pos = (1238,0);
},
{
name = tonos;
pos = (-58,1457);
},
{
name = top;
pos = (716,1612);
},
{
name = top0315;
pos = (1438,1612);
},
{
name = top_dd;
pos = (1438,1600);
}
);
layerId = "445B0B85-2678-4800-8A4D-B1A9856CF63B";
shapes = (
{
closed = 1;
nodes = (
(1207,776,l),
(227,776,l),
(227,722,l),
(1207,722,l)
);
},
{
closed = 1;
nodes = (
(254,1456,l),
(200,1456,l),
(200,0,l),
(254,0,l)
);
},
{
closed = 1;
nodes = (
(1238,1456,l),
(1184,1456,l),
(1184,0,l),
(1238,0,l)
);
}
);
width = 1438;
},
{
anchors = (
{
name = bottom;
pos = (732,10);
},
{
name = bottom_dd;
pos = (1439,-407);
},
{
name = right;
pos = (1333,0);
},
{
name = tonos;
pos = (-114,1450);
},
{
name = top;
pos = (729,1597);
},
{
name = top0315;
pos = (1439,1597);
},
{
name = top_dd;
pos = (1439,1600);
}
);
layerId = "20EE6398-45C7-446F-8F4E-C33CF1AD7937";
shapes = (
{
closed = 1;
nodes = (
(1083,892,l),
(354,892,l),
(354,590,l),
(1083,590,l)
);
},
{
closed = 1;
nodes = (
(479,1456,l),
(103,1456,l),
(103,0,l),
(479,0,l)
);
},
{
closed = 1;
nodes = (
(1335,1456,l),
(961,1456,l),
(961,0,l),
(1335,0,l)
);
}
);
width = 1439.15;
},
{
anchors = (
{
name = bottom;
pos = (714,10);
},
{
name = bottom_dd;
pos = (1461,-407);
},
{
name = right;
pos = (1288,0);
},
{
name = tonos;
pos = (-28,1457);
},
{
name = top;
pos = (712,1612);
},
{
name = top0315;
pos = (1461,1612);
},
{
name = top_dd;
pos = (1461,1600);
}
);
layerId = "275CACE8-FD52-4067-B7BC-43A450B7EDC9";
shapes = (
{
closed = 1;
nodes = (
(1119,830,l),
(333,830,l),
(333,674,l),
(1119,674,l)
);
},
{
closed = 1;
nodes = (
(363,1456,l),
(169,1456,l),
(169,0,l),
(363,0,l)
);
},
{
closed = 1;
nodes = (
(1289,1456,l),
(1095,1456,l),
(1095,0,l),
(1289,0,l)
);
}
);
width = 1460.75;
}
);
unicode = 72;
},
{
glyphname = I;
lastChange = "2023-09-21 14:36:57 +0000";
layers = (
{
anchors = (
{
name = bottom;
pos = (268,0);
},
{
name = bottom_dd;
pos = (534,-407);
},
{
name = ogonek;
pos = (288,0);
},
{
name = right;
pos = (294,0);
},
{
name = tonos;
pos = (-32,1451);
},
{
name = top;
pos = (268,1612);
},
{
name = top0315;
pos = (534,1612);
},
{
name = top_dd;
pos = (534,1600);
}
);
guides = (
{
pos = (0,901);
},
{
pos = (0,555);
}
);
layerId = "445B0B85-2678-4800-8A4D-B1A9856CF63B";
shapes = (
{
closed = 1;
nodes = (
(294,1456,l),
(240,1456,l),
(240,0,l),
(294,0,l)
);
}
);
width = 534;
},
{
anchors = (
{
name = bottom;
pos = (313,-2);
},
{
name = bottom_dd;
pos = (626,-407);
},
{
name = ogonek;
pos = (424,0);
},
{
name = right;
pos = (491,0);
},
{
name = tonos;
pos = (-117,1457);
},
{
name = top;
pos = (312,1597);
},
{
name = top0315;
pos = (626,1597);
},
{
name = top_dd;
pos = (626,1600);
}
);
layerId = "20EE6398-45C7-446F-8F4E-C33CF1AD7937";
shapes = (
{
closed = 1;
nodes = (
(500,1456,l),
(126,1456,l),
(126,0,l),
(500,0,l)
);
}
);
width = 625.65;
},
{
anchors = (
{
name = bottom;
pos = (279,9);
},
{
name = bottom_dd;
pos = (558,-407);
},
{
name = ogonek;
pos = (342,0);
},
{
name = right;
pos = (372,0);
},
{
name = tonos;
pos = (-22,1456);
},
{
name = top;
pos = (279,1612);
},
{
name = top0315;
pos = (558,1612);
},
{
name = top_dd;
pos = (558,1600);
}
);
layerId = "275CACE8-FD52-4067-B7BC-43A450B7EDC9";
shapes = (
{
closed = 1;
nodes = (
(377,1456,l),
(183,1456,l),
(183,0,l),
(377,0,l)
);
}
);
width = 557.66;
}
);
unicode = 73;
},
{
glyphname = J;
lastChange = "2023-09-21 14:36:57 +0000";
layers = (
{
anchors = (
{
name = bottom;
pos = (512,-10);
},
{
name = bottom_dd;
pos = (1125,-407);
},
{
name = top;
pos = (902,1582);
},
{
name = top0315;
pos = (1125,1582);
},
{
name = top_dd;
pos = (1125,1600);
}
);
guides = (
{
pos = (0,901);
},
{
pos = (0,555);
}
);
layerId = "445B0B85-2678-4800-8A4D-B1A9856CF63B";
shapes = (
{
closed = 1;
nodes = (
(876,442,l),
(876,173,o),
(710,34,o),
(510,34,cs),
(267,34,o),
(144,165,o),
(144,401,c),
(90,401,l),
(90,116,o),
(253,-20,o),
(510,-20,cs),
(747,-20,o),
(930,143,o),
(930,442,c),
(930,1456,l),
(876,1456,l)
);
}
);
width = 1125;
},
{
anchors = (
{
name = bottom;
pos = (512,-10);
},
{
name = bottom_dd;
pos = (1154,-407);
},
{
name = top;
pos = (857,1601);
},
{
name = top0315;
pos = (1154,1601);
},
{
name = top_dd;
pos = (1154,1600);
}
);
layerId = "20EE6398-45C7-446F-8F4E-C33CF1AD7937";
shapes = (
{
closed = 1;
nodes = (
(675,463,l),
(675,351,o),
(629,282,o),
(541,282,cs),
(456,282,o),
(409,312,o),
(409,448,c),
(32,448,l),
(32,126,o),
(246,-20,o),
(541,-20,cs),
(826,-20,o),
(1049,171,o),
(1049,463,c),
(1049,1456,l),
(675,1456,l)
);
}
);
width = 1153.5;
},
{
anchors = (
{
name = bottom;
pos = (512,-10);
},
{
name = bottom_dd;
pos = (1130,-407);
},
{
name = top;
pos = (851,1599);
},
{
name = top0315;
pos = (1130,1599);
},
{
name = top_dd;
pos = (1130,1600);
}
);
layerId = "275CACE8-FD52-4067-B7BC-43A450B7EDC9";
shapes = (
{
closed = 1;
nodes = (
(779,426,l),
(779,236,o),
(665,136,o),
(513,136,cs),
(357,136,o),
(247,219,o),
(247,403,c),
(53,403,l),
(53,116,o),
(245,-20,o),
(513,-20,cs),
(781,-20,o),
(973,137,o),
(973,426,c),
(973,1456,l),
(779,1456,l)
);
}
);
width = 1130.46;
}
);
unicode = 74;
},
{
glyphname = K;
lastChange = "2023-09-21 14:36:57 +0000";
layers = (
{
anchors = (
{
name = bottom;
pos = (623,110);
},
{
name = bottom_dd;
pos = (1300,-407);
},
{
name = cross;
pos = (273,1229);
},
{
name = right;
pos = (1180,-30);
},
{
name = top;
pos = (602,1524);
},
{
name = top0315;
pos = (1300,1524);
},
{
name = top_dd;
pos = (1300,1600);
}
);
layerId = "445B0B85-2678-4800-8A4D-B1A9856CF63B";
shapes = (
{
closed = 1;
nodes = (
(254,1456,l),
(200,1456,l),
(200,0,l),
(254,0,l)
);
},
{
closed = 1;
nodes = (
(1176,1456,l),
(1098,1456,l),
(492,847,l),
(240,601,l),
(232,531,l),
(525,801,l)
);
},
{
closed = 1;
nodes = (
(1156,0,l),
(1226,0,l),
(503,832,l),
(470,785,l)
);
}
);
width = 1300;
},
{
anchors = (
{
name = bottom;
pos = (647,43);
},
{
name = bottom_dd;
pos = (1311,-407);
},
{
name = cross;
pos = (242,1224);
},
{
name = right;
pos = (1195,2);
},
{
name = top;
pos = (592,1606);
},
{
name = top0315;
pos = (1311,1606);
},
{
name = top_dd;
pos = (1311,1600);
}
);
layerId = "20EE6398-45C7-446F-8F4E-C33CF1AD7937";
shapes = (
{
closed = 1;
nodes = (
(479,1456,l),
(103,1456,l),
(103,0,l),
(479,0,l)
);
},
{
closed = 1;
nodes = (
(1344,1456,l),
(881,1456,l),
(591,1023,l),
(384,692,l),
(454,335,l),
(787,703,l)
);
},
{
closed = 1;
nodes = (
(896,0,l),
(1340,0,l),
(838,858,l),
(546,639,l)
);
}
);
width = 1311.125;
},
{
anchors = (
{
name = bottom;
pos = (660,90);
},
{
name = bottom_dd;
pos = (1285,-407);
},
{
name = cross;
pos = (276,1229);
},
{
name = right;
pos = (1224,-3);
},
{
name = top;
pos = (605,1594);
},
{
name = top0315;
pos = (1285,1594);
},
{
name = top_dd;
pos = (1285,1600);
}
);
layerId = "275CACE8-FD52-4067-B7BC-43A450B7EDC9";
shapes = (
{
closed = 1;
nodes = (
(363,1456,l),
(169,1456,l),
(169,0,l),
(363,0,l)
);
},
{
closed = 1;
nodes = (
(1242,1456,l),
(1008,1456,l),
(520,912,l),
(265,629,l),
(297,425,l),
(637,777,l)
);
},
{
closed = 1;
nodes = (
(1054,0,l),
(1286,0,l),
(632,863,l),
(516,710,l)
);
}
);
width = 1284.53;
}
);
unicode = 75;
},
{
glyphname = L;
lastChange = "2023-09-21 14:36:57 +0000";
layers = (
{
anchors = (
{
name = bottom;
pos = (625,10);
},
{
name = bottom_dd;
pos = (1057,-407);
},
{
name = caron;
pos = (568,1455);
},
{
name = dot;
pos = (601,755);
},
{
name = top;
pos = (232,1549);
},
{
name = top0315;
pos = (1057,1549);
},
{
name = top_dd;
pos = (1057,1600);
}
);
layerId = "445B0B85-2678-4800-8A4D-B1A9856CF63B";
shapes = (
{
closed = 1;
nodes = (
(1002,54,l),
(220,54,l),
(220,0,l),
(1002,0,l)
);
},
{
closed = 1;
nodes = (
(255,1456,l),
(200,1456,l),
(200,0,l),
(255,0,l)
);
}
);
width = 1057;
},
{
anchors = (
{
name = bottom;
pos = (589,10);
},
{
name = bottom_dd;
pos = (1114,-407);
},
{
name = caron;
pos = (692,1456);
},
{
name = dot;
pos = (599,863);
},
{
name = top;
pos = (303,1604);
},
{
name = top0315;
pos = (1114,1604);
},
{
name = top_dd;
pos = (1114,1600);
}
);
layerId = "20EE6398-45C7-446F-8F4E-C33CF1AD7937";
shapes = (
{
closed = 1;
nodes = (
(1078,302,l),
(346,302,l),
(346,0,l),
(1078,0,l)
);
},
{
closed = 1;
nodes = (
(478,1456,l),
(103,1456,l),
(103,0,l),
(478,0,l)
);
}
);
width = 1114.275;
},
{
anchors = (
{
name = bottom;
pos = (620,10);
},
{
name = bottom_dd;
pos = (1103,-407);
},
{
name = caron;
pos = (604,1455);
},
{
name = dot;
pos = (600,790);
},
{
name = top;
pos = (264,1595);
},
{
name = top0315;
pos = (1103,1595);
},
{
name = top_dd;
pos = (1103,1600);
}
);
layerId = "275CACE8-FD52-4067-B7BC-43A450B7EDC9";
shapes = (
{
closed = 1;
nodes = (
(1053,156,l),
(325,156,l),
(325,0,l),
(1053,0,l)
);
},
{
closed = 1;
nodes = (
(363,1456,l),
(169,1456,l),
(169,0,l),
(363,0,l)
);
}
);
width = 1103.41;
}
);
unicode = 76;
},
{
glyphname = M;
lastChange = "2023-09-21 14:36:57 +0000";
layers = (
{
anchors = (
{
name = bottom;
pos = (879,10);
},
{
name = bottom_dd;
pos = (1756,-407);
},
{
name = right;
pos = (1556,0);
},
{
name = top;
pos = (890,1612);
},
{
name = top0315;
pos = (1756,1612);
},
{
name = top_dd;
pos = (1756,1600);
}
);
layerId = "445B0B85-2678-4800-8A4D-B1A9856CF63B";
shapes = (
{
closed = 1;
nodes = (
(216,1456,l),
(855,0,l),
(898,0,l),
(1537,1456,l),
(1477,1456,l),
(876,79,l),
(277,1456,l)
);
},
{
closed = 1;
nodes = (
(200,1456,l),
(200,0,l),
(254,0,l),
(254,703,l),
(254,1456,l)
);
},
{
closed = 1;
nodes = (
(1502,1456,l),
(1502,703,l),
(1502,0,l),
(1556,0,l),
(1556,1456,l)
);
}
);
width = 1756;
},
{
anchors = (
{
name = bottom;
pos = (897,10);
},
{
name = bottom_dd;
pos = (1798,-407);
},
{
name = right;
pos = (1691,0);
},
{
name = top;
pos = (894,1599);
},
{
name = top0315;
pos = (1798,1599);
},
{
name = top_dd;
pos = (1798,1600);
}
);
layerId = "20EE6398-45C7-446F-8F4E-C33CF1AD7937";
shapes = (
{
closed = 1;
nodes = (
(291,1456,l),
(774,0,l),
(1021,0,l),
(1504,1456,l),
(1200,1456,l),
(898,494,l),
(595,1456,l)
);
},
{
closed = 1;
nodes = (
(103,1456,l),
(103,0,l),
(479,0,l),
(479,280,l),
(420,1456,l)
);
},
{
closed = 1;
nodes = (
(1375,1456,l),
(1316,280,l),
(1316,0,l),
(1693,0,l),
(1693,1456,l)
);
}
);
width = 1798.375;
},
{
anchors = (
{
name = bottom;
pos = (894,10);
},
{
name = bottom_dd;
pos = (1789,-407);
},
{
name = right;
pos = (1605,0);
},
{
name = top;
pos = (890,1601);
},
{
name = top0315;
pos = (1789,1601);
},
{
name = top_dd;
pos = (1789,1600);
}
);
layerId = "275CACE8-FD52-4067-B7BC-43A450B7EDC9";
shapes = (
{
closed = 1;
nodes = (
(230,1456,l),
(820,0,l),
(967,0,l),
(1558,1456,l),
(1369,1456,l),
(894,266,l),
(419,1456,l)
);
},
{
closed = 1;
nodes = (
(169,1456,l),
(169,0,l),
(362,0,l),
(362,569,l),
(335,1456,l)
);
},
{
closed = 1;
nodes = (
(1453,1456,l),
(1426,569,l),
(1426,0,l),
(1619,0,l),
(1619,1456,l)
);
}
);
width = 1788.76;
}
);
unicode = 77;
},
{
glyphname = N;
lastChange = "2023-09-21 14:36:57 +0000";
layers = (
{
anchors = (
{
name = bottom;
pos = (726,10);
},
{
name = bottom_dd;
pos = (1449,-407);
},
{
name = right;
pos = (1249,0);
},
{
name = top;
pos = (726,1612);
},
{
name = top0315;
pos = (1449,1612);
},
{
name = top_dd;
pos = (1449,1600);
}
);
layerId = "445B0B85-2678-4800-8A4D-B1A9856CF63B";
shapes = (
{
closed = 1;
nodes = (
(1249,1456,l),
(1195,1456,l),
(1195,95,l),
(255,1456,l),
(200,1456,l),
(200,0,l),
(255,0,l),
(255,1364,l),
(1195,0,l),
(1249,0,l)
);
}
);
width = 1449;
},
{
anchors = (
{
name = bottom;
pos = (727,-2);
},
{
name = bottom_dd;
pos = (1437,-407);
},
{
name = right;
pos = (1331,0);
},
{
name = top;
pos = (726,1599);
},
{
name = top0315;
pos = (1437,1599);
},
{
name = top_dd;
pos = (1437,1600);
}
);
layerId = "20EE6398-45C7-446F-8F4E-C33CF1AD7937";
shapes = (
{
closed = 1;
nodes = (
(1333,1456,l),
(959,1456,l),
(959,614,l),
(478,1456,l),
(103,1456,l),
(103,0,l),
(478,0,l),
(478,842,l),
(959,0,l),
(1333,0,l)
);
}
);
width = 1437.25;
},
{
anchors = (
{
name = bottom;
pos = (720,10);
},
{
name = bottom_dd;
pos = (1461,-407);
},
{
name = right;
pos = (1288,0);
},
{
name = top;
pos = (726,1601);
},
{
name = top0315;
pos = (1461,1601);
},
{
name = top_dd;
pos = (1461,1600);
}
);
layerId = "275CACE8-FD52-4067-B7BC-43A450B7EDC9";
shapes = (
{
closed = 1;
nodes = (
(1289,1456,l),
(1097,1456,l),
(1097,327,l),
(363,1456,l),
(169,1456,l),
(169,0,l),
(363,0,l),
(363,1126,l),
(1094,0,l),
(1289,0,l)
);
}
);
width = 1460.83;
}
);
unicode = 78;
},
{
glyphname = O;
lastChange = "2023-09-21 14:36:57 +0000";
layers = (
{
anchors = (
{
name = bottom;
pos = (683,-2);
},
{
name = bottom_dd;
pos = (1364,-407);
},
{
name = tonos;
pos = (130,1454);
},
{
name = top;
pos = (676,1633);
},
{
name = top0315;
pos = (1364,1633);
},
{
name = top_dd;
pos = (1364,1600);
}
);
guides = (
{
pos = (0,901);
},
{
pos = (0,555);
}
);
layerId = "445B0B85-2678-4800-8A4D-B1A9856CF63B";
shapes = (
{
closed = 1;
nodes = (
(1231,837,l),
(1231,1217,o),
(1016,1476,o),
(681,1476,cs),
(347,1476,o),
(133,1217,o),
(133,837,c),
(133,619,l),
(133,239,o),
(349,-20,o),
(683,-20,cs),
(1018,-20,o),
(1231,239,o),
(1231,619,c)
);
},
{
closed = 1;
nodes = (
(1177,619,l),
(1177,276,o),
(997,34,o),
(683,34,cs),
(371,34,o),
(188,276,o),
(188,619,cs),
(188,839,ls),
(188,1180,o),
(369,1422,o),
(681,1422,cs),
(995,1422,o),
(1177,1180,o),
(1177,839,c)
);
}
);
width = 1364;
},
{
anchors = (
{
name = bottom;
pos = (714,0);
},
{
name = bottom_dd;
pos = (1418,-407);
},
{
name = tonos;
pos = (90,1454);
},
{
name = top;
pos = (706,1598);
},
{
name = top0315;
pos = (1418,1598);
},
{
name = top_dd;
pos = (1418,1600);
}
);
layerId = "20EE6398-45C7-446F-8F4E-C33CF1AD7937";
shapes = (
{
closed = 1;
nodes = (
(1352,749,l),
(1352,1200,o),
(1082,1476,o),
(708,1476,cs),
(329,1476,o),
(64,1200,o),
(64,749,c),
(64,706,l),
(64,255,o),
(331,-20,o),
(710,-20,cs),
(1084,-20,o),
(1352,255,o),
(1352,706,c)
);
},
{
closed = 1;
nodes = (
(971,706,l),
(971,435,o),
(878,286,o),
(710,286,cs),
(534,286,o),
(446,435,o),
(446,706,cs),
(446,751,ls),
(446,1027,o),
(532,1169,o),
(708,1169,cs),
(876,1169,o),
(971,1027,o),
(971,751,c)
);
}
);
width = 1417.75;
},
{
anchors = (
{
name = bottom;
pos = (708,0);
},
{
name = bottom_dd;
pos = (1410,-407);
},
{
name = tonos;
pos = (148,1454);
},
{
name = top;
pos = (707,1603);
},
{
name = top0315;
pos = (1410,1603);
},
{
name = top_dd;
pos = (1410,1600);
}
);
layerId = "275CACE8-FD52-4067-B7BC-43A450B7EDC9";
shapes = (
{
closed = 1;
nodes = (
(1290,774,l),
(1290,1210,o),
(1059,1476,o),
(704,1476,cs),
(359,1476,o),
(118,1210,o),
(118,774,c),
(118,681,l),
(118,245,o),
(361,-20,o),
(706,-20,cs),
(1061,-20,o),
(1290,245,o),
(1290,681,c)
);
},
{
closed = 1;
nodes = (
(1098,681,l),
(1098,332,o),
(956,142,o),
(706,142,cs),
(468,142,o),
(311,332,o),
(311,681,cs),
(311,776,ls),
(311,1123,o),
(466,1313,o),
(704,1313,cs),
(952,1313,o),
(1098,1123,o),
(1098,776,c)
);
}
);
width = 1409.5;
}
);
unicode = 79;
},
{
glyphname = Oslash;
lastChange = "2023-09-21 14:36:57 +0000";
layers = (
{
anchors = (
{
name = top;
pos = (712,1674);
},
{
name = top0315;
pos = (1364,1674);
},
{
name = top_dd;
pos = (1364,1600);
}
);
layerId = "445B0B85-2678-4800-8A4D-B1A9856CF63B";
shapes = (
{
closed = 1;
nodes = (
(1240,1495,l),
(1174,1495,l),
(177,-75,l),
(243,-75,l)
);
},
{
ref = O;
}
);
width = 1364;
},
{
anchors = (
{
name = top;
pos = (716,1674);
},
{
name = top0315;
pos = (1413,1674);
},
{
name = top_dd;
pos = (1413,1600);
}
);
layerId = "20EE6398-45C7-446F-8F4E-C33CF1AD7937";
shapes = (
{
closed = 1;
nodes = (
(1275,1520,l),
(1056,1520,l),
(136,-97,l),
(355,-97,l)
);
},
{
pos = (12,0);
ref = O;
}
);
userData = {
com.schriftgestaltung.componentsAlignment = (
-1
);
};
width = 1412.85;
},
{
anchors = (
{
name = top;
pos = (715,1674);
},
{
name = top0315;
pos = (1410,1674);
},
{
name = top_dd;
pos = (1410,1600);
}
);
layerId = "275CACE8-FD52-4067-B7BC-43A450B7EDC9";
shapes = (
{
closed = 1;
nodes = (
(1310,1516,l),
(1169,1516,l),
(164,-93,l),
(308,-93,l)
);
},
{
ref = O;
}
);
userData = {
com.schriftgestaltung.componentsAlignment = (
-1
);
};
width = 1409.5;
}
);
unicode = 216;
},
{
glyphname = OE;
lastChange = "2023-09-21 14:36:57 +0000";
layers = (
{
anchors = (
{
name = bottom;
pos = (957,-2);
},
{
name = bottom_dd;
pos = (1873,-407);
},
{
name = top;
pos = (957,1633);
},
{
name = top0315;
pos = (1873,1633);
},
{
name = top_dd;
pos = (1873,1600);
}
);
layerId = "445B0B85-2678-4800-8A4D-B1A9856CF63B";
shapes = (
{
closed = 1;
nodes = (
(629,1476,cs),
(322,1476,o),
(112,1233,o),
(112,880,c),
(112,576,l),
(112,223,o),
(324,-21,o),
(631,-21,cs),
(748,-21,o),
(860,-10,o),
(961,0,c),
(961,53,l),
(869,38,o),
(743,33,o),
(631,33,cs),
(349,33,o),
(166,260,o),
(166,576,c),
(166,882,l),
(166,1205,o),
(347,1422,o),
(629,1422,cs),
(749,1422,o),
(862,1419,o),
(961,1403,c),
(961,1456,l),
(860,1467,o),
(746,1476,o)
);
},
{
pos = (715,0);
ref = E;
}
);
width = 1873;
},
{
anchors = (
{
name = bottom;
pos = (1010,0);
},
{
name = bottom_dd;
pos = (2004,-407);
},
{
name = top;
pos = (1010,1598);
},
{
name = top0315;
pos = (2004,1598);
},
{
name = top_dd;
pos = (2004,1600);
}
);
layerId = "20EE6398-45C7-446F-8F4E-C33CF1AD7937";
shapes = (
{
closed = 1;
nodes = (
(728,1476,cs),
(349,1476,o),
(91,1233,o),
(91,880,c),
(91,576,l),
(91,223,o),
(351,-20,o),
(730,-20,cs),
(830,-20,o),
(927,-10,o),
(1015,0,c),
(1015,298,l),
(929,282,o),
(832,271,o),
(730,271,cs),
(559,271,o),
(452,369,o),
(452,576,c),
(452,882,l),
(452,1089,o),
(557,1185,o),
(728,1185,cs),
(831,1185,o),
(929,1173,o),
(1015,1158,c),
(1015,1456,l),
(927,1467,o),
(828,1476,o)
);
},
{
pos = (813,0);
ref = E;
}
);
userData = {
com.schriftgestaltung.componentsAlignment = (
-1
);
};
width = 2004.2;
},
{
anchors = (
{
name = bottom;
pos = (953,0);
},
{
name = bottom_dd;
pos = (1953.99,-407);
},
{
name = top;
pos = (953,1603);
},
{
name = top0315;
pos = (1954,1603);
},
{
name = top_dd;
pos = (1953.99,1600);
}
);
layerId = "275CACE8-FD52-4067-B7BC-43A450B7EDC9";
shapes = (
{
closed = 1;
nodes = (
(660,1477,cs),
(329,1477,o),
(105,1233,o),
(105,880,c),
(105,576,l),
(105,223,o),
(331,-21,o),
(662,-21,cs),
(764,-21,o),
(864,-10,o),
(954,0,c),
(954,157,l),
(867,141,o),
(766,129,o),
(662,129,cs),
(436,129,o),
(292,285,o),
(292,576,c),
(292,882,l),
(292,1172,o),
(434,1326,o),
(660,1326,cs),
(765,1326,o),
(866,1315,o),
(954,1299,c),
(954,1456,l),
(864,1467,o),
(762,1477,o)
);
},
{
pos = (707,0);
ref = E;
}
);
userData = {
com.schriftgestaltung.componentsAlignment = (
-1
);
};
width = 1953.99;
}
);
unicode = 338;
},
{
glyphname = P;
lastChange = "2023-09-21 14:36:57 +0000";
layers = (
{
anchors = (
{
name = bottom;
pos = (530,10);
},
{
name = bottom_dd;
pos = (1230,-407);
},
{
name = tonos;
pos = (-8,1454);
},
{
name = top;
pos = (560,1612);
},
{
name = top0315;
pos = (1230,1612);
},
{
name = top_dd;
pos = (1230,1600);
}
);
guides = (
{
pos = (0,901);
},
{
pos = (0,555);
}
);
layerId = "445B0B85-2678-4800-8A4D-B1A9856CF63B";
shapes = (
{
closed = 1;
nodes = (
(655,615,l),
(966,615,o),
(1125,774,o),
(1125,1031,c),
(1125,1287,o),
(965,1456,o),
(655,1456,c),
(200,1456,l),
(200,0,l),
(254,0,l),
(254,1402,l),
(655,1402,l),
(949,1402,o),
(1071,1235,o),
(1071,1029,c),
(1071,831,o),
(949,669,o),
(655,669,c),
(213,669,l),
(213,615,l)
);
}
);
width = 1230;
},
{
anchors = (
{
name = bottom;
pos = (530,10);
},
{
name = bottom_dd;
pos = (1342,-407);
},
{
name = tonos;
pos = (-64,1454);
},
{
name = top;
pos = (596,1612);
},
{
name = top0315;
pos = (1342,1612);
},
{
name = top_dd;
pos = (1342,1600);
}
);
layerId = "20EE6398-45C7-446F-8F4E-C33CF1AD7937";
shapes = (
{
closed = 1;
nodes = (
(694,474,l),
(1047,474,o),
(1267,666,o),
(1267,950,c),
(1267,1241,o),
(1047,1456,o),
(694,1456,c),
(103,1456,l),
(103,0,l),
(479,0,l),
(479,1153,l),
(694,1153,l),
(829,1153,o),
(886,1056,o),
(886,948,c),
(886,848,o),
(829,777,o),
(694,777,c),
(339,777,l),
(339,474,l)
);
}
);
width = 1342.15;
},
{
anchors = (
{
name = bottom;
pos = (530,10);
},
{
name = bottom_dd;
pos = (1293,-407);
},
{
name = tonos;
pos = (22,1454);
},
{
name = top;
pos = (606,1612);
},
{
name = top0315;
pos = (1293,1612);
},
{
name = top_dd;
pos = (1293,1600);
}
);
layerId = "275CACE8-FD52-4067-B7BC-43A450B7EDC9";
shapes = (
{
closed = 1;
nodes = (
(707,571,l),
(1037,571,o),
(1218,731,o),
(1218,1012,c),
(1218,1271,o),
(1037,1456,o),
(707,1456,c),
(169,1456,l),
(169,0,l),
(363,0,l),
(363,1299,l),
(707,1299,l),
(932,1299,o),
(1024,1160,o),
(1024,1010,c),
(1024,845,o),
(932,727,o),
(707,727,c),
(319,727,l),
(319,571,l)
);
}
);
width = 1292.79;
}
);
unicode = 80;
},
{
glyphname = Thorn;
lastChange = "2023-09-21 14:36:57 +0000";
layers = (
{
guides = (
{
pos = (0,901);
},
{
pos = (0,555);
}
);
layerId = "445B0B85-2678-4800-8A4D-B1A9856CF63B";
shapes = (
{
closed = 1;
nodes = (
(200,1456,l),
(200,0,l),
(254,0,l),
(254,1456,l)
);
},
{
closed = 1;
nodes = (
(218,1143,l),
(232,1089,l),
(625,1089,ls),
(906,1089,o),
(1021,909,o),
(1021,736,cs),
(1021,571,o),
(906,388,o),
(625,388,cs),
(213,388,l),
(213,334,l),
(625,334,ls),
(916,334,o),
(1075,505,o),
(1075,738,cs),
(1075,970,o),
(916,1143,o),
(625,1143,cs)
);
}
);
width = 1219;
},
{
layerId = "20EE6398-45C7-446F-8F4E-C33CF1AD7937";
shapes = (
{
closed = 1;
nodes = (
(110,1456,l),
(110,0,l),
(472,0,l),
(472,1456,l)
);
},
{
closed = 1;
nodes = (
(218,1207,l),
(473,917,l),
(656,917,ls),
(806,917,o),
(864,832,o),
(864,736,cs),
(864,641,o),
(806,559,o),
(656,559,cs),
(431,559,l),
(431,269,l),
(656,269,ls),
(1025,269,o),
(1226,464,o),
(1226,738,cs),
(1226,1013,o),
(1025,1207,o),
(656,1207,cs)
);
}
);
width = 1270.725;
},
{
layerId = "275CACE8-FD52-4067-B7BC-43A450B7EDC9";
shapes = (
{
closed = 1;
nodes = (
(166,1456,l),
(166,0,l),
(353,0,l),
(353,1456,l)
);
},
{
closed = 1;
nodes = (
(261,1163,l),
(351,1013,l),
(630,1013,ls),
(844,1013,o),
(931,876,o),
(931,736,cs),
(931,600,o),
(844,464,o),
(630,464,cs),
(312,464,l),
(312,314,l),
(630,314,ls),
(945,314,o),
(1118,494,o),
(1118,738,cs),
(1118,983,o),
(945,1163,o),
(630,1163,cs)
);
}
);
width = 1209.9;
}
);
unicode = 222;
},
{
glyphname = Q;
lastChange = "2023-09-21 14:36:57 +0000";
layers = (
{
anchors = (
{
name = bottom;
pos = (698,-10);
},
{
name = bottom_dd;
pos = (1364,-407);
},
{
name = top;
pos = (700,1600);
},
{
name = top0315;
pos = (1364,1600);
},
{
name = top_dd;
pos = (1364,1600);
}
);
guides = (
{
pos = (0,901);
},
{
pos = (0,555);
}
);
layerId = "445B0B85-2678-4800-8A4D-B1A9856CF63B";
shapes = (
{
closed = 1;
nodes = (
(894,63,l),
(853,25,l),
(1152,-263,l),
(1191,-228,l)
);
},
{
closed = 1;
nodes = (
(1231,837,l),
(1231,1217,o),
(1016,1476,o),
(681,1476,cs),
(347,1476,o),
(133,1217,o),
(133,837,c),
(133,619,l),
(133,239,o),
(349,-20,o),
(683,-20,cs),
(1018,-20,o),
(1231,239,o),
(1231,619,c)
);
},
{
closed = 1;
nodes = (
(1177,619,l),
(1177,276,o),
(997,34,o),
(683,34,cs),
(371,34,o),
(188,276,o),
(188,619,cs),
(188,839,ls),
(188,1180,o),
(369,1422,o),
(681,1422,cs),
(995,1422,o),
(1177,1180,o),
(1177,839,c)
);
}
);
width = 1364;
},
{
anchors = (
{
name = bottom;
pos = (698,-10);
},
{
name = bottom_dd;
pos = (1418,-407);
},
{
name = top;
pos = (700,1600);
},
{
name = top0315;
pos = (1418,1600);
},
{
name = top_dd;
pos = (1418,1600);
}
);
layerId = "20EE6398-45C7-446F-8F4E-C33CF1AD7937";
shapes = (
{
closed = 1;
nodes = (
(925,263,l),
(700,60,l),
(1107,-269,l),
(1339,-66,l)
);
},
{
closed = 1;
nodes = (
(1355,749,l),
(1355,1200,o),
(1085,1476,o),
(711,1476,cs),
(332,1476,o),
(67,1200,o),
(67,749,c),
(67,706,l),
(67,255,o),
(334,-20,o),
(713,-20,cs),
(1087,-20,o),
(1355,255,o),
(1355,706,c)
);
},
{
closed = 1;
nodes = (
(974,706,l),
(974,435,o),
(880,286,o),
(713,286,cs),
(536,286,o),
(448,435,o),
(448,706,cs),
(448,751,ls),
(448,1027,o),
(534,1169,o),
(711,1169,cs),
(878,1169,o),
(974,1027,o),
(974,751,c)
);
}
);
width = 1417.75;
},
{
anchors = (
{
name = bottom;
pos = (698,-10);
},
{
name = bottom_dd;
pos = (1410,-407);
},
{
name = top;
pos = (700,1600);
},
{
name = top0315;
pos = (1410,1600);
},
{
name = top_dd;
pos = (1410,1600);
}
);
layerId = "275CACE8-FD52-4067-B7BC-43A450B7EDC9";
shapes = (
{
closed = 1;
nodes = (
(916,166,l),
(791,43,l),
(1156,-247,l),
(1287,-127,l)
);
},
{
closed = 1;
nodes = (
(1282,774,l),
(1282,1210,o),
(1051,1476,o),
(695,1476,cs),
(350,1476,o),
(109,1210,o),
(109,774,c),
(109,681,l),
(109,245,o),
(352,-20,o),
(697,-20,cs),
(1053,-20,o),
(1282,245,o),
(1282,681,c)
);
},
{
closed = 1;
nodes = (
(1089,681,l),
(1089,332,o),
(947,142,o),
(697,142,cs),
(460,142,o),
(303,332,o),
(303,681,cs),
(303,776,ls),
(303,1123,o),
(458,1313,o),
(695,1313,cs),
(944,1313,o),
(1089,1123,o),
(1089,776,c)
);
}
);
width = 1409.5;
}
);
unicode = 81;
},
{
glyphname = R;
lastChange = "2023-09-21 14:36:57 +0000";
layers = (
{
anchors = (
{
name = bottom;
pos = (606,10);
},
{
name = bottom_dd;
pos = (1340,-407);
},
{
name = top;
pos = (606,1612);
},
{
name = top0315;
pos = (1340,1612);
},
{
name = top_dd;
pos = (1340,1600);
}
);
layerId = "445B0B85-2678-4800-8A4D-B1A9856CF63B";
shapes = (
{
closed = 1;
nodes = (
(195,1456,l),
(195,0,l),
(249,0,l),
(249,1402,l),
(659,1402,ls),
(917,1402,o),
(1083,1265,o),
(1083,1036,cs),
(1083,855,o),
(957,677,o),
(708,677,cs),
(206,677,l),
(208,623,l),
(765,623,l),
(796,635,l),
(985,663,o),
(1137,824,o),
(1137,1036,cs),
(1137,1307,o),
(937,1456,o),
(659,1456,cs)
);
},
{
closed = 1;
nodes = (
(1141,0,l),
(1198,0,l),
(1198,14,l),
(805,644,l),
(742,642,l)
);
}
);
width = 1340;
},
{
anchors = (
{
name = bottom;
pos = (614,10);
},
{
name = bottom_dd;
pos = (1337,-407);
},
{
name = top;
pos = (591,1599);
},
{
name = top0315;
pos = (1337,1599);
},
{
name = top_dd;
pos = (1337,1600);
}
);
layerId = "20EE6398-45C7-446F-8F4E-C33CF1AD7937";
shapes = (
{
closed = 1;
nodes = (
(104,1456,l),
(104,0,l),
(479,0,l),
(479,1153,l),
(686,1153,ls),
(806,1153,o),
(868,1087,o),
(868,975,cs),
(868,859,o),
(806,798,o),
(682,798,cs),
(337,798,l),
(339,495,l),
(814,495,l),
(937,570,l),
(1120,645,o),
(1243,754,o),
(1243,1014,cs),
(1243,1303,o),
(1027,1456,o),
(686,1456,cs)
);
},
{
closed = 1;
nodes = (
(889,0,l),
(1291,0,l),
(1291,16,l),
(971,644,l),
(573,641,l)
);
}
);
userData = {
com.schriftgestaltung.hints = (
{
horizontal = 1;
options = 0;
place = (
-2147483648,
0
);
stem = -2;
type = Tag;
}
);
};
width = 1337.125;
},
{
anchors = (
{
name = bottom;
pos = (611,10);
},
{
name = bottom_dd;
pos = (1261,-407);
},
{
name = top;
pos = (610,1601);
},
{
name = top0315;
pos = (1261,1601);
},
{
name = top_dd;
pos = (1261,1600);
}
);
layerId = "275CACE8-FD52-4067-B7BC-43A450B7EDC9";
shapes = (
{
closed = 1;
nodes = (
(169,1456,l),
(169,0,l),
(363,0,l),
(363,1299,l),
(651,1299,ls),
(872,1299,o),
(967,1188,o),
(967,1019,cs),
(967,868,o),
(863,746,o),
(656,746,cs),
(316,746,l),
(318,590,l),
(770,590,l),
(824,611,l),
(1034,666,o),
(1162,819,o),
(1162,1019,cs),
(1162,1303,o),
(979,1456,o),
(651,1456,cs)
);
},
{
closed = 1;
nodes = (
(1018,0,l),
(1226,0,l),
(1226,12,l),
(868,660,l),
(665,660,l)
);
}
);
userData = {
com.schriftgestaltung.hints = (
{
horizontal = 1;
options = 0;
place = (
0,
0
);
stem = -2;
type = Tag;
}
);
};
width = 1260.83;
}
);
unicode = 82;
},
{
glyphname = S;
lastChange = "2023-09-21 14:36:57 +0000";
layers = (
{
anchors = (
{
name = bottom;
pos = (632,-10);
},
{
name = bottom_dd;
pos = (1211,-407);
},
{
name = top;
pos = (632,1633);
},
{
name = top0315;
pos = (1211,1633);
},
{
name = top_dd;
pos = (1211,1600);
}
);
guides = (
{
pos = (0,1658);
},
{
pos = (0,555);
}
);
layerId = "445B0B85-2678-4800-8A4D-B1A9856CF63B";
shapes = (
{
closed = 1;
nodes = (
(1072,349,c),
(1072,162,o),
(889,34,o),
(633,34,cs),
(423,34,o),
(150,120,o),
(150,411,c),
(96,411,l),
(96,85,o),
(384,-20,o),
(633,-20,cs),
(905,-20,o),
(1127,113,o),
(1127,351,c),
(1127,596,o),
(925,695,o),
(638,770,c),
(290,860,o),
(197,967,o),
(197,1122,c),
(197,1280,o),
(351,1422,o),
(626,1422,cs),
(885,1422,o),
(1057,1261,o),
(1057,1046,c),
(1111,1046,l),
(1111,1303,o),
(909,1476,o),
(626,1476,cs),
(351,1476,o),
(143,1342,o),
(143,1120,c),
(143,886,o),
(326,799,o),
(623,718,cs),
(953,628,o),
(1072,533,o)
);
}
);
width = 1211;
},
{
anchors = (
{
name = bottom;
pos = (664,1);
},
{
name = bottom_dd;
pos = (1289,-407);
},
{
name = top;
pos = (666,1598);
},
{
name = top0315;
pos = (1289,1598);
},
{
name = top_dd;
pos = (1289,1600);
}
);
layerId = "20EE6398-45C7-446F-8F4E-C33CF1AD7937";
shapes = (
{
closed = 1;
nodes = (
(844,392,cs),
(844,332,o),
(800,274,o),
(677,274,cs),
(516,274,o),
(438,325,o),
(438,484,c),
(62,484,l),
(62,129,o),
(374,-20,o),
(677,-20,cs),
(1007,-20,o),
(1219,127,o),
(1219,394,c),
(1219,643,o),
(1043,785,o),
(732,885,c),
(581,935,o),
(479,980,o),
(479,1057,c),
(479,1124,o),
(541,1180,o),
(664,1180,cs),
(789,1180,o),
(847,1115,o),
(847,1021,c),
(1221,1021,l),
(1221,1305,o),
(993,1476,o),
(672,1476,cs),
(346,1476,o),
(105,1317,o),
(105,1062,c),
(105,792,o),
(351,670,o),
(603,585,c),
(812,514,o),
(844,470,o)
);
}
);
userData = {
com.schriftgestaltung.hints = (
{
horizontal = 1;
options = 0;
place = (
-2147483648,
0
);
stem = -2;
type = Tag;
}
);
};
width = 1288.65;
},
{
anchors = (
{
name = bottom;
pos = (628,-1);
},
{
name = bottom_dd;
pos = (1216,-407);
},
{
name = top;
pos = (622,1603);
},
{
name = top0315;
pos = (1216,1603);
},
{
name = top_dd;
pos = (1216,1600);
}
);
layerId = "275CACE8-FD52-4067-B7BC-43A450B7EDC9";
shapes = (
{
closed = 1;
nodes = (
(944,368,cs),
(944,226,o),
(832,136,o),
(631,136,cs),
(444,136,o),
(275,222,o),
(275,422,c),
(81,422,l),
(81,131,o),
(362,-20,o),
(631,-20,cs),
(939,-20,o),
(1139,133,o),
(1139,370,c),
(1139,596,o),
(991,724,o),
(661,817,c),
(422,884,o),
(322,960,o),
(322,1083,c),
(322,1218,o),
(417,1319,o),
(621,1319,cs),
(839,1319,o),
(941,1200,o),
(941,1036,c),
(1136,1036,l),
(1136,1264,o),
(951,1476,o),
(621,1476,cs),
(323,1476,o),
(127,1307,o),
(127,1080,c),
(127,854,o),
(311,734,o),
(598,651,c),
(873,571,o),
(944,505,o)
);
}
);
userData = {
com.schriftgestaltung.hints = (
{
horizontal = 1;
options = 0;
place = (
0,
0
);
stem = -2;
type = Tag;
}
);
};
width = 1215.55;
}
);
unicode = 83;
},
{
glyphname = Germandbls;
lastChange = "2023-09-21 14:36:57 +0000";
layers = (
{
layerId = "445B0B85-2678-4800-8A4D-B1A9856CF63B";
shapes = (
{
closed = 1;
nodes = (
(253,998,l),
(200,998,l),
(200,0,l),
(253,0,l)
);
},
{
closed = 1;
nodes = (
(253,996,l),
(253,1300,o),
(359,1422,o),
(613,1422,cs),
(765,1422,o),
(897,1349,o),
(979,1236,c),
(579,833,l),
(579,779,l),
(610,779,l),
(1061,1234,l),
(950,1381,o),
(811,1476,o),
(613,1476,cs),
(286,1476,o),
(200,1283,o),
(200,996,c)
);
},
{
closed = 1;
nodes = (
(482,29,l),
(576,-6,o),
(657,-20,o),
(750,-20,cs),
(1038,-20,o),
(1206,135,o),
(1206,408,cs),
(1206,657,o),
(1056,829,o),
(730,829,cs),
(579,829,l),
(579,775,l),
(730,775,ls),
(1039,775,o),
(1152,621,o),
(1152,408,cs),
(1152,152,o),
(991,34,o),
(750,34,cs),
(654,34,o),
(569,61,o),
(514,87,c)
);
}
);
width = 1325;
},
{
layerId = "20EE6398-45C7-446F-8F4E-C33CF1AD7937";
shapes = (
{
closed = 1;
nodes = (
(421,955,l),
(59,955,l),
(59,0,l),
(421,0,l)
);
},
{
closed = 1;
nodes = (
(421,953,l),
(421,1148,o),
(514,1187,o),
(604,1187,cs),
(707,1187,o),
(785,1153,o),
(855,1104,c),
(616,843,l),
(616,713,l),
(869,713,l),
(1308,1213,l),
(1075,1382,o),
(865,1477,o),
(604,1477,cs),
(242,1477,o),
(59,1300,o),
(59,953,c)
);
},
{
closed = 1;
nodes = (
(483,44,l),
(562,10,o),
(674,-21,o),
(847,-21,cs),
(1116,-21,o),
(1351,123,o),
(1351,426,cs),
(1351,715,o),
(1150,864,o),
(808,864,cs),
(616,838,l),
(616,634,l),
(743,634,ls),
(902,634,o),
(991,591,o),
(991,427,cs),
(991,327,o),
(919,269,o),
(793,269,cs),
(704,269,o),
(622,299,o),
(585,314,c)
);
}
);
width = 1434.325;
},
{
layerId = "275CACE8-FD52-4067-B7BC-43A450B7EDC9";
shapes = (
{
closed = 1;
nodes = (
(329,962,l),
(143,962,l),
(143,0,l),
(329,0,l)
);
},
{
closed = 1;
nodes = (
(329,960,l),
(329,1158,o),
(374,1326,o),
(593,1326,cs),
(728,1326,o),
(811,1276,o),
(875,1224,c),
(568,851,l),
(568,733,l),
(671,733,l),
(1096,1252,l),
(966,1376,o),
(810,1476,o),
(593,1476,cs),
(288,1476,o),
(143,1301,o),
(143,960,c)
);
},
{
closed = 1;
nodes = (
(458,29,l),
(552,-6,o),
(646,-21,o),
(739,-21,cs),
(1027,-21,o),
(1231,135,o),
(1231,408,cs),
(1231,689,o),
(1045,847,o),
(719,847,cs),
(568,847,l),
(568,701,l),
(715,701,ls),
(933,701,o),
(1045,610,o),
(1045,404,cs),
(1045,243,o),
(932,130,o),
(739,130,cs),
(643,130,o),
(567,155,o),
(512,181,c)
);
}
);
width = 1323.18;
}
);
unicode = 7838;
},
{
glyphname = T;
lastChange = "2023-09-21 14:36:57 +0000";
layers = (
{
anchors = (
{
name = bottom;
pos = (612,0);
},
{
name = bottom_dd;
pos = (1224,-407);
},
{
name = cross;
pos = (600,872);
},
{
name = right;
pos = (639,0);
},
{
name = top;
pos = (609,1604);
},
{
name = top0315;
pos = (1224,1604);
},
{
name = top_dd;
pos = (1224,1600);
}
);
layerId = "445B0B85-2678-4800-8A4D-B1A9856CF63B";
shapes = (
{
closed = 1;
nodes = (
(639,1456,l),
(585,1456,l),
(585,0,l),
(639,0,l)
);
},
{
closed = 1;
nodes = (
(1169,1456,l),
(55,1456,l),
(55,1402,l),
(1169,1402,l)
);
}
);
width = 1224;
},
{
anchors = (
{
name = bottom;
pos = (639,12);
},
{
name = bottom_dd;
pos = (1298,-407);
},
{
name = cross;
pos = (605,797);
},
{
name = right;
pos = (781,0);
},
{
name = top;
pos = (639,1600);
},
{
name = top0315;
pos = (1298,1600);
},
{
name = top_dd;
pos = (1298,1600);
}
);
layerId = "20EE6398-45C7-446F-8F4E-C33CF1AD7937";
shapes = (
{
closed = 1;
nodes = (
(831,1456,l),
(456,1456,l),
(456,0,l),
(831,0,l)
);
},
{
closed = 1;
nodes = (
(1261,1456,l),
(35,1456,l),
(35,1153,l),
(1261,1153,l)
);
}
);
width = 1297.8;
},
{
anchors = (
{
name = bottom;
pos = (614,0);
},
{
name = bottom_dd;
pos = (1222,-407);
},
{
name = cross;
pos = (617,895);
},
{
name = right;
pos = (704,0);
},
{
name = top;
pos = (612,1600);
},
{
name = top0315;
pos = (1222,1600);
},
{
name = top_dd;
pos = (1222,1600);
}
);
layerId = "275CACE8-FD52-4067-B7BC-43A450B7EDC9";
shapes = (
{
closed = 1;
nodes = (
(708,1456,l),
(516,1456,l),
(516,0,l),
(708,0,l)
);
},
{
closed = 1;
nodes = (
(1175,1456,l),
(50,1456,l),
(50,1299,l),
(1175,1299,l)
);
}
);
width = 1222.18;
}
);
unicode = 84;
},
{
glyphname = U;
lastChange = "2023-09-21 14:36:57 +0000";
layers = (
{
anchors = (
{
name = bottom;
pos = (683,0);
},
{
name = bottom_dd;
pos = (1365,-407);
},
{
name = ogonek;
pos = (936,33);
},
{
name = right;
pos = (799,0);
},
{
name = top;
pos = (697,1612);
},
{
name = top0315;
pos = (1365,1612);
},
{
name = top_dd;
pos = (1365,1600);
}
);
guides = (
{
pos = (0,901);
},
{
pos = (0,555);
}
);
layerId = "445B0B85-2678-4800-8A4D-B1A9856CF63B";
shapes = (
{
closed = 1;
nodes = (
(1126,1456,l),
(1126,469,ls),
(1126,188,o),
(935,34,o),
(683,34,cs),
(431,34,o),
(239,188,o),
(239,469,cs),
(239,1456,l),
(185,1456,l),
(185,469,l),
(185,142,o),
(399,-20,o),
(683,-20,cs),
(967,-20,o),
(1180,142,o),
(1180,469,c),
(1180,1456,l)
);
}
);
width = 1365;
},
{
anchors = (
{
name = bottom;
pos = (674,0);
},
{
name = bottom_dd;
pos = (1361,-407);
},
{
name = ogonek;
pos = (1061,84);
},
{
name = right;
pos = (838,0);
},
{
name = top;
pos = (673,1599);
},
{
name = top0315;
pos = (1361,1599);
},
{
name = top_dd;
pos = (1361,1600);
}
);
layerId = "20EE6398-45C7-446F-8F4E-C33CF1AD7937";
shapes = (
{
closed = 1;
nodes = (
(883,1456,l),
(883,513,ls),
(883,347,o),
(816,282,o),
(681,282,cs),
(546,282,o),
(476,347,o),
(476,513,cs),
(476,1456,l),
(99,1456,l),
(99,513,l),
(99,169,o),
(334,-20,o),
(681,-20,cs),
(1031,-20,o),
(1258,169,o),
(1258,513,c),
(1258,1456,l)
);
}
);
width = 1361.35;
},
{
anchors = (
{
name = bottom;
pos = (666,0);
},
{
name = bottom_dd;
pos = (1328,-407);
},
{
name = ogonek;
pos = (941,44);
},
{
name = right;
pos = (834,0);
},
{
name = top;
pos = (667,1601);
},
{
name = top0315;
pos = (1328,1601);
},
{
name = top_dd;
pos = (1328,1600);
}
);
layerId = "275CACE8-FD52-4067-B7BC-43A450B7EDC9";
shapes = (
{
closed = 1;
nodes = (
(1000,1456,l),
(1000,471,ls),
(1000,243,o),
(867,136,o),
(666,136,cs),
(466,136,o),
(332,243,o),
(332,471,cs),
(332,1456,l),
(140,1456,l),
(140,471,l),
(140,143,o),
(369,-20,o),
(666,-20,cs),
(948,-20,o),
(1195,143,o),
(1195,471,c),
(1195,1456,l)
);
}
);
width = 1327.69;
}
);
unicode = 85;
},
{
glyphname = V;
lastChange = "2023-09-21 14:36:57 +0000";
layers = (
{
anchors = (
{
name = bottom;
pos = (614,10);
},
{
name = bottom_dd;
pos = (1223,-407);
},
{
name = top;
pos = (611,1612);
},
{
name = top0315;
pos = (1223,1612);
},
{
name = top_dd;
pos = (1223,1600);
}
);
guides = (
{
pos = (0,901);
},
{
pos = (0,555);
}
);
layerId = "445B0B85-2678-4800-8A4D-B1A9856CF63B";
shapes = (
{
closed = 1;
nodes = (
(641,142,l),
(594,0,l),
(645,0,l),
(1189,1456,l),
(1130,1456,l)
);
},
{
closed = 1;
nodes = (
(94,1456,l),
(35,1456,l),
(579,0,l),
(630,0,l),
(583,142,l)
);
}
);
width = 1223;
},
{
anchors = (
{
name = bottom;
pos = (679,10);
},
{
name = bottom_dd;
pos = (1364,-407);
},
{
name = top;
pos = (680,1612);
},
{
name = top0315;
pos = (1364,1612);
},
{
name = top_dd;
pos = (1364,1600);
}
);
layerId = "20EE6398-45C7-446F-8F4E-C33CF1AD7937";
shapes = (
{
closed = 1;
nodes = (
(663,375,l),
(615,0,l),
(886,0,l),
(1372,1456,l),
(952,1456,l)
);
},
{
closed = 1;
nodes = (
(411,1456,l),
(-7,1456,l),
(476,0,l),
(749,0,l),
(698,375,l)
);
}
);
width = 1363.85;
},
{
anchors = (
{
name = bottom;
pos = (656,10);
},
{
name = bottom_dd;
pos = (1305,-407);
},
{
name = top;
pos = (656,1612);
},
{
name = top0315;
pos = (1305,1612);
},
{
name = top_dd;
pos = (1305,1600);
}
);
layerId = "275CACE8-FD52-4067-B7BC-43A450B7EDC9";
shapes = (
{
closed = 1;
nodes = (
(639,220,l),
(589,0,l),
(739,0,l),
(1278,1456,l),
(1067,1456,l)
);
},
{
closed = 1;
nodes = (
(240,1456,l),
(29,1456,l),
(567,0,l),
(717,0,l),
(664,220,l)
);
}
);
width = 1304.9;
}
);
unicode = 86;
},
{
glyphname = W;
lastChange = "2023-09-21 14:36:57 +0000";
layers = (
{
anchors = (
{
name = bottom;
pos = (926,10);
},
{
name = bottom_dd;
pos = (1855,-407);
},
{
name = top;
pos = (926,1612);
},
{
name = top0315;
pos = (1855,1612);
},
{
name = top_dd;
pos = (1855,1600);
}
);
guides = (
{
pos = (0,901);
},
{
pos = (0,555);
}
);
layerId = "445B0B85-2678-4800-8A4D-B1A9856CF63B";
shapes = (
{
closed = 1;
nodes = (
(555,330,l),
(464,0,l),
(515,0,l),
(879,1214,l),
(957,1456,l),
(899,1456,l)
);
},
{
closed = 1;
nodes = (
(121,1456,l),
(61,1456,l),
(454,0,l),
(514,0,l),
(423,330,l)
);
},
{
closed = 1;
nodes = (
(1434,330,l),
(1341,0,l),
(1401,0,l),
(1793,1456,l),
(1734,1456,l)
);
},
{
closed = 1;
nodes = (
(959,1456,l),
(900,1456,l),
(979,1214,l),
(1340,0,l),
(1391,0,l),
(1301,330,l)
);
}
);
width = 1855;
},
{
anchors = (
{
name = bottom;
pos = (884,10);
},
{
name = bottom_dd;
pos = (1774,-407);
},
{
name = top;
pos = (890,1599);
},
{
name = top0315;
pos = (1774,1599);
},
{
name = top_dd;
pos = (1774,1600);
}
);
layerId = "20EE6398-45C7-446F-8F4E-C33CF1AD7937";
shapes = (
{
closed = 1;
nodes = (
(438,69,l),
(508,0,l),
(710,0,l),
(1015,1397,l),
(905,1456,l),
(724,1456,l)
);
},
{
closed = 1;
nodes = (
(391,1456,l),
(18,1456,l),
(321,0,l),
(554,0,l),
(631,54,l)
);
},
{
closed = 1;
nodes = (
(1140,62,l),
(1215,0,l),
(1448,0,l),
(1750,1456,l),
(1379,1456,l)
);
},
{
closed = 1;
nodes = (
(1041,1456,l),
(861,1456,l),
(747,1399,l),
(1059,0,l),
(1261,0,l),
(1335,60,l)
);
}
);
width = 1774.325;
},
{
anchors = (
{
name = bottom;
pos = (922,10);
},
{
name = bottom_dd;
pos = (1817,-407);
},
{
name = top;
pos = (924,1601);
},
{
name = top0315;
pos = (1817,1601);
},
{
name = top_dd;
pos = (1817,1600);
}
);
layerId = "275CACE8-FD52-4067-B7BC-43A450B7EDC9";
shapes = (
{
closed = 1;
nodes = (
(552,439,l),
(449,0,l),
(590,0,l),
(900,1063,l),
(982,1456,l),
(840,1456,l)
);
},
{
closed = 1;
nodes = (
(255,1456,l),
(61,1456,l),
(413,0,l),
(552,0,l),
(484,458,l)
);
},
{
closed = 1;
nodes = (
(1354,459,l),
(1282,0,l),
(1421,0,l),
(1773,1456,l),
(1578,1456,l)
);
},
{
closed = 1;
nodes = (
(1003,1456,l),
(864,1456,l),
(945,1063,l),
(1244,0,l),
(1385,0,l),
(1283,439,l)
);
}
);
width = 1816.78;
}
);
unicode = 87;
},
{
glyphname = X;
lastChange = "2023-09-21 14:36:57 +0000";
layers = (
{
anchors = (
{
name = bottom;
pos = (655,10);
},
{
name = bottom_dd;
pos = (1223,-407);
},
{
name = cross;
pos = (612,748);
},
{
name = right;
pos = (1120,0);
},
{
name = top;
pos = (663,1612);
},
{
name = top0315;
pos = (1223,1612);
},
{
name = top_dd;
pos = (1223,1600);
}
);
guides = (
{
pos = (0,901);
},
{
pos = (0,555);
},
{
angle = 90;
pos = (709,0);
}
);
layerId = "445B0B85-2678-4800-8A4D-B1A9856CF63B";
shapes = (
{
closed = 1;
nodes = (
(141,1456,l),
(73,1456,l),
(577,743,l),
(54,0,l),
(119,0,l),
(611,701,l),
(1101,0,l),
(1168,0,l),
(645,743,l),
(1149,1456,l),
(1081,1456,l),
(611,785,l)
);
}
);
width = 1223;
},
{
anchors = (
{
name = bottom;
pos = (655,21);
},
{
name = bottom_dd;
pos = (1314,-407);
},
{
name = cross;
pos = (653,742);
},
{
name = right;
pos = (1141,0);
},
{
name = top;
pos = (634,1612);
},
{
name = top0315;
pos = (1314,1612);
},
{
name = top_dd;
pos = (1314,1600);
}
);
layerId = "20EE6398-45C7-446F-8F4E-C33CF1AD7937";
shapes = (
{
closed = 1;
nodes = (
(438,1456,l),
(10,1456,l),
(409,733,l),
(0,0,l),
(432,0,l),
(657,468,l),
(882,0,l),
(1314,0,l),
(905,733,l),
(1304,1456,l),
(876,1456,l),
(657,996,l)
);
}
);
width = 1314.475;
},
{
anchors = (
{
name = bottom;
pos = (645,10);
},
{
name = bottom_dd;
pos = (1285,-407);
},
{
name = cross;
pos = (644,743);
},
{
name = right;
pos = (1109.99,0);
},
{
name = top;
pos = (652.99,1612);
},
{
name = top0315;
pos = (1285,1612);
},
{
name = top_dd;
pos = (1285,1600);
}
);
layerId = "275CACE8-FD52-4067-B7BC-43A450B7EDC9";
shapes = (
{
closed = 1;
nodes = (
(296,1456,l),
(68,1456,l),
(529,735,l),
(58,0,l),
(286,0,l),
(645,570,l),
(1002,0,l),
(1231,0,l),
(761,735,l),
(1220,1456,l),
(993,1456,l),
(645,897,l)
);
}
);
width = 1284.88;
}
);
unicode = 88;
},
{
glyphname = Y;
lastChange = "2023-09-21 14:36:57 +0000";
layers = (
{
anchors = (
{
name = bottom;
pos = (612,10);
},
{
name = bottom_dd;
pos = (1223,-407);
},
{
name = cross;
pos = (609,583);
},
{
name = tonos;
pos = (-72,1454);
},
{
name = top;
pos = (608,1601);
},
{
name = top0315;
pos = (1223,1601);
},
{
name = top_dd;
pos = (1223,1600);
}
);
guides = (
{
pos = (0,901);
},
{
pos = (0,555);
}
);
layerId = "445B0B85-2678-4800-8A4D-B1A9856CF63B";
shapes = (
{
closed = 1;
nodes = (
(105,1456,l),
(33,1456,l),
(582,553,l),
(582,0,l),
(636,0,l),
(636,553,l),
(1185,1456,l),
(1119,1456,l),
(609,602,l)
);
}
);
width = 1223;
},
{
anchors = (
{
name = bottom;
pos = (643,57);
},
{
name = bottom_dd;
pos = (1292,-407);
},
{
name = cross;
pos = (651,607);
},
{
name = tonos;
pos = (-73,1454);
},
{
name = top;
pos = (647,1600);
},
{
name = top0315;
pos = (1292,1600);
},
{
name = top_dd;
pos = (1292,1600);
}
);
layerId = "20EE6398-45C7-446F-8F4E-C33CF1AD7937";
shapes = (
{
closed = 1;
nodes = (
(397,1456,l),
(-7,1456,l),
(456,518,l),
(456,0,l),
(837,0,l),
(837,518,l),
(1299,1456,l),
(895,1456,l),
(646,854,l)
);
}
);
width = 1291.625;
},
{
anchors = (
{
name = bottom;
pos = (615,1);
},
{
name = bottom_dd;
pos = (1230,-407);
},
{
name = cross;
pos = (614,593);
},
{
name = tonos;
pos = (-64,1454);
},
{
name = top;
pos = (618,1600);
},
{
name = top0315;
pos = (1230,1600);
},
{
name = top_dd;
pos = (1230,1600);
}
);
layerId = "275CACE8-FD52-4067-B7BC-43A450B7EDC9";
shapes = (
{
closed = 1;
nodes = (
(237,1456,l),
(15,1456,l),
(516,544,l),
(516,0,l),
(711,0,l),
(711,544,l),
(1212,1456,l),
(992,1456,l),
(614,724,l)
);
}
);
width = 1230.28;
}
);
unicode = 89;
},
{
glyphname = Z;
lastChange = "2023-09-21 14:36:57 +0000";
layers = (
{
anchors = (
{
name = bottom;
pos = (643,10);
},
{
name = bottom_dd;
pos = (1224,-407);
},
{
name = top;
pos = (609,1612);
},
{
name = top0315;
pos = (1224,1612);
},
{
name = top_dd;
pos = (1224,1600);
}
);
layerId = "445B0B85-2678-4800-8A4D-B1A9856CF63B";
shapes = (
{
closed = 1;
nodes = (
(1130,54,l),
(111,54,l),
(111,0,l),
(1130,0,l)
);
},
{
closed = 1;
nodes = (
(1098,1418,l),
(1098,1456,l),
(1059,1456,l),
(94,44,l),
(94,0,l),
(131,0,l)
);
},
{
closed = 1;
nodes = (
(1072,1456,l),
(134,1456,l),
(134,1403,l),
(1072,1403,l)
);
}
);
width = 1224;
},
{
anchors = (
{
name = bottom;
pos = (637,10);
},
{
name = bottom_dd;
pos = (1252,-407);
},
{
name = top;
pos = (638,1599);
},
{
name = top0315;
pos = (1252,1599);
},
{
name = top_dd;
pos = (1252,1600);
}
);
layerId = "20EE6398-45C7-446F-8F4E-C33CF1AD7937";
shapes = (
{
closed = 1;
nodes = (
(1207,302,l),
(149,302,l),
(149,0,l),
(1207,0,l)
);
},
{
closed = 1;
nodes = (
(1202,1261,l),
(1202,1456,l),
(941,1456,l),
(65,200,l),
(65,0,l),
(337,0,l)
);
},
{
closed = 1;
nodes = (
(1082,1456,l),
(56,1456,l),
(56,1153,l),
(1082,1153,l)
);
}
);
width = 1251.725;
},
{
anchors = (
{
name = bottom;
pos = (613,10);
},
{
name = bottom_dd;
pos = (1227,-407);
},
{
name = top;
pos = (616,1601);
},
{
name = top0315;
pos = (1227,1601);
},
{
name = top_dd;
pos = (1227,1600);
}
);
layerId = "275CACE8-FD52-4067-B7BC-43A450B7EDC9";
shapes = (
{
closed = 1;
nodes = (
(1146,156,l),
(160,156,l),
(160,0,l),
(1146,0,l)
);
},
{
closed = 1;
nodes = (
(1114,1317,l),
(1114,1456,l),
(993,1456,l),
(87,143,l),
(87,0,l),
(207,0,l)
);
},
{
closed = 1;
nodes = (
(1032,1456,l),
(99,1456,l),
(99,1299,l),
(1032,1299,l)
);
}
);
width = 1226.73;
}
);
unicode = 90;
},
{
glyphname = K.alt;
lastChange = "2023-09-21 14:36:57 +0000";
layers = (
{
anchors = (
{
name = cross;
pos = (282,1130);
},
{
name = right;
pos = (1180,-35);
}
);
layerId = "445B0B85-2678-4800-8A4D-B1A9856CF63B";
shapes = (
{
closed = 1;
nodes = (
(254,1456,l),
(200,1456,l),
(200,0,l),
(254,0,l)
);
},
{
closed = 1;
nodes = (
(1181,1456,l),
(1110,1456,l),
(492,764,l),
(240,764,l),
(232,711,l),
(520,711,l)
);
},
{
closed = 1;
nodes = (
(1156,0,l),
(1227,0,l),
(508,761,l),
(474,714,l)
);
}
);
width = 1300;
},
{
anchors = (
{
name = cross;
pos = (284,1209);
},
{
name = right;
pos = (1271,3);
}
);
layerId = "20EE6398-45C7-446F-8F4E-C33CF1AD7937";
shapes = (
{
closed = 1;
nodes = (
(476,1456,l),
(101,1456,l),
(101,0,l),
(476,0,l)
);
},
{
closed = 1;
nodes = (
(1309,1456,l),
(855,1456,l),
(604,914,l),
(366,914,l),
(412,555,l),
(797,555,l)
);
},
{
closed = 1;
nodes = (
(916,0,l),
(1359,0,l),
(878,883,l),
(604,625,l)
);
}
);
width = 1327.925;
},
{
anchors = (
{
name = cross;
pos = (307,1151);
},
{
name = right;
pos = (1186,-3);
}
);
layerId = "275CACE8-FD52-4067-B7BC-43A450B7EDC9";
shapes = (
{
closed = 1;
nodes = (
(372,1456,l),
(178,1456,l),
(178,0,l),
(372,0,l)
);
},
{
closed = 1;
nodes = (
(1269,1456,l),
(1028,1456,l),
(521,814,l),
(265,814,l),
(295,655,l),
(637,655,l)
);
},
{
closed = 1;
nodes = (
(1073,0,l),
(1311,0,l),
(636,848,l),
(528,680,l)
);
}
);
width = 1316.38;
}
);
},
{
glyphname = R.alt;
lastChange = "2023-09-21 14:36:57 +0000";
layers = (
{
anchors = (
{
name = bottom;
pos = (606,10);
},
{
name = top;
pos = (606,1612);
},
{
name = top0315;
pos = (1340,1612);
}
);
layerId = "445B0B85-2678-4800-8A4D-B1A9856CF63B";
shapes = (
{
closed = 1;
nodes = (
(706,683,l),
(716,703,l),
(790,703,l),
(1014,724,o),
(1137,896,o),
(1137,1065,c),
(1137,1323,o),
(964,1455,o),
(659,1455,c),
(195,1455,l),
(195,-1,l),
(249,-1,l),
(249,1401,l),
(659,1401,l),
(944,1401,o),
(1083,1281,o),
(1083,1065,c),
(1083,899,o),
(970,737,o),
(649,737,c),
(206,737,l),
(208,683,l)
);
},
{
closed = 1;
nodes = (
(692,683,l),
(946,683,o),
(1077,565,o),
(1077,369,c),
(1077,236,l),
(1077,136,o),
(1102,54,o),
(1149,-1,c),
(1202,-1,l),
(1202,24,l),
(1149,73,o),
(1131,151,o),
(1131,234,c),
(1131,371,l),
(1131,574,o),
(1036,722,o),
(704,722,c)
);
}
);
width = 1340;
},
{
anchors = (
{
name = bottom;
pos = (638,10);
},
{
name = top;
pos = (638,1612);
},
{
name = top0315;
pos = (1325,1612);
}
);
layerId = "20EE6398-45C7-446F-8F4E-C33CF1AD7937";
shapes = (
{
closed = 1;
nodes = (
(747,529,l),
(838,561,l),
(852,656,l),
(1077,721,o),
(1233,804,o),
(1233,1020,c),
(1233,1294,o),
(1052,1456,o),
(712,1456,c),
(101,1456,l),
(101,0,l),
(476,0,l),
(476,1153,l),
(684,1153,l),
(804,1153,o),
(858,1079,o),
(858,981,c),
(858,883,o),
(789,831,o),
(676,831,c),
(337,831,l),
(337,529,l)
);
},
{
closed = 1;
nodes = (
(658,529,l),
(791,529,o),
(841,465,o),
(841,335,c),
(841,261,l),
(841,226,o),
(846,47,o),
(908,0,c),
(1293,0,l),
(1293,31,l),
(1228,79,o),
(1215,225,o),
(1215,259,c),
(1215,337,l),
(1215,555,o),
(1115,708,o),
(761,718,c)
);
}
);
userData = {
com.schriftgestaltung.hints = (
{
horizontal = 1;
options = 0;
place = (
-2147483648,
0
);
stem = -2;
type = Tag;
}
);
};
width = 1325.05;
},
{
anchors = (
{
name = bottom;
pos = (620,10);
},
{
name = top;
pos = (620,1612);
},
{
name = top0315;
pos = (1356,1612);
}
);
layerId = "275CACE8-FD52-4067-B7BC-43A450B7EDC9";
shapes = (
{
closed = 1;
nodes = (
(735,629,l),
(814,648,l),
(837,676,l),
(1064,727,o),
(1195,854,o),
(1195,1041,c),
(1195,1312,o),
(1022,1456,o),
(704,1456,c),
(178,1456,l),
(178,0,l),
(372,0,l),
(372,1299,l),
(702,1299,l),
(914,1299,o),
(1001,1198,o),
(1001,1041,c),
(1001,877,o),
(914,785,o),
(684,785,c),
(324,785,l),
(326,629,l)
);
},
{
closed = 1;
nodes = (
(729,629,l),
(892,629,o),
(991,525,o),
(991,367,c),
(991,238,l),
(991,185,o),
(993,54,o),
(1053,0,c),
(1252,0,l),
(1252,25,l),
(1200,74,o),
(1185,155,o),
(1185,236,c),
(1185,369,l),
(1185,585,o),
(1084,740,o),
(751,740,c)
);
}
);
userData = {
com.schriftgestaltung.hints = (
{
horizontal = 1;
options = 0;
place = (
0,
0
);
stem = -2;
type = Tag;
}
);
};
width = 1356.38;
}
);
},
{
glyphname = K.alt2;
lastChange = "2023-09-21 14:36:57 +0000";
layers = (
{
layerId = "445B0B85-2678-4800-8A4D-B1A9856CF63B";
shapes = (
{
closed = 1;
nodes = (
(254,1456,l),
(200,1456,l),
(200,0,l),
(254,0,l)
);
},
{
closed = 1;
nodes = (
(1101,1456,l),
(1020,1456,l),
(266,747,l),
(220,747,l),
(232,711,l),
(307,711,l)
);
},
{
closed = 1;
nodes = (
(1066,0,l),
(1147,0,l),
(298,758,l),
(264,714,l)
);
}
);
width = 1300;
},
{
layerId = "20EE6398-45C7-446F-8F4E-C33CF1AD7937";
shapes = (
{
closed = 1;
nodes = (
(476,1456,l),
(101,1456,l),
(101,0,l),
(476,0,l)
);
},
{
closed = 1;
nodes = (
(1308,1456,l),
(846,1456,l),
(468,821,l),
(367,821,l),
(377,637,l),
(762,637,l)
);
},
{
closed = 1;
nodes = (
(864,0,l),
(1333,0,l),
(782,799,l),
(419,693,l)
);
}
);
width = 1320.05;
},
{
layerId = "275CACE8-FD52-4067-B7BC-43A450B7EDC9";
shapes = (
{
closed = 1;
nodes = (
(372,1456,l),
(178,1456,l),
(178,0,l),
(372,0,l)
);
},
{
closed = 1;
nodes = (
(1236,1456,l),
(994,1456,l),
(383,809,l),
(263,809,l),
(273,719,l),
(550,719,l)
);
},
{
closed = 1;
nodes = (
(1037,0,l),
(1276,0,l),
(485,844,l),
(322,744,l)
);
}
);
width = 1341.86;
}
);
},
{
glyphname = C.ss06;
lastChange = "2023-09-21 14:36:57 +0000";
layers = (
{
layerId = "445B0B85-2678-4800-8A4D-B1A9856CF63B";
shapes = (
{
closed = 1;
nodes = (
(1182,446,l),
(1142,175,o),
(987,33,o),
(717,33,cs),
(398,33,o),
(184,322,o),
(184,699,cs),
(184,759,ls),
(184,1134,o),
(398,1423,o),
(717,1423,cs),
(993,1423,o),
(1142,1266,o),
(1182,1012,c),
(1236,1012,l),
(1196,1310,o),
(1009,1477,o),
(717,1477,cs),
(361,1477,o),
(130,1161,o),
(130,757,c),
(130,699,l),
(130,295,o),
(361,-21,o),
(717,-21,cs),
(1009,-21,o),
(1198,144,o),
(1236,446,c)
);
}
);
width = 1336;
},
{
layerId = "20EE6398-45C7-446F-8F4E-C33CF1AD7937";
shapes = (
{
closed = 1;
nodes = (
(948,501,l),
(932,363,o),
(859,281,o),
(706,281,cs),
(523,281,o),
(437,430,o),
(437,708,cs),
(437,749,ls),
(437,1030,o),
(548,1174,o),
(709,1174,cs),
(888,1174,o),
(932,1096,o),
(950,943,c),
(1325,943,l),
(1296,1271,o),
(1097,1477,o),
(709,1477,cs),
(338,1477,o),
(62,1204,o),
(62,747,c),
(62,708,l),
(62,251,o),
(316,-21,o),
(706,-21,cs),
(1076,-21,o),
(1294,155,o),
(1322,501,c)
);
}
);
width = 1371.475;
},
{
layerId = "275CACE8-FD52-4067-B7BC-43A450B7EDC9";
shapes = (
{
closed = 1;
nodes = (
(1116,462,l),
(1084,258,o),
(988,135,o),
(754,135,cs),
(503,135,o),
(321,365,o),
(321,697,cs),
(321,760,ls),
(321,1091,o),
(484,1320,o),
(745,1320,cs),
(969,1320,o),
(1086,1191,o),
(1116,989,c),
(1311,989,l),
(1280,1277,o),
(1075,1477,o),
(745,1477,cs),
(381,1477,o),
(126,1189,o),
(126,758,c),
(126,697,l),
(126,266,o),
(398,-21,o),
(754,-21,cs),
(1094,-21,o),
(1279,186,o),
(1310,462,c)
);
}
);
width = 1410.62;
}
);
},
{
glyphname = D.ss06;
lastChange = "2023-09-21 14:36:57 +0000";
layers = (
{
layerId = "445B0B85-2678-4800-8A4D-B1A9856CF63B";
shapes = (
{
closed = 1;
nodes = (
(583,0,l),
(960,0,o),
(1244,284,o),
(1244,699,c),
(1244,757,l),
(1244,1172,o),
(960,1456,o),
(583,1456,c),
(242,1456,l),
(242,1402,l),
(583,1402,l),
(929,1402,o),
(1190,1135,o),
(1190,760,c),
(1190,699,ls),
(1190,321,o),
(929,54,o),
(583,54,c),
(250,54,l),
(248,0,l)
);
},
{
closed = 1;
nodes = (
(254,1456,l),
(200,1456,l),
(200,0,l),
(254,0,l)
);
}
);
width = 1374;
},
{
layerId = "20EE6398-45C7-446F-8F4E-C33CF1AD7937";
shapes = (
{
closed = 1;
nodes = (
(574,0,l),
(1027,0,o),
(1310,315,o),
(1310,706,c),
(1310,749,l),
(1310,1140,o),
(1028,1456,o),
(568,1456,c),
(254,1456,l),
(254,1153,l),
(542,1153,l),
(846,1153,o),
(935,959,o),
(935,750,c),
(935,706,ls),
(935,493,o),
(844,302,o),
(547,302,c),
(262,302,l),
(260,0,l)
);
},
{
closed = 1;
nodes = (
(476,1456,l),
(101,1456,l),
(101,0,l),
(476,0,l)
);
}
);
width = 1372.5;
},
{
layerId = "275CACE8-FD52-4067-B7BC-43A450B7EDC9";
shapes = (
{
closed = 1;
nodes = (
(595,0,l),
(1005,0,o),
(1298,273,o),
(1298,706,c),
(1298,749,l),
(1298,1182,o),
(1001,1456,o),
(612,1456,c),
(261,1456,l),
(261,1299,l),
(611,1299,l),
(906,1299,o),
(1102,1097,o),
(1102,751,c),
(1102,706,ls),
(1102,377,o),
(912,156,o),
(594,156,c),
(269,156,l),
(267,0,l)
);
},
{
closed = 1;
nodes = (
(372,1456,l),
(178,1456,l),
(178,0,l),
(372,0,l)
);
}
);
width = 1427.69;
}
);
},
{
glyphname = G.ss06;
lastChange = "2023-09-21 14:36:57 +0000";
layers = (
{
layerId = "445B0B85-2678-4800-8A4D-B1A9856CF63B";
shapes = (
{
closed = 1;
nodes = (
(1248,660,l),
(749,660,l),
(749,605,l),
(1194,605,l),
(1194,181,l),
(1151,122,o),
(998,33,o),
(771,33,cs),
(415,33,o),
(184,341,o),
(184,720,cs),
(184,760,ls),
(184,1124,o),
(393,1422,o),
(714,1422,cs),
(1030,1422,o),
(1161,1252,o),
(1192,1062,c),
(1246,1062,l),
(1218,1295,o),
(1041,1476,o),
(714,1476,cs),
(369,1476,o),
(130,1161,o),
(130,758,cs),
(130,720,ls),
(130,304,o),
(391,-21,o),
(771,-21,cs),
(1044,-21,o),
(1203,90,o),
(1248,156,c)
);
}
);
width = 1428;
},
{
layerId = "20EE6398-45C7-446F-8F4E-C33CF1AD7937";
shapes = (
{
closed = 1;
nodes = (
(1324,773,l),
(748,773,l),
(748,506,l),
(948,506,l),
(948,314,l),
(924,293,o),
(864,281,o),
(774,281,cs),
(558,281,o),
(437,453,o),
(437,688,cs),
(437,754,ls),
(437,1012,o),
(552,1174,o),
(733,1174,cs),
(858,1174,o),
(945,1107,o),
(962,968,c),
(1323,968,l),
(1296,1268,o),
(1103,1477,o),
(720,1477,cs),
(334,1477,o),
(62,1185,o),
(62,752,cs),
(62,688,ls),
(62,274,o),
(357,-21,o),
(774,-21,cs),
(1065,-21,o),
(1251,95,o),
(1324,178,c)
);
}
);
width = 1407.575;
},
{
layerId = "275CACE8-FD52-4067-B7BC-43A450B7EDC9";
shapes = (
{
closed = 1;
nodes = (
(1312,723,l),
(784,723,l),
(784,569,l),
(1118,569,l),
(1118,242,l),
(1082,198,o),
(977,135,o),
(783,135,cs),
(520,135,o),
(321,355,o),
(321,715,cs),
(321,744,ls),
(321,1093,o),
(497,1320,o),
(747,1320,cs),
(994,1320,o),
(1086,1187,o),
(1117,1030,c),
(1312,1030,l),
(1272,1288,o),
(1102,1477,o),
(747,1477,cs),
(389,1477,o),
(126,1199,o),
(126,742,cs),
(126,715,ls),
(126,257,o),
(413,-21,o),
(783,-21,cs),
(1097,-21,o),
(1259,112,o),
(1312,191,c)
);
}
);
width = 1455.3;
}
);
},
{
glyphname = O.ss06;
lastChange = "2023-09-21 14:36:57 +0000";
layers = (
{
layerId = "445B0B85-2678-4800-8A4D-B1A9856CF63B";
shapes = (
{
closed = 1;
nodes = (
(1288,757,l),
(1288,1173,o),
(1043,1477,o),
(708,1477,cs),
(374,1477,o),
(130,1173,o),
(130,757,c),
(130,699,l),
(130,283,o),
(376,-21,o),
(710,-21,cs),
(1045,-21,o),
(1288,283,o),
(1288,699,c)
);
},
{
closed = 1;
nodes = (
(1234,699,l),
(1234,321,o),
(1024,33,o),
(710,33,cs),
(398,33,o),
(185,321,o),
(185,699,cs),
(185,759,ls),
(185,1135,o),
(396,1423,o),
(708,1423,cs),
(1022,1423,o),
(1234,1135,o),
(1234,759,c)
);
}
);
width = 1418;
},
{
layerId = "20EE6398-45C7-446F-8F4E-C33CF1AD7937";
shapes = (
{
closed = 1;
nodes = (
(1425,748,l),
(1425,1149,o),
(1150,1477,o),
(743,1477,cs),
(332,1477,o),
(62,1149,o),
(62,748,c),
(62,708,l),
(62,306,o),
(334,-21,o),
(745,-21,cs),
(1152,-21,o),
(1425,306,o),
(1425,708,c)
);
},
{
closed = 1;
nodes = (
(1051,708,l),
(1051,483,o),
(948,279,o),
(745,279,cs),
(536,279,o),
(437,483,o),
(437,708,cs),
(437,750,ls),
(437,974,o),
(534,1176,o),
(743,1176,cs),
(946,1176,o),
(1051,974,o),
(1051,750,c)
);
}
);
width = 1488.125;
},
{
layerId = "275CACE8-FD52-4067-B7BC-43A450B7EDC9";
shapes = (
{
closed = 1;
nodes = (
(1376,750,l),
(1376,1176,o),
(1108,1477,o),
(751,1477,cs),
(404,1477,o),
(126,1176,o),
(126,750,c),
(126,706,l),
(126,279,o),
(406,-21,o),
(753,-21,cs),
(1110,-21,o),
(1376,279,o),
(1376,706,c)
);
},
{
closed = 1;
nodes = (
(1184,706,l),
(1184,368,o),
(1005,141,o),
(753,141,cs),
(514,141,o),
(319,368,o),
(319,706,cs),
(319,752,ls),
(319,1087,o),
(512,1314,o),
(751,1314,cs),
(1001,1314,o),
(1184,1087,o),
(1184,752,c)
);
}
);
width = 1505.36;
}
);
},
{
glyphname = Q.ss06;
lastChange = "2023-09-21 14:36:57 +0000";
layers = (
{
layerId = "445B0B85-2678-4800-8A4D-B1A9856CF63B";
shapes = (
{
closed = 1;
nodes = (
(943,73,l),
(902,35,l),
(1231,-243,l),
(1270,-208,l)
);
},
{
closed = 1;
nodes = (
(1288,747,l),
(1288,1163,o),
(1043,1477,o),
(708,1477,cs),
(374,1477,o),
(130,1163,o),
(130,747,cs),
(130,699,ls),
(130,283,o),
(376,-21,o),
(710,-21,cs),
(1045,-21,o),
(1288,283,o),
(1288,699,cs)
);
},
{
closed = 1;
nodes = (
(1234,699,l),
(1234,320,o),
(1024,33,o),
(710,33,cs),
(398,33,o),
(185,320,o),
(185,699,cs),
(185,749,ls),
(185,1126,o),
(396,1423,o),
(708,1423,cs),
(1022,1423,o),
(1234,1126,o),
(1234,749,cs)
);
}
);
width = 1418;
},
{
layerId = "20EE6398-45C7-446F-8F4E-C33CF1AD7937";
shapes = (
{
closed = 1;
nodes = (
(1057,279,l),
(832,76,l),
(1197,-254,l),
(1429,-50,l)
);
},
{
closed = 1;
nodes = (
(1425,735,l),
(1425,1169,o),
(1150,1477,o),
(743,1477,cs),
(332,1477,o),
(62,1169,o),
(62,735,cs),
(62,721,ls),
(62,286,o),
(334,-21,o),
(745,-21,cs),
(1152,-21,o),
(1425,286,o),
(1425,721,cs)
);
},
{
closed = 1;
nodes = (
(1051,721,l),
(1051,465,o),
(948,279,o),
(745,279,cs),
(536,279,o),
(437,465,o),
(437,721,cs),
(437,737,ls),
(437,995,o),
(534,1176,o),
(743,1176,cs),
(946,1176,o),
(1051,995,o),
(1051,737,cs)
);
}
);
width = 1487.675;
},
{
layerId = "275CACE8-FD52-4067-B7BC-43A450B7EDC9";
shapes = (
{
closed = 1;
nodes = (
(937,159,l),
(812,37,l),
(1177,-252,l),
(1309,-132,l)
);
},
{
closed = 1;
nodes = (
(1376,748,l),
(1376,1176,o),
(1108,1477,o),
(751,1477,cs),
(404,1477,o),
(126,1176,o),
(126,748,cs),
(126,706,ls),
(126,278,o),
(406,-21,o),
(753,-21,cs),
(1110,-21,o),
(1376,278,o),
(1376,706,cs)
);
},
{
closed = 1;
nodes = (
(1184,706,l),
(1184,367,o),
(1005,141,o),
(753,141,cs),
(514,141,o),
(319,367,o),
(319,706,cs),
(319,750,ls),
(319,1087,o),
(512,1314,o),
(751,1314,cs),
(1001,1314,o),
(1184,1087,o),
(1184,750,cs)
);
}
);
width = 1508.09;
}
);
},
{
glyphname = a;
lastChange = "2023-09-21 14:36:57 +0000";
layers = (
{
anchors = (
{
name = bottom;
pos = (507,0);
},
{
name = bottom_dd;
pos = (1081,-407);
},
{
name = ogonek;
pos = (933,0);
},
{
name = rhalfring;
pos = (700,1263);
},
{
name = rhotichook;
pos = (878,654);
},
{
name = top;
pos = (577,1292);
},
{
name = top0315;
pos = (1081,1292);
},
{
name = top_dd;
pos = (1081,1600);
}
);
guides = (
{
pos = (0,1658);
},
{
pos = (0,555);
}
);
layerId = "445B0B85-2678-4800-8A4D-B1A9856CF63B";
shapes = (
{
closed = 1;
nodes = (
(851,203,l),
(851,132,o),
(857,52,o),
(871,0,c),
(933,0,l),
(933,9,l),
(915,53,o),
(905,140,o),
(905,218,cs),
(905,760,l),
(905,988,o),
(746,1102,o),
(521,1102,cs),
(288,1102,o),
(121,955,o),
(121,786,c),
(175,784,l),
(175,934,o),
(325,1048,o),
(521,1048,cs),
(732,1048,o),
(851,942,o),
(851,762,c)
);
},
{
closed = 1;
nodes = (
(875,604,l),
(592,604,l),
(279,604,o),
(92,467,o),
(92,274,cs),
(92,102,o),
(223,-20,o),
(425,-20,cs),
(694,-20,o),
(843,138,o),
(893,287,c),
(869,337,l),
(805,152,o),
(653,33,o),
(425,33,cs),
(261,33,o),
(146,139,o),
(146,270,cs),
(146,434,o),
(316,549,o),
(595,549,c),
(877,549,l)
);
}
);
width = 1081;
},
{
anchors = (
{
name = bottom;
pos = (459,27);
},
{
name = bottom_dd;
pos = (1088,-407);
},
{
name = ogonek;
pos = (991,0);
},
{
name = rhalfring;
pos = (689,1292);
},
{
name = rhotichook;
pos = (851,654);
},
{
name = top;
pos = (531,1290);
},
{
name = top0315;
pos = (1088,1290);
},
{
name = top_dd;
pos = (1088,1600);
}
);
layerId = "20EE6398-45C7-446F-8F4E-C33CF1AD7937";
shapes = (
{
closed = 1;
nodes = (
(641,291,l),
(641,179,o),
(656,71,o),
(690,0,c),
(1050,0,l),
(1050,18,l),
(1020,72,o),
(1003,126,o),
(1003,282,cs),
(1003,709,l),
(1003,971,o),
(807,1102,o),
(547,1102,cs),
(254,1102,o),
(67,952,o),
(67,741,c),
(427,741,l),
(427,814,o),
(461,842,o),
(528,842,cs),
(611,842,o),
(641,791,o),
(641,711,c)
);
},
{
closed = 1;
nodes = (
(684,665,l),
(550,665,l),
(199,665,o),
(41,531,o),
(41,308,cs),
(41,112,o),
(212,-20,o),
(411,-20,cs),
(609,-20,o),
(677,96,o),
(730,199,c),
(653,350,l),
(658,311,o),
(600,244,o),
(498,244,cs),
(443,244,o),
(402,276,o),
(402,326,cs),
(402,394,o),
(433,469,o),
(547,469,c),
(686,469,l)
);
}
);
userData = {
com.schriftgestaltung.hints = (
{
horizontal = 1;
options = 0;
place = (
-2147483648,
0
);
stem = -2;
type = Tag;
}
);
};
width = 1087.7;
},
{
anchors = (
{
name = bottom;
pos = (502,0);
},
{
name = bottom_dd;
pos = (1115,-407);
},
{
name = ogonek;
pos = (970,0);
},
{
name = rhalfring;
pos = (700,1288);
},
{
name = rhotichook;
pos = (879,654);
},
{
name = top;
pos = (582,1290);
},
{
name = top0315;
pos = (1115,1290);
},
{
name = top_dd;
pos = (1115,1600);
}
);
layerId = "275CACE8-FD52-4067-B7BC-43A450B7EDC9";
shapes = (
{
closed = 1;
nodes = (
(778,185,l),
(778,124,o),
(789,42,o),
(808,0,c),
(1003,0,l),
(1003,16,l),
(978,74,o),
(965,164,o),
(965,236,cs),
(965,740,l),
(965,982,o),
(798,1102,o),
(562,1102,cs),
(300,1102,o),
(132,937,o),
(132,782,c),
(319,782,l),
(319,873,o),
(412,954,o),
(551,954,cs),
(700,954,o),
(778,871,o),
(778,742,c)
);
},
{
closed = 1;
nodes = (
(810,656,l),
(596,656,l),
(299,656,o),
(109,533,o),
(109,300,cs),
(109,121,o),
(254,-20,o),
(475,-20,cs),
(709,-20,o),
(856,167,o),
(876,278,c),
(796,367,l),
(790,268,o),
(671,140,o),
(502,140,cs),
(367,140,o),
(296,222,o),
(296,326,cs),
(296,459,o),
(415,526,o),
(626,526,c),
(812,526,l)
);
}
);
userData = {
com.schriftgestaltung.hints = (
{
horizontal = 1;
options = 0;
place = (
0,
0
);
stem = -2;
type = Tag;
}
);
};
width = 1114.67;
}
);
unicode = 97;
},
{
glyphname = ae;
lastChange = "2023-09-21 14:36:57 +0000";
layers = (
{
anchors = (
{
name = top;
pos = (859,1291);
},
{
name = top0315;
pos = (1735,1291);
},
{
name = top_dd;
pos = (1735,1600);
}
);
layerId = "445B0B85-2678-4800-8A4D-B1A9856CF63B";
shapes = (
{
closed = 1;
nodes = (
(813,183,l),
(868,218,l),
(868,718,l),
(868,973,o),
(732,1102,o),
(521,1102,cs),
(276,1102,o),
(121,965,o),
(121,778,c),
(174,771,l),
(174,929,o),
(300,1048,o),
(521,1048,cs),
(719,1048,o),
(813,928,o),
(813,720,c)
);
},
{
closed = 1;
nodes = (
(838,630,l),
(523,630,l),
(241,630,o),
(93,489,o),
(93,284,cs),
(93,100,o),
(220,-20,o),
(448,-20,cs),
(681,-20,o),
(820,111,o),
(869,218,c),
(814,229,l),
(794,158,o),
(640,32,o),
(447,32,cs),
(254,32,o),
(148,126,o),
(148,280,cs),
(148,438,o),
(266,575,o),
(525,575,c),
(838,575,l)
);
},
{
closed = 1;
nodes = (
(1268,-20,c),
(1460,-20,o),
(1559,50,o),
(1630,122,c),
(1600,164,l),
(1523,86,o),
(1410,34,o),
(1268,34,cs),
(989,34,o),
(870,241,o),
(870,500,cs),
(870,564,ls),
(870,832,o),
(1015,1048,o),
(1253,1048,c),
(1484,1048,o),
(1603,880,o),
(1603,664,c),
(1603,632,l),
(850,632,l),
(850,577,l),
(1657,577,l),
(1657,660,ls),
(1657,934,o),
(1505,1102,o),
(1253,1102,cs),
(1003,1102,o),
(815,880,o),
(815,564,cs),
(815,500,ls),
(815,198,o),
(976,-20,o)
);
}
);
width = 1735;
},
{
anchors = (
{
name = top;
pos = (864,1291);
},
{
name = top0315;
pos = (1730,1291);
},
{
name = top_dd;
pos = (1730,1600);
}
);
layerId = "20EE6398-45C7-446F-8F4E-C33CF1AD7937";
shapes = (
{
closed = 1;
nodes = (
(710,183,l),
(1059,218,l),
(1059,695,l),
(1059,966,o),
(878,1102,o),
(595,1102,cs),
(291,1102,o),
(98,956,o),
(98,755,c),
(458,735,l),
(458,778,o),
(504,812,o),
(590,812,cs),
(667,812,o),
(710,768,o),
(710,697,c)
);
},
{
closed = 1;
nodes = (
(755,660,l),
(586,660,l),
(240,660,o),
(59,541,o),
(59,330,cs),
(59,117,o),
(210,-20,o),
(488,-20,cs),
(731,-20,o),
(872,95,o),
(922,191,c),
(761,358,l),
(763,304,o),
(648,236,o),
(557,236,cs),
(462,236,o),
(419,269,o),
(419,326,cs),
(419,382,o),
(478,436,o),
(588,436,c),
(758,436,l)
);
},
{
closed = 1;
nodes = (
(1236,-20,c),
(1403,-20,o),
(1568,33,o),
(1652,100,c),
(1567,327,l),
(1483,293,o),
(1414,271,o),
(1286,271,cs),
(1121,271,o),
(1058,357,o),
(1058,478,cs),
(1058,564,ls),
(1058,710,o),
(1088,812,o),
(1226,812,c),
(1296,812,o),
(1336,766,o),
(1336,673,c),
(1336,648,l),
(844,648,l),
(844,416,l),
(1688,416,l),
(1688,608,ls),
(1688,911,o),
(1510,1102,o),
(1226,1102,cs),
(874,1104,o),
(708,880,o),
(708,564,cs),
(708,478,ls),
(708,188,o),
(896,-20,o)
);
}
);
userData = {
com.schriftgestaltung.hints = (
{
horizontal = 1;
options = 0;
place = (
-2147483648,
0
);
stem = -2;
type = Tag;
},
{
horizontal = 1;
options = 0;
place = (
-2147483648,
0
);
stem = -2;
type = Tag;
}
);
};
width = 1729.775;
},
{
anchors = (
{
name = top;
pos = (859,1291);
},
{
name = top0315;
pos = (1730,1291);
},
{
name = top_dd;
pos = (1730,1600);
}
);
layerId = "275CACE8-FD52-4067-B7BC-43A450B7EDC9";
shapes = (
{
closed = 1;
nodes = (
(748,183,l),
(930,218,l),
(930,718,l),
(930,973,o),
(770,1102,o),
(536,1102,cs),
(280,1102,o),
(106,965,o),
(106,778,c),
(292,760,l),
(292,863,o),
(387,952,o),
(536,952,cs),
(673,952,o),
(748,863,o),
(748,720,c)
);
},
{
closed = 1;
nodes = (
(790,635,l),
(527,635,l),
(233,635,o),
(78,514,o),
(78,304,cs),
(78,107,o),
(205,-21,o),
(433,-21,cs),
(687,-21,o),
(835,97,o),
(888,195,c),
(791,338,l),
(789,256,o),
(615,129,o),
(470,129,cs),
(330,129,o),
(265,204,o),
(265,300,cs),
(265,404,o),
(355,497,o),
(529,497,c),
(790,497,l)
);
},
{
closed = 1;
nodes = (
(1263,-21,c),
(1477,-21,o),
(1599,66,o),
(1643,102,c),
(1578,237,l),
(1511,192,o),
(1421,130,o),
(1263,130,cs),
(1033,130,o),
(934,305,o),
(934,520,cs),
(934,564,ls),
(934,778,o),
(1036,952,o),
(1218,952,c),
(1405,952,o),
(1474,823,o),
(1474,671,c),
(1474,640,l),
(857,640,l),
(857,499,l),
(1661,499,l),
(1661,616,ls),
(1661,915,o),
(1506,1102,o),
(1218,1102,cs),
(955,1104,o),
(758,880,o),
(758,564,cs),
(758,520,ls),
(758,205,o),
(936,-21,o)
);
}
);
userData = {
com.schriftgestaltung.hints = (
{
horizontal = 1;
options = 0;
place = (
0,
0
);
stem = -2;
type = Tag;
},
{
horizontal = 1;
options = 0;
place = (
0,
0
);
stem = -2;
type = Tag;
}
);
};
width = 1729.54;
}
);
unicode = 230;
},
{
glyphname = b;
lastChange = "2023-09-21 14:36:57 +0000";
layers = (
{
anchors = (
{
name = bottom;
pos = (584,-10);
},
{
name = bottom_dd;
pos = (1121,-407);
},
{
name = top;
pos = (577,1612);
},
{
name = top0315;
pos = (1121,1612);
},
{
name = top_dd;
pos = (1121,1600);
}
);
layerId = "445B0B85-2678-4800-8A4D-B1A9856CF63B";
shapes = (
{
closed = 1;
nodes = (
(170,1536,l),
(170,0,l),
(224,0,l),
(224,210,l),
(224,1536,l)
);
},
{
closed = 1;
nodes = (
(999,552,l),
(999,893,o),
(848,1102,o),
(591,1102,cs),
(356,1102,o),
(219,948,o),
(172,745,c),
(172,304,l),
(206,133,o),
(349,-20,o),
(593,-20,cs),
(849,-20,o),
(999,201,o),
(999,531,cs)
);
},
{
closed = 1;
nodes = (
(943,531,l),
(943,243,o),
(830,34,o),
(594,34,cs),
(367,34,o),
(244,166,o),
(208,329,c),
(208,709,l),
(237,843,o),
(320,1048,o),
(592,1048,cs),
(830,1048,o),
(943,839,o),
(943,552,cs)
);
}
);
width = 1121;
},
{
anchors = (
{
name = bottom;
pos = (700,-10);
},
{
name = bottom_dd;
pos = (1155,-407);
},
{
name = top;
pos = (689,1597);
},
{
name = top0315;
pos = (1155,1597);
},
{
name = top_dd;
pos = (1155,1600);
}
);
layerId = "20EE6398-45C7-446F-8F4E-C33CF1AD7937";
shapes = (
{
closed = 1;
nodes = (
(92,1536,l),
(92,0,l),
(414,0,l),
(452,279,l),
(452,1536,l)
);
},
{
closed = 1;
nodes = (
(1107,554,l),
(1107,867,o),
(977,1102,o),
(684,1102,cs),
(424,1102,o),
(324,842,o),
(281,537,c),
(281,549,l),
(325,239,o),
(424,-20,o),
(686,-20,cs),
(977,-20,o),
(1107,204,o),
(1107,533,cs)
);
},
{
closed = 1;
nodes = (
(747,533,l),
(747,372,o),
(733,268,o),
(595,268,cs),
(456,268,o),
(415,355,o),
(423,526,c),
(423,560,l),
(416,728,o),
(459,812,o),
(593,812,cs),
(726,812,o),
(747,693,o),
(747,554,cs)
);
}
);
width = 1155.4;
},
{
anchors = (
{
name = bottom;
pos = (599,-10);
},
{
name = bottom_dd;
pos = (1150,-407);
},
{
name = top;
pos = (634,1611);
},
{
name = top0315;
pos = (1150,1611);
},
{
name = top_dd;
pos = (1150,1600);
}
);
layerId = "275CACE8-FD52-4067-B7BC-43A450B7EDC9";
shapes = (
{
closed = 1;
nodes = (
(140,1536,l),
(140,0,l),
(311,0,l),
(327,210,l),
(327,1536,l)
);
},
{
closed = 1;
nodes = (
(1057,550,l),
(1057,880,o),
(906,1102,o),
(635,1102,cs),
(361,1102,o),
(229,905,o),
(197,588,c),
(197,491,l),
(228,177,o),
(361,-20,o),
(637,-20,cs),
(905,-20,o),
(1057,213,o),
(1057,529,cs)
);
},
{
closed = 1;
nodes = (
(870,529,l),
(870,313,o),
(789,136,o),
(590,136,cs),
(407,136,o),
(320,276,o),
(288,417,c),
(288,660,l),
(318,807,o),
(403,947,o),
(588,947,cs),
(797,947,o),
(870,766,o),
(870,550,cs)
);
}
);
width = 1150.12;
}
);
unicode = 98;
},
{
glyphname = c;
lastChange = "2023-09-21 14:36:57 +0000";
layers = (
{
anchors = (
{
name = bottom;
pos = (547,-10);
},
{
name = bottom_dd;
pos = (1039,-407);
},
{
name = marktop;
pos = (547,1290);
},
{
name = top;
pos = (547,1290);
},
{
name = top0315;
pos = (1039,1290);
},
{
name = top_dd;
pos = (1039,1600);
}
);
layerId = "445B0B85-2678-4800-8A4D-B1A9856CF63B";
shapes = (
{
closed = 1;
nodes = (
(539,34,cs),
(272,34,o),
(151,249,o),
(151,520,cs),
(151,562,ls),
(151,831,o),
(272,1048,o),
(537,1048,c),
(715,1048,o),
(876,940,o),
(886,725,c),
(940,725,l),
(930,973,o),
(746,1102,o),
(537,1102,cs),
(258,1102,o),
(97,879,o),
(97,562,cs),
(97,520,ls),
(97,203,o),
(258,-20,o),
(539,-20,c),
(750,-20,o),
(929,108,o),
(940,328,c),
(886,328,l),
(873,121,o),
(708,34,o)
);
}
);
width = 1039;
},
{
anchors = (
{
name = bottom;
pos = (569,2);
},
{
name = bottom_dd;
pos = (1067,-407);
},
{
name = marktop;
pos = (536,1290);
},
{
name = top;
pos = (536,1290);
},
{
name = top0315;
pos = (1067,1290);
},
{
name = top_dd;
pos = (1067,1600);
}
);
layerId = "20EE6398-45C7-446F-8F4E-C33CF1AD7937";
shapes = (
{
closed = 1;
nodes = (
(553,270,cs),
(422,270,o),
(409,383,o),
(409,531,cs),
(409,550,ls),
(409,694,o),
(423,812,o),
(550,812,c),
(648,812,o),
(687,741,o),
(685,658,c),
(1022,658,l),
(1025,943,o),
(834,1102,o),
(559,1102,cs),
(219,1102,o),
(49,866,o),
(49,550,cs),
(49,531,ls),
(49,215,o),
(219,-20,o),
(561,-20,c),
(826,-20,o),
(1025,143,o),
(1022,397,c),
(685,397,l),
(687,317,o),
(641,270,o)
);
}
);
width = 1066.525;
},
{
anchors = (
{
name = bottom;
pos = (532,-10);
},
{
name = bottom_dd;
pos = (1073,-407);
},
{
name = marktop;
pos = (532,1290);
},
{
name = top;
pos = (532,1290);
},
{
name = top0315;
pos = (1073,1290);
},
{
name = top_dd;
pos = (1073,1600);
}
);
layerId = "275CACE8-FD52-4067-B7BC-43A450B7EDC9";
shapes = (
{
closed = 1;
nodes = (
(574,130,cs),
(345,130,o),
(279,329,o),
(279,520,cs),
(279,562,ls),
(279,751,o),
(347,952,o),
(574,952,c),
(722,952,o),
(819,844,o),
(829,710,c),
(1006,710,l),
(996,933,o),
(828,1102,o),
(574,1102,cs),
(249,1102,o),
(92,853,o),
(92,562,cs),
(92,520,ls),
(92,229,o),
(248,-20,o),
(574,-20,c),
(804,-20,o),
(995,149,o),
(1006,342,c),
(829,342,l),
(818,219,o),
(706,130,o)
);
}
);
width = 1072.67;
}
);
unicode = 99;
},
{
glyphname = d;
lastChange = "2023-09-21 14:36:57 +0000";
layers = (
{
anchors = (
{
name = bottom;
pos = (597,0);
},
{
name = bottom_dd;
pos = (1121,-407);
},
{
name = caron;
pos = (1102,1536);
},
{
name = cross;
pos = (823,1306);
},
{
name = top;
pos = (536,1620);
},
{
name = top0315;
pos = (1121,1620);
},
{
name = top_dd;
pos = (1121,1600);
}
);
layerId = "445B0B85-2678-4800-8A4D-B1A9856CF63B";
shapes = (
{
closed = 1;
nodes = (
(897,210,l),
(897,0,l),
(951,0,l),
(951,1536,l),
(897,1536,l)
);
},
{
closed = 1;
nodes = (
(122,531,l),
(122,201,o),
(272,-20,o),
(528,-20,cs),
(772,-20,o),
(913,133,o),
(947,304,c),
(947,745,l),
(900,948,o),
(766,1102,o),
(530,1102,cs),
(273,1102,o),
(122,893,o),
(122,552,cs)
);
},
{
closed = 1;
nodes = (
(178,552,l),
(178,839,o),
(291,1048,o),
(529,1048,cs),
(801,1048,o),
(886,843,o),
(915,709,c),
(915,329,l),
(879,166,o),
(754,34,o),
(527,34,cs),
(291,34,o),
(178,243,o),
(178,531,cs)
);
}
);
width = 1121;
},
{
anchors = (
{
name = bottom;
pos = (572,0);
},
{
name = bottom_dd;
pos = (1155,-407);
},
{
name = caron;
pos = (1183,1536);
},
{
name = cross;
pos = (823,1306);
},
{
name = top;
pos = (464,1597);
},
{
name = top0315;
pos = (1155,1597);
},
{
name = top_dd;
pos = (1155,1600);
}
);
layerId = "20EE6398-45C7-446F-8F4E-C33CF1AD7937";
shapes = (
{
closed = 1;
nodes = (
(702,257,l),
(740,0,l),
(1064,0,l),
(1064,1536,l),
(702,1536,l)
);
},
{
closed = 1;
nodes = (
(47,528,l),
(47,214,o),
(191,-20,o),
(467,-20,cs),
(714,-20,o),
(831,241,o),
(874,538,c),
(874,526,l),
(832,845,o),
(715,1102,o),
(469,1102,cs),
(191,1102,o),
(47,877,o),
(47,549,cs)
);
},
{
closed = 1;
nodes = (
(407,549,l),
(407,702,o),
(445,812,o),
(562,812,cs),
(679,812,o),
(738,733,o),
(731,549,c),
(731,515,l),
(740,361,o),
(681,270,o),
(560,270,cs),
(440,270,o),
(407,382,o),
(407,528,cs)
);
}
);
width = 1154.5;
},
{
anchors = (
{
name = bottom;
pos = (617,0);
},
{
name = bottom_dd;
pos = (1156,-407);
},
{
name = caron;
pos = (1115,1536);
},
{
name = cross;
pos = (876,1306);
},
{
name = top;
pos = (549,1612);
},
{
name = top0315;
pos = (1156,1612);
},
{
name = top_dd;
pos = (1156,1600);
}
);
layerId = "275CACE8-FD52-4067-B7BC-43A450B7EDC9";
shapes = (
{
closed = 1;
nodes = (
(822,210,l),
(838,0,l),
(1009,0,l),
(1009,1536,l),
(822,1536,l)
);
},
{
closed = 1;
nodes = (
(95,529,l),
(95,213,o),
(267,-20,o),
(521,-20,cs),
(796,-20,o),
(929,177,o),
(959,491,c),
(959,588,l),
(928,905,o),
(795,1102,o),
(523,1102,cs),
(265,1102,o),
(95,880,o),
(95,550,cs)
);
},
{
closed = 1;
nodes = (
(282,550,l),
(282,766,o),
(367,947,o),
(569,947,cs),
(755,947,o),
(839,807,o),
(870,660,c),
(870,417,l),
(829,267,o),
(750,136,o),
(567,136,cs),
(367,136,o),
(282,313,o),
(282,529,cs)
);
}
);
width = 1155.58;
}
);
unicode = 100;
},
{
glyphname = eth;
lastChange = "2023-09-21 14:36:57 +0000";
layers = (
{
layerId = "445B0B85-2678-4800-8A4D-B1A9856CF63B";
shapes = (
{
closed = 1;
nodes = (
(338,1527,l),
(705,1390,o),
(987,1167,o),
(987,617,cs),
(987,535,ls),
(987,246,o),
(850,38,o),
(633,38,cs),
(372,38,o),
(228,251,o),
(228,465,c),
(228,705,o),
(339,895,o),
(601,895,c),
(882,895,o),
(1008,699,o),
(1008,574,c),
(1039,583,l),
(1039,819,o),
(824,953,o),
(601,953,c),
(333,953,o),
(173,775,o),
(173,465,c),
(173,194,o),
(361,-20,o),
(629,-20,cs),
(869,-20,o),
(1041,206,o),
(1041,535,c),
(1041,615,l),
(1041,1128,o),
(816,1409,o),
(358,1577,c)
);
},
{
closed = 1;
nodes = (
(991,1413,l),
(962,1461,l),
(489,1197,l),
(517,1149,l)
);
}
);
width = 1183;
},
{
layerId = "20EE6398-45C7-446F-8F4E-C33CF1AD7937";
shapes = (
{
closed = 1;
nodes = (
(218,1309,l),
(493,1240,o),
(769,1048,o),
(769,664,cs),
(769,557,ls),
(769,393,o),
(711,270,o),
(581,270,cs),
(478,270,o),
(416,347,o),
(416,468,c),
(416,609,o),
(471,692,o),
(591,692,c),
(736,692,o),
(805,627,o),
(805,575,c),
(931,572,l),
(906,807,o),
(737,959,o),
(511,959,c),
(210,959,o),
(56,761,o),
(56,468,c),
(56,196,o),
(263,-20,o),
(577,-20,cs),
(895,-20,o),
(1131,234,o),
(1131,606,c),
(1131,662,l),
(1131,1149,o),
(797,1492,o),
(333,1579,c)
);
},
{
closed = 1;
nodes = (
(989,1379,l),
(909,1505,l),
(322,1144,l),
(404,1019,l)
);
}
);
width = 1164.075;
},
{
layerId = "275CACE8-FD52-4067-B7BC-43A450B7EDC9";
shapes = (
{
closed = 1;
nodes = (
(254,1422,l),
(595,1333,o),
(883,1103,o),
(883,635,cs),
(883,535,ls),
(883,304,o),
(777,131,o),
(606,131,cs),
(418,131,o),
(313,303,o),
(313,468,c),
(313,688,o),
(424,827,o),
(618,827,c),
(809,827,o),
(903,703,o),
(903,614,c),
(973,613,l),
(973,794,o),
(799,978,o),
(574,978,c),
(316,978,o),
(126,776,o),
(126,468,c),
(126,196,o),
(321,-20,o),
(602,-20,cs),
(873,-20,o),
(1070,206,o),
(1070,535,c),
(1070,633,l),
(1070,1136,o),
(762,1479,o),
(312,1581,c)
);
},
{
closed = 1;
nodes = (
(988,1417,l),
(915,1516,l),
(377,1152,l),
(451,1053,l)
);
}
);
width = 1201.2;
}
);
unicode = 240;
},
{
glyphname = e;
lastChange = "2023-09-21 14:36:57 +0000";
layers = (
{
anchors = (
{
name = bottom;
pos = (565,4);
},
{
name = bottom_dd;
pos = (1032,-407);
},
{
name = ogonek;
pos = (832,58);
},
{
name = rhotichook;
pos = (926,654);
},
{
name = top;
pos = (567,1291);
},
{
name = top0315;
pos = (1032,1291);
},
{
name = top_dd;
pos = (1032,1600);
}
);
layerId = "445B0B85-2678-4800-8A4D-B1A9856CF63B";
shapes = (
{
closed = 1;
nodes = (
(561,-20,c),
(734,-20,o),
(848,52,o),
(920,155,c),
(882,182,l),
(792,66,o),
(685,33,o),
(561,33,cs),
(323,33,o),
(141,248,o),
(141,518,cs),
(141,562,ls),
(141,830,o),
(302,1048,o),
(541,1048,c),
(758,1048,o),
(898,861,o),
(898,644,c),
(898,631,l),
(122,631,l),
(122,577,l),
(952,577,l),
(952,640,ls),
(952,915,o),
(781,1102,o),
(541,1102,cs),
(291,1102,o),
(87,878,o),
(87,562,cs),
(87,518,ls),
(87,204,o),
(298,-20,o)
);
}
);
width = 1032;
},
{
anchors = (
{
name = bottom;
pos = (571,0);
},
{
name = bottom_dd;
pos = (1122,-407);
},
{
name = ogonek;
pos = (886,35);
},
{
name = rhotichook;
pos = (921,654);
},
{
name = top;
pos = (531,1291);
},
{
name = top0315;
pos = (1122,1291);
},
{
name = top_dd;
pos = (1122,1600);
}
);
layerId = "20EE6398-45C7-446F-8F4E-C33CF1AD7937";
shapes = (
{
closed = 1;
nodes = (
(624,-20,c),
(834,-20,o),
(988,75,o),
(1055,168,c),
(893,375,l),
(831,298,o),
(736,271,o),
(648,271,cs),
(504,271,o),
(419,359,o),
(419,504,cs),
(419,541,ls),
(419,680,o),
(443,812,o),
(583,812,c),
(680,812,o),
(734,771,o),
(732,677,c),
(732,648,l),
(194,648,l),
(194,417,l),
(1084,417,l),
(1084,568,ls),
(1084,900,o),
(899,1102,o),
(586,1102,cs),
(231,1102,o),
(59,851,o),
(59,541,cs),
(59,504,ls),
(59,226,o),
(263,-20,o)
);
}
);
userData = {
com.schriftgestaltung.hints = (
{
horizontal = 1;
options = 0;
place = (
-2147483648,
0
);
stem = -2;
type = Tag;
},
{
horizontal = 1;
options = 0;
place = (
-2147483648,
0
);
stem = -2;
type = Tag;
}
);
};
width = 1122.225;
},
{
anchors = (
{
name = bottom;
pos = (568,0);
},
{
name = bottom_dd;
pos = (1087,-407);
},
{
name = ogonek;
pos = (812,26);
},
{
name = rhotichook;
pos = (911,654);
},
{
name = top;
pos = (565,1290);
},
{
name = top0315;
pos = (1087,1290);
},
{
name = top_dd;
pos = (1087,1600);
}
);
layerId = "275CACE8-FD52-4067-B7BC-43A450B7EDC9";
shapes = (
{
closed = 1;
nodes = (
(590,-20,c),
(805,-20,o),
(928,82,o),
(998,189,c),
(885,277,l),
(817,188,o),
(731,130,o),
(600,130,cs),
(399,130,o),
(280,297,o),
(280,503,cs),
(280,546,ls),
(280,805,o),
(398,952,o),
(566,952,c),
(755,952,o),
(816,798,o),
(825,654,c),
(825,640,l),
(204,640,l),
(204,490,l),
(1012,490,l),
(1012,573,ls),
(1012,875,o),
(877,1102,o),
(566,1102,cs),
(323,1102,o),
(93,898,o),
(93,546,cs),
(93,503,ls),
(93,199,o),
(288,-20,o)
);
}
);
userData = {
com.schriftgestaltung.hints = (
{
horizontal = 1;
options = 0;
place = (
0,
0
);
stem = -2;
type = Tag;
},
{
horizontal = 1;
options = 0;
place = (
0,
0
);
stem = -2;
type = Tag;
}
);
};
width = 1086.6;
}
);
unicode = 101;
},
{
glyphname = f;
lastChange = "2023-09-21 14:36:57 +0000";
layers = (
{
anchors = (
{
name = bottom;
pos = (330,10);
},
{
name = bottom_dd;
pos = (645,-407);
},
{
name = top;
pos = (518,1680);
},
{
name = top0315;
pos = (645,1680);
},
{
name = top_dd;
pos = (645,1600);
}
);
guides = (
{
pos = (0,894);
},
{
pos = (0,187);
}
);
layerId = "445B0B85-2678-4800-8A4D-B1A9856CF63B";
shapes = (
{
closed = 1;
nodes = (
(308,0,l),
(308,1236,l),
(308,1405,o),
(396,1503,o),
(538,1503,cs),
(592,1503,o),
(619,1498,o),
(657,1488,c),
(665,1540,l),
(623,1553,o),
(578,1557,o),
(537,1557,cs),
(361,1557,o),
(254,1443,o),
(254,1236,c),
(254,0,l)
);
},
{
closed = 1;
nodes = (
(594,1082,l),
(66,1082,l),
(66,1027,l),
(594,1027,l)
);
}
);
width = 645;
},
{
anchors = (
{
name = bottom;
pos = (330,10);
},
{
name = bottom_dd;
pos = (750,-407);
},
{
name = top;
pos = (430,1646);
},
{
name = top0315;
pos = (750,1646);
},
{
name = top_dd;
pos = (750,1600);
}
);
layerId = "20EE6398-45C7-446F-8F4E-C33CF1AD7937";
shapes = (
{
closed = 1;
nodes = (
(524,0,l),
(524,1162,l),
(524,1230,o),
(576,1268,o),
(670,1268,cs),
(705,1268,o),
(728,1265,o),
(751,1259,c),
(749,1535,l),
(699,1547,o),
(647,1557,o),
(587,1557,cs),
(327,1557,o),
(162,1418,o),
(162,1162,c),
(162,0,l)
);
},
{
closed = 1;
nodes = (
(728,1082,l),
(8,1082,l),
(8,822,l),
(728,822,l)
);
}
);
userData = {
com.schriftgestaltung.hints = (
{
horizontal = 1;
options = 0;
place = (
-2147483648,
0
);
stem = -2;
type = Tag;
}
);
};
width = 750.275;
},
{
anchors = (
{
name = bottom;
pos = (330,10);
},
{
name = bottom_dd;
pos = (712,-407);
},
{
name = top;
pos = (502,1753);
},
{
name = top0315;
pos = (712,1753);
},
{
name = top_dd;
pos = (712,1600);
}
);
layerId = "275CACE8-FD52-4067-B7BC-43A450B7EDC9";
shapes = (
{
closed = 1;
nodes = (
(418,0,l),
(418,1197,l),
(418,1328,o),
(487,1400,o),
(605,1400,cs),
(640,1400,o),
(677,1397,o),
(705,1392,c),
(715,1541,l),
(674,1551,o),
(630,1557,o),
(588,1557,cs),
(366,1557,o),
(231,1429,o),
(231,1197,c),
(231,0,l)
);
},
{
closed = 1;
nodes = (
(648,1082,l),
(61,1082,l),
(61,941,l),
(648,941,l)
);
}
);
userData = {
com.schriftgestaltung.hints = (
{
horizontal = 1;
options = 0;
place = (
0,
0
);
stem = -2;
type = Tag;
}
);
};
width = 712.34;
}
);
unicode = 102;
},
{
glyphname = g;
lastChange = "2023-09-21 14:36:57 +0000";
layers = (
{
anchors = (
{
name = bottom;
pos = (554,-447);
},
{
name = bottom_dd;
pos = (1123,-407);
},
{
name = top;
pos = (567,1290);
},
{
name = top0315;
pos = (1123,1290);
},
{
name = top_dd;
pos = (1123,1600);
}
);
layerId = "445B0B85-2678-4800-8A4D-B1A9856CF63B";
shapes = (
{
closed = 1;
nodes = (
(895,1082,l),
(895,844,l),
(895,15,ls),
(895,-228,o),
(774,-383,o),
(539,-383,cs),
(405,-383,o),
(309,-324,o),
(225,-218,c),
(187,-254,l),
(265,-361,o),
(383,-436,o),
(541,-436,cs),
(796,-436,o),
(950,-262,o),
(950,15,cs),
(950,1082,l)
);
},
{
closed = 1;
nodes = (
(121,531,l),
(121,201,o),
(271,-20,o),
(527,-20,cs),
(771,-20,o),
(912,133,o),
(946,304,c),
(946,745,l),
(899,948,o),
(764,1102,o),
(529,1102,cs),
(272,1102,o),
(121,893,o),
(121,552,cs)
);
},
{
closed = 1;
nodes = (
(176,552,l),
(176,839,o),
(290,1048,o),
(528,1048,cs),
(800,1048,o),
(881,843,o),
(910,709,c),
(910,329,l),
(874,166,o),
(753,34,o),
(526,34,cs),
(290,34,o),
(176,243,o),
(176,531,cs)
);
}
);
width = 1123;
},
{
anchors = (
{
name = bottom;
pos = (554,-447);
},
{
name = bottom_dd;
pos = (1183,-407);
},
{
name = top;
pos = (553,1290);
},
{
name = top0315;
pos = (1183,1290);
},
{
name = top_dd;
pos = (1183,1600);
}
);
layerId = "20EE6398-45C7-446F-8F4E-C33CF1AD7937";
shapes = (
{
closed = 1;
nodes = (
(765,1082,l),
(730,822,l),
(730,51,ls),
(730,-75,o),
(656,-148,o),
(517,-148,cs),
(407,-148,o),
(325,-98,o),
(274,-46,c),
(124,-269,l),
(214,-369,o),
(385,-425,o),
(529,-425,cs),
(865,-425,o),
(1092,-257,o),
(1092,47,cs),
(1092,1082,l)
);
},
{
closed = 1;
nodes = (
(50,528,l),
(50,214,o),
(220,-20,o),
(495,-20,cs),
(757,-20,o),
(856,241,o),
(902,538,c),
(902,526,l),
(857,845,o),
(797,1102,o),
(497,1102,cs),
(220,1102,o),
(50,877,o),
(50,549,cs)
);
},
{
closed = 1;
nodes = (
(411,549,l),
(411,702,o),
(473,812,o),
(590,812,cs),
(723,812,o),
(779,733,o),
(772,549,c),
(772,515,l),
(781,361,o),
(726,270,o),
(588,270,cs),
(468,270,o),
(411,382,o),
(411,528,cs)
);
}
);
width = 1183.425;
},
{
anchors = (
{
name = bottom;
pos = (554,-447);
},
{
name = bottom_dd;
pos = (1150,-407);
},
{
name = top;
pos = (556,1290);
},
{
name = top0315;
pos = (1150,1290);
},
{
name = top_dd;
pos = (1150,1600);
}
);
layerId = "275CACE8-FD52-4067-B7BC-43A450B7EDC9";
shapes = (
{
closed = 1;
nodes = (
(841,1082,l),
(824,844,l),
(824,14,ls),
(824,-175,o),
(712,-277,o),
(538,-277,cs),
(440,-277,o),
(338,-240,o),
(248,-130,c),
(151,-239,l),
(248,-380,o),
(440,-427,o),
(552,-427,cs),
(822,-427,o),
(1011,-264,o),
(1011,23,cs),
(1011,1082,l)
);
},
{
closed = 1;
nodes = (
(96,529,l),
(96,213,o),
(262,-20,o),
(522,-20,cs),
(796,-20,o),
(930,177,o),
(961,491,c),
(961,588,l),
(929,905,o),
(796,1102,o),
(524,1102,cs),
(260,1102,o),
(96,880,o),
(96,550,cs)
);
},
{
closed = 1;
nodes = (
(283,550,l),
(283,766,o),
(368,947,o),
(570,947,cs),
(755,947,o),
(839,807,o),
(870,660,c),
(870,417,l),
(829,267,o),
(751,136,o),
(568,136,cs),
(368,136,o),
(283,313,o),
(283,529,cs)
);
}
);
width = 1150.3;
}
);
unicode = 103;
},
{
glyphname = h;
lastChange = "2023-09-21 14:36:57 +0000";
layers = (
{
anchors = (
{
name = bottom;
pos = (572,10);
},
{
name = bottom_dd;
pos = (1121,-407);
},
{
name = cross;
pos = (330,1306);
},
{
name = right;
pos = (955,0);
},
{
name = top;
pos = (473,1611);
},
{
name = top0315;
pos = (1121,1611);
},
{
name = top_dd;
pos = (1121,1600);
}
);
guides = (
{
pos = (0,901);
},
{
pos = (0,555);
}
);
layerId = "445B0B85-2678-4800-8A4D-B1A9856CF63B";
shapes = (
{
closed = 1;
nodes = (
(226,1536,l),
(172,1536,l),
(172,0,l),
(226,0,l)
);
},
{
closed = 1;
nodes = (
(217,634,l),
(226,763,o),
(335,1049,o),
(607,1049,c),
(779,1049,o),
(900,975,o),
(900,700,cs),
(900,0,l),
(954,0,l),
(954,700,ls),
(954,987,o),
(829,1102,o),
(610,1102,cs),
(375,1102,o),
(215,904,o),
(188,691,c)
);
}
);
width = 1121;
},
{
anchors = (
{
name = bottom;
pos = (580,10);
},
{
name = bottom_dd;
pos = (1159,-407);
},
{
name = cross;
pos = (296,1301);
},
{
name = right;
pos = (1073,0);
},
{
name = top;
pos = (541,1711);
},
{
name = top0315;
pos = (1159,1711);
},
{
name = top_dd;
pos = (1159,1600);
}
);
layerId = "20EE6398-45C7-446F-8F4E-C33CF1AD7937";
shapes = (
{
closed = 1;
nodes = (
(441,1536,l),
(80,1536,l),
(80,0,l),
(441,0,l)
);
},
{
closed = 1;
nodes = (
(399,574,l),
(398,719,o),
(419,812,o),
(568,812,cs),
(658,812,o),
(711,783,o),
(711,666,cs),
(711,0,l),
(1073,0,l),
(1073,664,ls),
(1073,985,o),
(922,1102,o),
(708,1102,cs),
(470,1102,o),
(314,878,o),
(316,567,c)
);
}
);
width = 1159;
},
{
anchors = (
{
name = bottom;
pos = (588,10);
},
{
name = bottom_dd;
pos = (1128,-407);
},
{
name = cross;
pos = (285,1306);
},
{
name = right;
pos = (992,0);
},
{
name = top;
pos = (501,1611);
},
{
name = top0315;
pos = (1128,1611);
},
{
name = top_dd;
pos = (1128,1600);
}
);
layerId = "275CACE8-FD52-4067-B7BC-43A450B7EDC9";
shapes = (
{
closed = 1;
nodes = (
(327,1536,l),
(140,1536,l),
(140,0,l),
(327,0,l)
);
},
{
closed = 1;
nodes = (
(283,583,l),
(283,777,o),
(407,947,o),
(590,947,cs),
(730,947,o),
(805,881,o),
(805,711,cs),
(805,0,l),
(992,0,l),
(992,709,ls),
(992,992,o),
(858,1102,o),
(645,1102,cs),
(383,1102,o),
(208,882,o),
(205,586,c)
);
}
);
width = 1128.28;
}
);
unicode = 104;
},
{
glyphname = i;
lastChange = "2023-09-21 14:36:57 +0000";
layers = (
{
anchors = (
{
name = bottom;
pos = (210,10);
},
{
name = bottom_dd;
pos = (422,-407);
},
{
name = ogonek;
pos = (238,0);
},
{
name = rhotichook;
pos = (212,654);
},
{
name = top;
pos = (218,1600);
},
{
name = top0315;
pos = (422,1600);
},
{
name = top_dd;
pos = (422,1600);
}
);
guides = (
{
pos = (0,901);
},
{
pos = (0,555);
}
);
layerId = "445B0B85-2678-4800-8A4D-B1A9856CF63B";
shapes = (
{
closed = 1;
nodes = (
(239,1082,l),
(185,1082,l),
(185,0,l),
(239,0,l)
);
},
{
closed = 1;
nodes = (
(157,1420,cs),
(157,1389,o),
(181,1365,o),
(212,1365,cs),
(243,1365,o),
(268,1389,o),
(268,1420,cs),
(268,1451,o),
(243,1476,o),
(212,1476,cs),
(181,1476,o),
(157,1451,o)
);
}
);
width = 422;
},
{
anchors = (
{
name = bottom;
pos = (287,10);
},
{
name = bottom_dd;
pos = (575,-407);
},
{
name = ogonek;
pos = (407,0);
},
{
name = rhotichook;
pos = (373,654);
},
{
name = top;
pos = (285,1600);
},
{
name = top0315;
pos = (575,1600);
},
{
name = top_dd;
pos = (575,1600);
}
);
layerId = "20EE6398-45C7-446F-8F4E-C33CF1AD7937";
shapes = (
{
closed = 1;
nodes = (
(468,1082,l),
(107,1082,l),
(107,0,l),
(468,0,l)
);
},
{
closed = 1;
nodes = (
(87,1356,cs),
(87,1250,o),
(168,1176,o),
(285,1176,c),
(403,1176,o),
(483,1250,o),
(483,1356,c),
(483,1462,o),
(403,1536,o),
(285,1536,c),
(168,1536,o),
(87,1462,o)
);
}
);
width = 574.775;
},
{
anchors = (
{
name = bottom;
pos = (249,10);
},
{
name = bottom_dd;
pos = (498,-407);
},
{
name = ogonek;
pos = (327,0);
},
{
name = rhotichook;
pos = (278,654);
},
{
name = top;
pos = (252,1600);
},
{
name = top0315;
pos = (498,1600);
},
{
name = top_dd;
pos = (498,1600);
}
);
layerId = "275CACE8-FD52-4067-B7BC-43A450B7EDC9";
shapes = (
{
closed = 1;
nodes = (
(343,1082,l),
(156,1082,l),
(156,0,l),
(343,0,l)
);
},
{
closed = 1;
nodes = (
(142,1370,cs),
(142,1312,o),
(179,1266,o),
(251,1266,c),
(323,1266,o),
(362,1312,o),
(362,1370,c),
(362,1429,o),
(323,1476,o),
(251,1476,c),
(179,1476,o),
(142,1429,o)
);
}
);
width = 498.44;
}
);
unicode = 105;
},
{
glyphname = idotless;
lastChange = "2023-09-21 14:40:03 +0000";
layers = (
{
anchors = (
{
name = bottom;
pos = (210,10);
},
{
name = rhotichook;
pos = (212,654);
},
{
name = top;
pos = (209,1269);
},
{
name = top0315;
pos = (406,1269);
}
);
layerId = "445B0B85-2678-4800-8A4D-B1A9856CF63B";
shapes = (
{
closed = 1;
nodes = (
(235,1082,l),
(181,1082,l),
(181,0,l),
(235,0,l)
);
}
);
width = 406;
},
{
anchors = (
{
name = bottom;
pos = (287,10);
},
{
name = rhotichook;
pos = (373,654);
},
{
name = top;
pos = (300,1266);
},
{
name = top0315;
pos = (599,1266);
}
);
layerId = "20EE6398-45C7-446F-8F4E-C33CF1AD7937";
shapes = (
{
closed = 1;
nodes = (
(481,1082,l),
(119,1082,l),
(119,0,l),
(481,0,l)
);
}
);
width = 598.675;
},
{
anchors = (
{
name = bottom;
pos = (249,10);
},
{
name = rhotichook;
pos = (278,654);
},
{
name = top;
pos = (253,1288);
},
{
name = top0315;
pos = (508,1288);
}
);
layerId = "275CACE8-FD52-4067-B7BC-43A450B7EDC9";
shapes = (
{
closed = 1;
nodes = (
(342,1082,l),
(156,1082,l),
(156,0,l),
(342,0,l)
);
}
);
width = 507.92;
}
);
unicode = 305;
},
{
glyphname = j;
lastChange = "2023-09-21 14:36:57 +0000";
layers = (
{
anchors = (
{
name = bottom;
pos = (190,-459);
},
{
name = bottom_dd;
pos = (445,-407);
},
{
name = top;
pos = (223,1600);
},
{
name = top0315;
pos = (445,1600);
},
{
name = top_dd;
pos = (445,1600);
}
);
guides = (
{
pos = (0,659);
},
{
pos = (0,1005);
}
);
layerId = "445B0B85-2678-4800-8A4D-B1A9856CF63B";
shapes = (
{
closed = 1;
nodes = (
(186,1082,l),
(186,-129,l),
(186,-290,o),
(103,-383,o),
(-45,-383,cs),
(-82,-383,o),
(-119,-373,o),
(-140,-365,c),
(-143,-417,l),
(-111,-430,o),
(-79,-437,o),
(-45,-437,cs),
(134,-437,o),
(240,-328,o),
(240,-129,c),
(240,1082,l)
);
},
{
closed = 1;
nodes = (
(163,1420,cs),
(163,1389,o),
(187,1365,o),
(218,1365,cs),
(249,1365,o),
(274,1389,o),
(274,1420,cs),
(274,1451,o),
(249,1476,o),
(218,1476,cs),
(187,1476,o),
(163,1451,o)
);
}
);
width = 445;
},
{
anchors = (
{
name = bottom;
pos = (190,-459);
},
{
name = bottom_dd;
pos = (562,-407);
},
{
name = top;
pos = (223,1600);
},
{
name = top0315;
pos = (562,1600);
},
{
name = top_dd;
pos = (562,1600);
}
);
layerId = "20EE6398-45C7-446F-8F4E-C33CF1AD7937";
shapes = (
{
closed = 1;
nodes = (
(114,1082,l),
(114,-14,l),
(114,-101,o),
(67,-144,o),
(-20,-144,cs),
(-55,-144,o),
(-81,-140,o),
(-116,-135,c),
(-115,-420,l),
(-55,-434,o),
(-10,-437,o),
(50,-437,cs),
(313,-437,o),
(476,-288,o),
(476,-14,c),
(476,1082,l)
);
},
{
closed = 1;
nodes = (
(89,1356,cs),
(89,1250,o),
(170,1176,o),
(287,1176,cs),
(405,1176,o),
(485,1250,o),
(485,1356,cs),
(485,1462,o),
(405,1536,o),
(287,1536,cs),
(170,1536,o),
(89,1462,o)
);
}
);
width = 562.45;
},
{
anchors = (
{
name = bottom;
pos = (190,-459);
},
{
name = bottom_dd;
pos = (491,-407);
},
{
name = top;
pos = (223,1600);
},
{
name = top0315;
pos = (491,1600);
},
{
name = top_dd;
pos = (491,1600);
}
);
layerId = "275CACE8-FD52-4067-B7BC-43A450B7EDC9";
shapes = (
{
closed = 1;
nodes = (
(146,1082,l),
(146,-129,l),
(146,-240,o),
(101,-281,o),
(21,-281,cs),
(-3,-281,o),
(-39,-278,o),
(-64,-272,c),
(-65,-420,l),
(-34,-430,o),
(16,-437,o),
(50,-437,cs),
(240,-437,o),
(333,-328,o),
(333,-129,c),
(333,1082,l)
);
},
{
closed = 1;
nodes = (
(127,1370,cs),
(127,1312,o),
(164,1266,o),
(236,1266,cs),
(308,1266,o),
(347,1312,o),
(347,1370,cs),
(347,1429,o),
(308,1476,o),
(236,1476,cs),
(164,1476,o),
(127,1429,o)
);
}
);
width = 490.5;
}
);
unicode = 106;
},
{
glyphname = k;
lastChange = "2023-09-21 14:36:57 +0000";
layers = (
{
anchors = (
{
name = bottom;
pos = (518,114);
},
{
name = bottom_dd;
pos = (969,-407);
},
{
name = cross;
pos = (342,1289);
},
{
name = marktop;
pos = (544,1612);
},
{
name = top;
pos = (544,1612);
},
{
name = top0315;
pos = (839,1612);
},
{
name = top_dd;
pos = (969,1600);
}
);
layerId = "445B0B85-2678-4800-8A4D-B1A9856CF63B";
shapes = (
{
closed = 1;
nodes = (
(226,1536,l),
(172,1536,l),
(172,0,l),
(226,0,l)
);
},
{
closed = 1;
nodes = (
(922,1082,l),
(845,1082,l),
(353,627,l),
(196,479,l),
(216,440,l),
(383,583,l)
);
},
{
closed = 1;
nodes = (
(883,0,l),
(953,0,l),
(401,650,l),
(366,608,l)
);
}
);
width = 969;
},
{
anchors = (
{
name = bottom;
pos = (587,19);
},
{
name = bottom_dd;
pos = (1133,-407);
},
{
name = cross;
pos = (261,1300);
},
{
name = marktop;
pos = (721,1597);
},
{
name = top;
pos = (721,1597);
},
{
name = top0315;
pos = (1003,1597);
},
{
name = top_dd;
pos = (1133,1600);
}
);
layerId = "20EE6398-45C7-446F-8F4E-C33CF1AD7937";
shapes = (
{
closed = 1;
nodes = (
(452,1537,l),
(91,1537,l),
(91,0,l),
(452,0,l)
);
},
{
closed = 1;
nodes = (
(1144,1082,l),
(713,1082,l),
(478,781,l),
(269,500,l),
(428,272,l),
(679,520,l)
);
},
{
closed = 1;
nodes = (
(756,0,l),
(1168,0,l),
(753,669,l),
(486,482,l)
);
}
);
width = 1132.625;
},
{
anchors = (
{
name = bottom;
pos = (529,71);
},
{
name = bottom_dd;
pos = (1039,-407);
},
{
name = cross;
pos = (249,1289);
},
{
name = marktop;
pos = (549,1611);
},
{
name = top;
pos = (549,1611);
},
{
name = top0315;
pos = (909,1611);
},
{
name = top_dd;
pos = (1039,1600);
}
);
layerId = "275CACE8-FD52-4067-B7BC-43A450B7EDC9";
shapes = (
{
closed = 1;
nodes = (
(328,1536,l),
(141,1536,l),
(141,0,l),
(328,0,l)
);
},
{
closed = 1;
nodes = (
(988,1082,l),
(761,1082,l),
(427,725,l),
(237,500,l),
(252,304,l),
(518,578,l)
);
},
{
closed = 1;
nodes = (
(818,0,l),
(1038,0,l),
(530,681,l),
(433,517,l)
);
}
);
width = 1039.07;
}
);
unicode = 107;
},
{
glyphname = l;
lastChange = "2023-09-21 14:36:57 +0000";
layers = (
{
anchors = (
{
name = bottom;
pos = (214,10);
},
{
name = bottom_dd;
pos = (422,-407);
},
{
name = caron;
pos = (417,1536);
},
{
name = dot;
pos = (397,794);
},
{
name = marktop;
pos = (474,1503);
},
{
name = top;
pos = (214,1673);
},
{
name = top0315;
pos = (422,1673);
},
{
name = top_dd;
pos = (422,1600);
}
);
layerId = "445B0B85-2678-4800-8A4D-B1A9856CF63B";
shapes = (
{
closed = 1;
nodes = (
(239,1536,l),
(185,1536,l),
(185,0,l),
(239,0,l)
);
}
);
width = 422;
},
{
anchors = (
{
name = bottom;
pos = (287,10);
},
{
name = bottom_dd;
pos = (575,-407);
},
{
name = caron;
pos = (569,1536);
},
{
name = dot;
pos = (555,779);
},
{
name = marktop;
pos = (721,1476);
},
{
name = top;
pos = (287,1674);
},
{
name = top0315;
pos = (575,1674);
},
{
name = top_dd;
pos = (575,1600);
}
);
layerId = "20EE6398-45C7-446F-8F4E-C33CF1AD7937";
shapes = (
{
closed = 1;
nodes = (
(468,1536,l),
(107,1536,l),
(107,0,l),
(468,0,l)
);
}
);
width = 574.775;
},
{
anchors = (
{
name = bottom;
pos = (249,10);
},
{
name = bottom_dd;
pos = (498,-407);
},
{
name = caron;
pos = (477,1536);
},
{
name = dot;
pos = (470,776);
},
{
name = marktop;
pos = (564,1539);
},
{
name = top;
pos = (249,1697);
},
{
name = top0315;
pos = (498,1697);
},
{
name = top_dd;
pos = (498,1600);
}
);
layerId = "275CACE8-FD52-4067-B7BC-43A450B7EDC9";
shapes = (
{
closed = 1;
nodes = (
(343,1536,l),
(156,1536,l),
(156,0,l),
(343,0,l)
);
}
);
width = 498.44;
}
);
unicode = 108;
},
{
glyphname = m;
lastChange = "2023-09-21 14:36:57 +0000";
layers = (
{
anchors = (
{
name = bottom;
pos = (918,10);
},
{
name = bottom_dd;
pos = (1836,-407);
},
{
name = marktop;
pos = (916,1290);
},
{
name = top;
pos = (916,1290);
},
{
name = top0315;
pos = (1836,1290);
},
{
name = top_dd;
pos = (1836,1600);
}
);
layerId = "445B0B85-2678-4800-8A4D-B1A9856CF63B";
shapes = (
{
closed = 1;
nodes = (
(216,850,l),
(216,1082,l),
(161,1082,l),
(161,0,l),
(216,0,l)
);
},
{
closed = 1;
nodes = (
(209,634,l),
(218,763,o),
(324,1049,o),
(596,1049,cs),
(768,1049,o),
(892,979,o),
(892,720,cs),
(892,0,l),
(946,0,l),
(946,720,ls),
(946,993,o),
(818,1102,o),
(599,1102,cs),
(364,1102,o),
(207,904,o),
(180,691,c)
);
},
{
closed = 1;
nodes = (
(946,720,l),
(956,836,o),
(1075,1046,o),
(1330,1049,cs),
(1502,1051,o),
(1626,975,o),
(1626,700,cs),
(1626,0,l),
(1680,0,l),
(1680,700,ls),
(1680,987,o),
(1552,1102,o),
(1333,1102,cs),
(1098,1102,o),
(936,936,o),
(909,753,c)
);
}
);
width = 1836;
},
{
anchors = (
{
name = bottom;
pos = (906,10);
},
{
name = bottom_dd;
pos = (1758,-407);
},
{
name = marktop;
pos = (902,1290);
},
{
name = top;
pos = (902,1290);
},
{
name = top0315;
pos = (1758,1290);
},
{
name = top_dd;
pos = (1758,1600);
}
);
layerId = "20EE6398-45C7-446F-8F4E-C33CF1AD7937";
shapes = (
{
closed = 1;
nodes = (
(453,851,l),
(430,1082,l),
(92,1082,l),
(92,0,l),
(453,0,l)
);
},
{
closed = 1;
nodes = (
(409,574,l),
(408,719,o),
(475,812,o),
(581,812,cs),
(657,812,o),
(698,795,o),
(698,671,c),
(698,0,l),
(1059,0,l),
(1059,722,l),
(1059,992,o),
(932,1102,o),
(745,1102,cs),
(471,1102,o),
(326,878,o),
(328,567,c)
);
},
{
closed = 1;
nodes = (
(1017,552,l),
(1017,707,o),
(1071,812,o),
(1188,812,cs),
(1261,812,o),
(1304,792,o),
(1304,675,cs),
(1304,0,l),
(1666,0,l),
(1666,675,ls),
(1666,997,o),
(1525,1102,o),
(1328,1102,cs),
(1053,1102,o),
(917,876,o),
(919,554,c)
);
}
);
width = 1758.225;
},
{
anchors = (
{
name = bottom;
pos = (897,10);
},
{
name = bottom_dd;
pos = (1795,-407);
},
{
name = marktop;
pos = (911,1290);
},
{
name = top;
pos = (911,1290);
},
{
name = top0315;
pos = (1795,1290);
},
{
name = top_dd;
pos = (1795,1600);
}
);
layerId = "275CACE8-FD52-4067-B7BC-43A450B7EDC9";
shapes = (
{
closed = 1;
nodes = (
(326,867,l),
(316,1082,l),
(139,1082,l),
(139,0,l),
(326,0,l)
);
},
{
closed = 1;
nodes = (
(288,583,l),
(289,777,o),
(357,947,o),
(573,947,cs),
(713,947,o),
(804,882,o),
(804,712,c),
(804,0,l),
(991,0,l),
(991,721,l),
(991,992,o),
(843,1102,o),
(641,1102,cs),
(351,1102,o),
(203,882,o),
(201,586,c)
);
},
{
closed = 1;
nodes = (
(989,685,l),
(990,825,o),
(1077,947,o),
(1239,947,cs),
(1379,947,o),
(1469,895,o),
(1469,713,cs),
(1469,0,l),
(1656,0,l),
(1656,711,ls),
(1656,984,o),
(1526,1102,o),
(1294,1102,cs),
(1017,1102,o),
(866,883,o),
(864,647,c)
);
}
);
width = 1795.05;
}
);
unicode = 109;
},
{
glyphname = n;
lastChange = "2023-09-21 14:36:57 +0000";
layers = (
{
anchors = (
{
name = bottom;
pos = (578,10);
},
{
name = bottom_dd;
pos = (1121,-407);
},
{
name = caron;
pos = (0,1536);
},
{
name = marktop;
pos = (578,1290);
},
{
name = right;
pos = (953,0);
},
{
name = top;
pos = (578,1290);
},
{
name = top0315;
pos = (1121,1290);
},
{
name = top_dd;
pos = (1121,1600);
}
);
layerId = "445B0B85-2678-4800-8A4D-B1A9856CF63B";
shapes = (
{
closed = 1;
nodes = (
(226,851,l),
(226,1082,l),
(172,1082,l),
(172,0,l),
(226,0,l)
);
},
{
closed = 1;
nodes = (
(217,634,l),
(226,763,o),
(335,1049,o),
(607,1049,cs),
(779,1049,o),
(900,975,o),
(900,700,cs),
(900,0,l),
(954,0,l),
(954,700,ls),
(954,987,o),
(829,1102,o),
(610,1102,cs),
(375,1102,o),
(215,904,o),
(188,691,c)
);
}
);
width = 1121;
},
{
anchors = (
{
name = bottom;
pos = (579,10);
},
{
name = bottom_dd;
pos = (1159,-407);
},
{
name = caron;
pos = (-108,1533);
},
{
name = marktop;
pos = (578,1290);
},
{
name = right;
pos = (1077,0);
},
{
name = top;
pos = (578,1290);
},
{
name = top0315;
pos = (1159,1290);
},
{
name = top_dd;
pos = (1159,1600);
}
);
layerId = "20EE6398-45C7-446F-8F4E-C33CF1AD7937";
shapes = (
{
closed = 1;
nodes = (
(442,851,l),
(419,1082,l),
(82,1082,l),
(82,0,l),
(442,0,l)
);
},
{
closed = 1;
nodes = (
(400,574,l),
(399,719,o),
(441,812,o),
(569,812,cs),
(660,812,o),
(711,791,o),
(711,676,cs),
(711,0,l),
(1073,0,l),
(1073,675,ls),
(1073,996,o),
(933,1102,o),
(734,1102,cs),
(483,1102,o),
(315,911,o),
(317,567,c)
);
}
);
width = 1158.55;
},
{
anchors = (
{
name = bottom;
pos = (563,10);
},
{
name = bottom_dd;
pos = (1131.01,-407);
},
{
name = caron;
pos = (-28,1539);
},
{
name = marktop;
pos = (573,1290);
},
{
name = right;
pos = (991,0);
},
{
name = top;
pos = (573,1290);
},
{
name = top0315;
pos = (1131.01,1290);
},
{
name = top_dd;
pos = (1131.01,1600);
}
);
layerId = "275CACE8-FD52-4067-B7BC-43A450B7EDC9";
shapes = (
{
closed = 1;
nodes = (
(327,851,l),
(317,1082,l),
(140,1082,l),
(140,0,l),
(327,0,l)
);
},
{
closed = 1;
nodes = (
(283,583,l),
(283,777,o),
(407,947,o),
(590,947,cs),
(730,947,o),
(805,881,o),
(805,711,cs),
(805,0,l),
(992,0,l),
(992,709,ls),
(992,992,o),
(858,1102,o),
(645,1102,cs),
(383,1102,o),
(208,882,o),
(205,586,c)
);
}
);
width = 1131.01;
}
);
unicode = 110;
},
{
glyphname = o;
lastChange = "2023-09-21 14:36:57 +0000";
layers = (
{
anchors = (
{
name = bottom;
pos = (567,-10);
},
{
name = bottom_dd;
pos = (1127,-407);
},
{
name = rhotichook;
pos = (1004,654);
},
{
name = top;
pos = (567,1290);
},
{
name = top0315;
pos = (1127,1290);
},
{
name = top_dd;
pos = (1127,1600);
}
);
layerId = "445B0B85-2678-4800-8A4D-B1A9856CF63B";
shapes = (
{
closed = 1;
nodes = (
(90,520,l),
(90,203,o),
(283,-20,o),
(565,-20,cs),
(846,-20,o),
(1037,203,o),
(1037,520,c),
(1037,562,l),
(1037,879,o),
(846,1102,o),
(563,1102,cs),
(283,1102,o),
(90,879,o),
(90,562,c)
);
},
{
closed = 1;
nodes = (
(144,562,l),
(144,815,o),
(299,1048,o),
(563,1048,cs),
(828,1048,o),
(983,815,o),
(983,562,c),
(983,520,l),
(983,261,o),
(828,34,o),
(565,34,cs),
(299,34,o),
(144,261,o),
(144,520,c)
);
}
);
width = 1127;
},
{
anchors = (
{
name = bottom;
pos = (575,-12);
},
{
name = bottom_dd;
pos = (1152,-407);
},
{
name = rhotichook;
pos = (954,654);
},
{
name = top;
pos = (577,1290);
},
{
name = top0315;
pos = (1152,1290);
},
{
name = top_dd;
pos = (1152,1600);
}
);
layerId = "20EE6398-45C7-446F-8F4E-C33CF1AD7937";
shapes = (
{
closed = 1;
nodes = (
(49,531,l),
(49,214,o),
(232,-20,o),
(576,-20,cs),
(920,-20,o),
(1101,214,o),
(1101,531,c),
(1101,550,l),
(1101,867,o),
(920,1102,o),
(574,1102,cs),
(232,1102,o),
(49,867,o),
(49,550,c)
);
},
{
closed = 1;
nodes = (
(410,550,l),
(410,693,o),
(442,812,o),
(574,812,cs),
(710,812,o),
(741,693,o),
(741,550,c),
(741,531,l),
(741,382,o),
(708,270,o),
(576,270,cs),
(441,270,o),
(410,382,o),
(410,531,c)
);
}
);
width = 1151.95;
},
{
anchors = (
{
name = bottom;
pos = (584,-1);
},
{
name = bottom_dd;
pos = (1169,-407);
},
{
name = rhotichook;
pos = (993.99,654);
},
{
name = top;
pos = (575,1290);
},
{
name = top0315;
pos = (1169,1290);
},
{
name = top_dd;
pos = (1169,1600);
}
);
layerId = "275CACE8-FD52-4067-B7BC-43A450B7EDC9";
shapes = (
{
closed = 1;
nodes = (
(92,529,l),
(92,216,o),
(281,-20,o),
(585,-20,cs),
(889,-20,o),
(1077,216,o),
(1077,529,c),
(1077,552,l),
(1077,865,o),
(889,1102,o),
(583,1102,cs),
(281,1102,o),
(92,865,o),
(92,552,c)
);
},
{
closed = 1;
nodes = (
(279,552,l),
(279,765,o),
(380,952,o),
(583,952,cs),
(788,952,o),
(890,765,o),
(890,552,c),
(890,529,l),
(890,314,o),
(788,130,o),
(585,130,cs),
(380,130,o),
(279,314,o),
(279,529,c)
);
}
);
width = 1168.86;
}
);
unicode = 111;
},
{
glyphname = oslash;
lastChange = "2023-09-21 14:36:57 +0000";
layers = (
{
anchors = (
{
name = top;
pos = (510,1289);
},
{
name = top0315;
pos = (1121,1289);
},
{
name = top_dd;
pos = (1121,1600);
}
);
layerId = "445B0B85-2678-4800-8A4D-B1A9856CF63B";
shapes = (
{
closed = 1;
nodes = (
(931,1219,l),
(868,1219,l),
(205,-145,l),
(268,-145,l)
);
},
{
pos = (-3,0);
ref = o;
}
);
width = 1121;
},
{
anchors = (
{
name = top;
pos = (541,1283);
},
{
name = top0315;
pos = (1154,1283);
},
{
name = top_dd;
pos = (1154,1600);
}
);
layerId = "20EE6398-45C7-446F-8F4E-C33CF1AD7937";
shapes = (
{
closed = 1;
nodes = (
(1002,1221,l),
(815,1221,l),
(152,-147,l),
(339,-147,l)
);
},
{
ref = o;
}
);
userData = {
com.schriftgestaltung.componentsAlignment = (
-1
);
};
width = 1153.6;
},
{
anchors = (
{
name = top;
pos = (537,1289);
},
{
name = top0315;
pos = (1161,1289);
},
{
name = top_dd;
pos = (1161,1600);
}
);
layerId = "275CACE8-FD52-4067-B7BC-43A450B7EDC9";
shapes = (
{
closed = 1;
nodes = (
(984,1209,l),
(860,1209,l),
(197,-135,l),
(321,-135,l)
);
},
{
ref = o;
}
);
userData = {
com.schriftgestaltung.componentsAlignment = (
-1
);
};
width = 1161.04;
}
);
unicode = 248;
},
{
glyphname = oe;
lastChange = "2023-09-21 14:36:57 +0000";
layers = (
{
anchors = (
{
name = bottom;
pos = (974,-10);
},
{
name = bottom_dd;
pos = (1924,-407);
},
{
name = top;
pos = (974,1290);
},
{
name = top0315;
pos = (1924,1290);
},
{
name = top_dd;
pos = (1924,1600);
}
);
layerId = "445B0B85-2678-4800-8A4D-B1A9856CF63B";
shapes = (
{
closed = 1;
nodes = (
(1444,-20,c),
(1615,-20,o),
(1733,32,o),
(1815,123,c),
(1786,165,l),
(1713,81,o),
(1612,34,o),
(1444,34,cs),
(1217,34,o),
(1044,241,o),
(1044,500,cs),
(1044,564,ls),
(1044,832,o),
(1202,1048,o),
(1441,1048,c),
(1658,1048,o),
(1801,881,o),
(1801,664,c),
(1801,631,l),
(1025,631,l),
(1025,577,l),
(1855,577,l),
(1855,660,ls),
(1855,935,o),
(1681,1102,o),
(1441,1102,cs),
(1191,1102,o),
(990,880,o),
(990,564,cs),
(990,500,ls),
(990,198,o),
(1204,-20,o)
);
},
{
closed = 1;
nodes = (
(92,520,l),
(92,203,o),
(285,-20,o),
(567,-20,cs),
(848,-20,o),
(1039,203,o),
(1039,520,c),
(1039,562,l),
(1039,879,o),
(848,1102,o),
(565,1102,cs),
(285,1102,o),
(92,879,o),
(92,562,c)
);
},
{
closed = 1;
nodes = (
(146,562,l),
(146,815,o),
(301,1048,o),
(565,1048,cs),
(830,1048,o),
(985,815,o),
(985,562,c),
(985,520,l),
(985,261,o),
(830,34,o),
(567,34,cs),
(301,34,o),
(146,261,o),
(146,520,c)
);
}
);
width = 1924;
},
{
anchors = (
{
name = bottom;
pos = (916,-12);
},
{
name = bottom_dd;
pos = (1839,-407);
},
{
name = top;
pos = (916,1290);
},
{
name = top0315;
pos = (1839,1290);
},
{
name = top_dd;
pos = (1839,1600);
}
);
layerId = "20EE6398-45C7-446F-8F4E-C33CF1AD7937";
shapes = (
{
closed = 1;
nodes = (
(1309,-20,c),
(1493,-20,o),
(1652,37,o),
(1738,98,c),
(1654,327,l),
(1562,295,o),
(1500,271,o),
(1359,271,cs),
(1205,271,o),
(1139,382,o),
(1139,503,cs),
(1139,538,ls),
(1139,684,o),
(1160,812,o),
(1283,812,c),
(1372,812,o),
(1406,766,o),
(1406,672,c),
(1406,646,l),
(914,646,l),
(914,416,l),
(1758,416,l),
(1758,608,ls),
(1758,913,o),
(1582,1102,o),
(1283,1102,cs),
(944,1104,o),
(779,854,o),
(779,538,cs),
(779,503,ls),
(779,214,o),
(977,-20,o)
);
},
{
closed = 1;
nodes = (
(74,531,l),
(74,214,o),
(258,-20,o),
(603,-20,cs),
(946,-20,o),
(1129,214,o),
(1129,531,c),
(1129,550,l),
(1129,867,o),
(946,1102,o),
(601,1102,cs),
(258,1102,o),
(74,867,o),
(74,550,c)
);
},
{
closed = 1;
nodes = (
(434,550,l),
(434,693,o),
(469,812,o),
(601,812,cs),
(736,812,o),
(769,693,o),
(769,550,c),
(769,531,l),
(769,382,o),
(735,271,o),
(603,271,cs),
(467,271,o),
(434,382,o),
(434,531,c)
);
}
);
userData = {
com.schriftgestaltung.hints = (
{
horizontal = 1;
options = 0;
place = (
-2147483648,
0
);
stem = -2;
type = Tag;
}
);
};
width = 1839.1;
},
{
anchors = (
{
name = bottom;
pos = (945,-1);
},
{
name = bottom_dd;
pos = (1859,-407);
},
{
name = top;
pos = (945,1290);
},
{
name = top0315;
pos = (1859,1290);
},
{
name = top_dd;
pos = (1859,1600);
}
);
layerId = "275CACE8-FD52-4067-B7BC-43A450B7EDC9";
shapes = (
{
closed = 1;
nodes = (
(1378,-21,c),
(1574,-21,o),
(1695,48,o),
(1760,113,c),
(1687,238,l),
(1620,177,o),
(1524,130,o),
(1378,130,cs),
(1178,130,o),
(1075,305,o),
(1075,520,cs),
(1075,564,ls),
(1075,778,o),
(1189,952,o),
(1350,952,c),
(1526,952,o),
(1604,821,o),
(1604,675,c),
(1604,649,l),
(999,649,l),
(999,499,l),
(1791,499,l),
(1791,620,ls),
(1791,902,o),
(1648,1102,o),
(1350,1102,cs),
(1106,1104,o),
(888,880,o),
(888,564,cs),
(888,520,ls),
(888,205,o),
(1078,-21,o)
);
},
{
closed = 1;
nodes = (
(97,529,l),
(97,216,o),
(278,-21,o),
(582,-21,cs),
(885,-21,o),
(1064,216,o),
(1064,529,c),
(1064,552,l),
(1064,865,o),
(885,1102,o),
(580,1102,cs),
(278,1102,o),
(97,865,o),
(97,552,c)
);
},
{
closed = 1;
nodes = (
(284,552,l),
(284,765,o),
(377,952,o),
(580,952,cs),
(785,952,o),
(878,765,o),
(878,552,c),
(878,529,l),
(878,314,o),
(785,130,o),
(582,130,cs),
(377,130,o),
(284,314,o),
(284,529,c)
);
}
);
userData = {
com.schriftgestaltung.hints = (
{
horizontal = 1;
options = 0;
place = (
0,
0
);
stem = -2;
type = Tag;
}
);
};
width = 1859.39;
}
);
unicode = 339;
},
{
glyphname = p;
lastChange = "2023-09-21 14:36:57 +0000";
layers = (
{
anchors = (
{
name = bottom;
pos = (195,-407);
},
{
name = bottom_dd;
pos = (1121,-407);
},
{
name = marktop;
pos = (583,1280);
},
{
name = top;
pos = (583,1280);
},
{
name = top0315;
pos = (1121,1280);
},
{
name = top_dd;
pos = (1121,1600);
}
);
layerId = "445B0B85-2678-4800-8A4D-B1A9856CF63B";
shapes = (
{
closed = 1;
nodes = (
(224,874,l),
(224,1082,l),
(170,1082,l),
(170,-416,l),
(224,-416,l)
);
},
{
closed = 1;
nodes = (
(999,552,l),
(999,893,o),
(848,1102,o),
(591,1102,cs),
(356,1102,o),
(217,948,o),
(170,745,c),
(170,305,l),
(204,133,o),
(349,-20,o),
(593,-20,cs),
(849,-20,o),
(999,201,o),
(999,531,cs)
);
},
{
closed = 1;
nodes = (
(944,531,l),
(944,243,o),
(830,34,o),
(594,34,cs),
(367,34,o),
(242,166,o),
(206,330,c),
(206,709,l),
(235,843,o),
(320,1048,o),
(592,1048,cs),
(830,1048,o),
(944,839,o),
(944,552,cs)
);
}
);
width = 1121;
},
{
anchors = (
{
name = bottom;
pos = (269,-407);
},
{
name = bottom_dd;
pos = (1155,-407);
},
{
name = marktop;
pos = (688,1280);
},
{
name = top;
pos = (688,1280);
},
{
name = top0315;
pos = (1155,1280);
},
{
name = top_dd;
pos = (1155,1600);
}
);
layerId = "20EE6398-45C7-446F-8F4E-C33CF1AD7937";
shapes = (
{
closed = 1;
nodes = (
(452,874,l),
(428,1082,l),
(92,1082,l),
(92,-416,l),
(452,-416,l)
);
},
{
closed = 1;
nodes = (
(1107,555,l),
(1107,883,o),
(961,1102,o),
(685,1102,cs),
(424,1102,o),
(326,851,o),
(282,532,c),
(282,544,l),
(327,247,o),
(425,-20,o),
(686,-20,cs),
(961,-20,o),
(1107,220,o),
(1107,534,cs)
);
},
{
closed = 1;
nodes = (
(747,534,l),
(747,388,o),
(715,270,o),
(596,270,cs),
(458,270,o),
(416,368,o),
(424,521,c),
(424,555,l),
(418,739,o),
(461,812,o),
(594,812,cs),
(710,812,o),
(747,708,o),
(747,555,cs)
);
}
);
width = 1155.4;
},
{
anchors = (
{
name = bottom;
pos = (231,-407);
},
{
name = bottom_dd;
pos = (1150,-407);
},
{
name = marktop;
pos = (629,1280);
},
{
name = top;
pos = (629,1280);
},
{
name = top0315;
pos = (1150,1280);
},
{
name = top_dd;
pos = (1150,1600);
}
);
layerId = "275CACE8-FD52-4067-B7BC-43A450B7EDC9";
shapes = (
{
closed = 1;
nodes = (
(327,874,l),
(310,1082,l),
(140,1082,l),
(140,-416,l),
(327,-416,l)
);
},
{
closed = 1;
nodes = (
(1055,550,l),
(1055,880,o),
(905,1102,o),
(633,1102,cs),
(360,1102,o),
(219,905,o),
(187,588,c),
(187,472,l),
(218,169,o),
(359,-20,o),
(636,-20,cs),
(904,-20,o),
(1055,213,o),
(1055,529,cs)
);
},
{
closed = 1;
nodes = (
(868,529,l),
(868,313,o),
(779,130,o),
(579,130,cs),
(397,130,o),
(318,258,o),
(278,399,c),
(278,660,l),
(308,807,o),
(393,947,o),
(577,947,cs),
(779,947,o),
(868,766,o),
(868,550,cs)
);
}
);
width = 1150.12;
}
);
unicode = 112;
},
{
glyphname = thorn;
lastChange = "2023-09-21 14:36:57 +0000";
layers = (
{
layerId = "445B0B85-2678-4800-8A4D-B1A9856CF63B";
shapes = (
{
closed = 1;
nodes = (
(224,1536,l),
(170,1536,l),
(170,-416,l),
(224,-416,l)
);
},
{
closed = 1;
nodes = (
(999,552,l),
(999,893,o),
(848,1102,o),
(591,1102,cs),
(356,1102,o),
(217,948,o),
(170,745,c),
(170,305,l),
(204,133,o),
(349,-20,o),
(593,-20,cs),
(849,-20,o),
(999,201,o),
(999,531,cs)
);
},
{
closed = 1;
nodes = (
(944,531,l),
(944,243,o),
(830,34,o),
(594,34,cs),
(367,34,o),
(242,166,o),
(206,330,c),
(206,709,l),
(235,843,o),
(320,1048,o),
(592,1048,cs),
(830,1048,o),
(944,839,o),
(944,552,cs)
);
}
);
width = 1121;
},
{
layerId = "20EE6398-45C7-446F-8F4E-C33CF1AD7937";
shapes = (
{
closed = 1;
nodes = (
(451,1536,l),
(89,1536,l),
(89,-416,l),
(451,-416,l)
);
},
{
closed = 1;
nodes = (
(1105,555,l),
(1105,883,o),
(958,1102,o),
(682,1102,cs),
(421,1102,o),
(323,851,o),
(280,532,c),
(280,544,l),
(324,247,o),
(422,-20,o),
(684,-20,cs),
(959,-20,o),
(1105,220,o),
(1105,534,cs)
);
},
{
closed = 1;
nodes = (
(744,534,l),
(744,388,o),
(712,270,o),
(594,270,cs),
(455,270,o),
(413,368,o),
(422,521,c),
(422,555,l),
(415,739,o),
(458,812,o),
(592,812,cs),
(707,812,o),
(744,708,o),
(744,555,cs)
);
}
);
width = 1150.3;
},
{
layerId = "275CACE8-FD52-4067-B7BC-43A450B7EDC9";
shapes = (
{
closed = 1;
nodes = (
(336,1536,l),
(149,1536,l),
(149,-416,l),
(336,-416,l)
);
},
{
closed = 1;
nodes = (
(1065,550,l),
(1065,880,o),
(914,1102,o),
(642,1102,cs),
(369,1102,o),
(228,905,o),
(196,588,c),
(196,472,l),
(227,169,o),
(368,-20,o),
(645,-20,cs),
(913,-20,o),
(1065,213,o),
(1065,529,cs)
);
},
{
closed = 1;
nodes = (
(878,529,l),
(878,313,o),
(788,130,o),
(589,130,cs),
(406,130,o),
(327,258,o),
(287,399,c),
(287,660,l),
(317,807,o),
(402,947,o),
(587,947,cs),
(788,947,o),
(878,766,o),
(878,550,cs)
);
}
);
width = 1181.06;
}
);
unicode = 254;
},
{
glyphname = q;
lastChange = "2023-09-21 14:36:57 +0000";
layers = (
{
anchors = (
{
name = bottom;
pos = (926,-407);
},
{
name = bottom_dd;
pos = (1121,-407);
},
{
name = marktop;
pos = (537,1290);
},
{
name = top;
pos = (537,1290);
},
{
name = top0315;
pos = (1121,1290);
},
{
name = top_dd;
pos = (1121,1600);
}
);
layerId = "445B0B85-2678-4800-8A4D-B1A9856CF63B";
shapes = (
{
closed = 1;
nodes = (
(897,-416,l),
(951,-416,l),
(951,1082,l),
(897,1082,l),
(897,874,l)
);
},
{
closed = 1;
nodes = (
(122,531,l),
(122,201,o),
(272,-20,o),
(528,-20,cs),
(772,-20,o),
(917,133,o),
(951,304,c),
(951,745,l),
(904,948,o),
(766,1102,o),
(530,1102,cs),
(273,1102,o),
(122,893,o),
(122,552,cs)
);
},
{
closed = 1;
nodes = (
(178,552,l),
(178,839,o),
(291,1048,o),
(529,1048,cs),
(798,1048,o),
(889,834,o),
(915,709,c),
(915,329,l),
(879,166,o),
(754,34,o),
(527,34,cs),
(291,34,o),
(178,243,o),
(178,531,cs)
);
}
);
width = 1121;
},
{
anchors = (
{
name = bottom;
pos = (890,-407);
},
{
name = bottom_dd;
pos = (1153,-407);
},
{
name = marktop;
pos = (537,1290);
},
{
name = top;
pos = (537,1290);
},
{
name = top0315;
pos = (1153,1290);
},
{
name = top_dd;
pos = (1153,1600);
}
);
layerId = "20EE6398-45C7-446F-8F4E-C33CF1AD7937";
shapes = (
{
closed = 1;
nodes = (
(702,-416,l),
(1064,-416,l),
(1064,1082,l),
(753,1082,l),
(702,851,l)
);
},
{
closed = 1;
nodes = (
(47,531,l),
(47,217,o),
(192,-20,o),
(466,-20,cs),
(728,-20,o),
(826,245,o),
(872,541,c),
(872,530,l),
(827,848,o),
(729,1102,o),
(468,1102,cs),
(193,1102,o),
(47,880,o),
(47,552,cs)
);
},
{
closed = 1;
nodes = (
(407,552,l),
(407,705,o),
(444,812,o),
(561,812,cs),
(694,812,o),
(737,737,o),
(730,553,c),
(730,519,l),
(739,365,o),
(698,270,o),
(559,270,cs),
(440,270,o),
(407,386,o),
(407,531,cs)
);
}
);
width = 1153;
},
{
anchors = (
{
name = bottom;
pos = (915.99,-407);
},
{
name = bottom_dd;
pos = (1165,-407);
},
{
name = marktop;
pos = (537,1290);
},
{
name = top;
pos = (537,1290);
},
{
name = top0315;
pos = (1165,1290);
},
{
name = top_dd;
pos = (1165,1600);
}
);
layerId = "275CACE8-FD52-4067-B7BC-43A450B7EDC9";
shapes = (
{
closed = 1;
nodes = (
(821,-416,l),
(1008,-416,l),
(1008,1082,l),
(837,1082,l),
(821,874,l)
);
},
{
closed = 1;
nodes = (
(95,529,l),
(95,213,o),
(257,-20,o),
(524,-20,cs),
(799,-20,o),
(939,177,o),
(968,491,c),
(968,588,l),
(938,905,o),
(799,1102,o),
(526,1102,cs),
(255,1102,o),
(95,880,o),
(95,550,cs)
);
},
{
closed = 1;
nodes = (
(282,550,l),
(282,766,o),
(371,952,o),
(573,952,cs),
(758,952,o),
(848,806,o),
(879,660,c),
(879,417,l),
(838,267,o),
(754,130,o),
(571,130,cs),
(371,130,o),
(282,313,o),
(282,529,cs)
);
}
);
width = 1164.68;
}
);
unicode = 113;
},
{
glyphname = r;
lastChange = "2023-09-21 14:36:57 +0000";
layers = (
{
anchors = (
{
name = bottom;
pos = (199,19);
},
{
name = bottom_dd;
pos = (685,-407);
},
{
name = top;
pos = (413,1290);
},
{
name = top0315;
pos = (685,1290);
},
{
name = top_dd;
pos = (685,1600);
}
);
guides = (
{
pos = (0,901);
},
{
pos = (0,555);
}
);
layerId = "445B0B85-2678-4800-8A4D-B1A9856CF63B";
shapes = (
{
closed = 1;
nodes = (
(226,894,l),
(226,1082,l),
(172,1082,l),
(172,0,l),
(226,0,l)
);
},
{
closed = 1;
nodes = (
(655,1091,l),
(638,1097,o),
(612,1102,o),
(579,1102,c),
(309,1102,o),
(179,881,o),
(179,577,c),
(215,580,l),
(215,835,o),
(336,1049,o),
(579,1049,c),
(604,1049,o),
(628,1046,o),
(649,1043,c)
);
}
);
width = 685;
},
{
anchors = (
{
name = bottom;
pos = (271,9);
},
{
name = bottom_dd;
pos = (784,-407);
},
{
name = top;
pos = (413,1290);
},
{
name = top0315;
pos = (784,1290);
},
{
name = top_dd;
pos = (784,1600);
}
);
layerId = "20EE6398-45C7-446F-8F4E-C33CF1AD7937";
shapes = (
{
closed = 1;
nodes = (
(452,793,l),
(428,1082,l),
(92,1082,l),
(92,0,l),
(452,0,l)
);
},
{
closed = 1;
nodes = (
(764,1090,l),
(738,1099,o),
(702,1102,o),
(669,1102,c),
(486,1102,o),
(369,906,o),
(369,612,c),
(432,558,l),
(429,691,o),
(492,746,o),
(644,746,c),
(673,746,o),
(730,740,o),
(758,738,c)
);
}
);
width = 783.95;
},
{
anchors = (
{
name = bottom;
pos = (246,11);
},
{
name = bottom_dd;
pos = (694,-407);
},
{
name = top;
pos = (408,1290);
},
{
name = top0315;
pos = (694,1290);
},
{
name = top_dd;
pos = (694,1600);
}
);
layerId = "275CACE8-FD52-4067-B7BC-43A450B7EDC9";
shapes = (
{
closed = 1;
nodes = (
(327,912,l),
(322,1082,l),
(140,1082,l),
(140,0,l),
(327,0,l)
);
},
{
closed = 1;
nodes = (
(664,1088,l),
(651,1094,o),
(607,1102,o),
(582,1102,c),
(348,1102,o),
(246,884,o),
(246,623,c),
(299,653,l),
(315,811,o),
(402,925,o),
(573,925,c),
(608,925,o),
(632,923,o),
(664,917,c)
);
}
);
width = 694.1;
}
);
unicode = 114;
},
{
glyphname = s;
lastChange = "2023-09-21 14:36:57 +0000";
layers = (
{
anchors = (
{
name = bottom;
pos = (512,-5);
},
{
name = bottom_dd;
pos = (1019,-407);
},
{
name = top;
pos = (512,1290);
},
{
name = top0315;
pos = (1019,1290);
},
{
name = top_dd;
pos = (1019,1600);
}
);
guides = (
{
pos = (0,1658);
},
{
pos = (0,555);
}
);
layerId = "445B0B85-2678-4800-8A4D-B1A9856CF63B";
shapes = (
{
closed = 1;
nodes = (
(839,265,cs),
(839,152,o),
(726,34,o),
(513,34,cs),
(356,34,o),
(175,89,o),
(162,275,c),
(108,275,l),
(108,116,o),
(251,-20,o),
(513,-20,cs),
(746,-20,o),
(893,97,o),
(893,264,c),
(893,434,o),
(783,520,o),
(525,579,cs),
(244,643,o),
(197,720,o),
(197,831,c),
(197,932,o),
(286,1048,o),
(505,1048,cs),
(719,1048,o),
(837,927,o),
(837,793,c),
(892,793,l),
(892,977,o),
(747,1102,o),
(505,1102,cs),
(279,1102,o),
(143,980,o),
(143,829,c),
(143,652,o),
(267,584,o),
(509,532,cs),
(776,474,o),
(839,363,o)
);
}
);
width = 1019;
},
{
anchors = (
{
name = bottom;
pos = (507,-10);
},
{
name = bottom_dd;
pos = (1052,-407);
},
{
name = top;
pos = (507,1290);
},
{
name = top0315;
pos = (1052,1290);
},
{
name = top_dd;
pos = (1052,1600);
}
);
layerId = "20EE6398-45C7-446F-8F4E-C33CF1AD7937";
shapes = (
{
closed = 1;
nodes = (
(647,309,cs),
(647,257,o),
(605,225,o),
(524,225,cs),
(428,225,o),
(368,268,o),
(365,354,c),
(29,354,l),
(29,180,o),
(198,-20,o),
(514,-20,cs),
(808,-20,o),
(994,127,o),
(994,319,c),
(994,561,o),
(786,634,o),
(572,670,cs),
(458,688,o),
(404,720,o),
(404,771,c),
(404,828,o),
(457,858,o),
(514,858,cs),
(604,858,o),
(636,823,o),
(636,745,c),
(996,745,l),
(996,958,o),
(811,1102,o),
(515,1102,cs),
(227,1102,o),
(63,938,o),
(63,752,c),
(63,559,o),
(235,457,o),
(444,412,cs),
(603,377,o),
(647,358,o)
);
}
);
width = 1051.9;
},
{
anchors = (
{
name = bottom;
pos = (563,-10);
},
{
name = bottom_dd;
pos = (1057,-407);
},
{
name = top;
pos = (563,1290);
},
{
name = top0315;
pos = (1057,1290);
},
{
name = top_dd;
pos = (1057,1600);
}
);
layerId = "275CACE8-FD52-4067-B7BC-43A450B7EDC9";
shapes = (
{
closed = 1;
nodes = (
(770,287,cs),
(770,198,o),
(689,130,o),
(538,130,cs),
(423,130,o),
(291,180,o),
(282,333,c),
(95,333,l),
(95,154,o),
(251,-20,o),
(538,-20,cs),
(791,-20,o),
(957,111,o),
(957,300,c),
(957,475,o),
(833,563,o),
(568,624,cs),
(364,669,o),
(319,711,o),
(319,792,c),
(319,871,o),
(380,952,o),
(533,952,cs),
(678,952,o),
(759,854,o),
(759,765,c),
(946,765,l),
(946,951,o),
(793,1102,o),
(533,1102,cs),
(290,1102,o),
(132,957,o),
(132,786,c),
(132,608,o),
(282,525,o),
(522,475,cs),
(735,431,o),
(770,367,o)
);
}
);
width = 1057.22;
}
);
unicode = 115;
},
{
glyphname = germandbls;
lastChange = "2023-09-21 14:36:57 +0000";
layers = (
{
layerId = "445B0B85-2678-4800-8A4D-B1A9856CF63B";
shapes = (
{
closed = 1;
nodes = (
(218,1143,l),
(218,1389,o),
(331,1481,o),
(503,1481,cs),
(625,1481,o),
(744,1384,o),
(744,1259,cs),
(744,1080,o),
(631,1036,o),
(631,831,cs),
(631,585,o),
(1008,536,o),
(1008,306,cs),
(1008,159,o),
(875,32,o),
(687,32,cs),
(581,32,o),
(461,75,o),
(408,117,c),
(383,68,l),
(437,20,o),
(579,-21,o),
(695,-21,cs),
(859,-21,o),
(1062,95,o),
(1062,297,cs),
(1062,569,o),
(685,621,o),
(685,829,cs),
(685,1037,o),
(804,1068,o),
(804,1257,cs),
(804,1425,o),
(651,1535,o),
(493,1535,cs),
(281,1535,o),
(164,1396,o),
(164,1143,cs),
(164,0,l),
(218,0,l)
);
}
);
width = 1183;
},
{
layerId = "20EE6398-45C7-446F-8F4E-C33CF1AD7937";
shapes = (
{
closed = 1;
nodes = (
(493,1087,l),
(493,1236,o),
(544,1274,o),
(620,1274,cs),
(699,1274,o),
(753,1222,o),
(753,1156,cs),
(753,1001,o),
(661,1004,o),
(661,815,cs),
(661,565,o),
(930,523,o),
(930,378,cs),
(930,305,o),
(876,271,o),
(806,271,cs),
(708,271,o),
(640,289,o),
(600,307,c),
(538,25,l),
(594,-5,o),
(704,-20,o),
(803,-20,cs),
(1131,-20,o),
(1289,136,o),
(1289,381,cs),
(1289,627,o),
(1022,736,o),
(1022,838,cs),
(1022,1005,o),
(1115,983,o),
(1115,1171,cs),
(1115,1427,o),
(906,1564,o),
(662,1564,cs),
(332,1564,o),
(133,1404,o),
(133,1094,cs),
(133,0,l),
(493,0,l)
);
}
);
userData = {
com.schriftgestaltung.hints = (
{
horizontal = 1;
options = 0;
place = (
-2147483648,
0
);
stem = -2;
type = Tag;
}
);
};
width = 1342.525;
},
{
layerId = "275CACE8-FD52-4067-B7BC-43A450B7EDC9";
shapes = (
{
closed = 1;
nodes = (
(325,1112,l),
(325,1313,o),
(406,1404,o),
(543,1404,cs),
(652,1404,o),
(734,1335,o),
(734,1202,cs),
(734,1048,o),
(596,983,o),
(596,822,cs),
(596,551,o),
(944,498,o),
(944,308,cs),
(944,209,o),
(882,130,o),
(726,130,cs),
(634,130,o),
(535,177,o),
(489,206,c),
(447,53,l),
(498,15,o),
(636,-20,o),
(746,-20,cs),
(970,-20,o),
(1131,89,o),
(1131,317,cs),
(1131,575,o),
(782,636,o),
(782,820,cs),
(782,958,o),
(910,1003,o),
(910,1217,cs),
(910,1448,o),
(751,1554,o),
(533,1554,cs),
(299,1554,o),
(139,1404,o),
(139,1112,cs),
(139,0,l),
(325,0,l)
);
}
);
userData = {
com.schriftgestaltung.hints = (
{
horizontal = 1;
options = 0;
place = (
-1954210120,
0
);
stem = -2;
type = Tag;
}
);
};
width = 1218.49;
}
);
unicode = 223;
},
{
glyphname = longs;
lastChange = "2023-09-21 14:36:57 +0000";
layers = (
{
anchors = (
{
name = bottom;
pos = (199,10);
},
{
name = top;
pos = (377,1680);
},
{
name = top0315;
pos = (422,1680);
}
);
layerId = "445B0B85-2678-4800-8A4D-B1A9856CF63B";
shapes = (
{
closed = 1;
nodes = (
(228,0,l),
(228,1236,ls),
(228,1405,o),
(315,1503,o),
(457,1503,cs),
(511,1503,o),
(539,1498,o),
(576,1488,c),
(584,1540,l),
(543,1553,o),
(498,1557,o),
(456,1557,cs),
(280,1557,o),
(174,1443,o),
(174,1236,cs),
(174,0,l)
);
}
);
width = 422;
},
{
anchors = (
{
name = bottom;
pos = (288,10);
},
{
name = top;
pos = (359,1646);
},
{
name = top0315;
pos = (548,1646);
}
);
layerId = "20EE6398-45C7-446F-8F4E-C33CF1AD7937";
shapes = (
{
closed = 1;
nodes = (
(448,0,l),
(448,1162,ls),
(448,1230,o),
(493,1267,o),
(573,1267,cs),
(617,1267,o),
(641,1263,o),
(673,1257,c),
(698,1536,l),
(640,1548,o),
(585,1557,o),
(527,1557,cs),
(250,1557,o),
(88,1418,o),
(88,1162,cs),
(88,0,l)
);
}
);
userData = {
com.schriftgestaltung.hints = (
{
horizontal = 1;
options = 0;
place = (
-2147483648,
0
);
stem = -2;
type = Tag;
}
);
};
width = 548.475;
},
{
anchors = (
{
name = bottom;
pos = (248,10);
},
{
name = top;
pos = (429,1753);
},
{
name = top0315;
pos = (509,1753);
}
);
layerId = "275CACE8-FD52-4067-B7BC-43A450B7EDC9";
shapes = (
{
closed = 1;
nodes = (
(347,0,l),
(347,1197,ls),
(347,1328,o),
(411,1407,o),
(529,1407,cs),
(567,1407,o),
(596,1402,o),
(620,1395,c),
(643,1536,l),
(595,1548,o),
(548,1557,o),
(500,1557,cs),
(289,1557,o),
(160,1429,o),
(160,1197,cs),
(160,0,l)
);
}
);
userData = {
com.schriftgestaltung.hints = (
{
horizontal = 1;
options = 0;
place = (
0,
0
);
stem = -2;
type = Tag;
}
);
};
width = 509.36;
}
);
unicode = 383;
},
{
glyphname = t;
lastChange = "2023-09-21 14:36:57 +0000";
layers = (
{
anchors = (
{
name = bottom;
pos = (413,0);
},
{
name = bottom_dd;
pos = (648,-407);
},
{
name = caron;
pos = (479,1560);
},
{
name = cross;
pos = (340,659);
},
{
name = marktop;
pos = (506,1290);
},
{
name = top;
pos = (266,1540);
},
{
name = top0315;
pos = (648,1540);
},
{
name = top_dd;
pos = (648,1600);
}
);
layerId = "445B0B85-2678-4800-8A4D-B1A9856CF63B";
shapes = (
{
closed = 1;
nodes = (
(539,1082,l),
(38,1082,l),
(38,1027,l),
(539,1027,l)
);
},
{
closed = 1;
nodes = (
(238,1374,l),
(238,259,l),
(238,42,o),
(321,-20,o),
(459,-20,cs),
(487,-20,o),
(543,-18,o),
(572,-8,c),
(563,43,l),
(526,38,o),
(497,34,o),
(456,34,cs),
(369,34,o),
(293,69,o),
(293,259,c),
(293,1374,l)
);
}
);
width = 648;
},
{
anchors = (
{
name = bottom;
pos = (421,0);
},
{
name = bottom_dd;
pos = (708,-407);
},
{
name = caron;
pos = (638,1677);
},
{
name = cross;
pos = (322,582);
},
{
name = marktop;
pos = (736,1262);
},
{
name = top;
pos = (351,1471);
},
{
name = top0315;
pos = (708,1471);
},
{
name = top_dd;
pos = (708,1600);
}
);
layerId = "20EE6398-45C7-446F-8F4E-C33CF1AD7937";
shapes = (
{
closed = 1;
nodes = (
(676,1082,l),
(11,1082,l),
(11,822,l),
(676,822,l)
);
},
{
closed = 1;
nodes = (
(143,1351,l),
(143,321,l),
(143,82,o),
(270,-20,o),
(494,-20,cs),
(568,-20,o),
(629,-10,o),
(690,11,c),
(691,279,l),
(669,275,o),
(646,274,o),
(609,274,cs),
(526,274,o),
(503,297,o),
(503,373,c),
(503,1351,l)
);
}
);
width = 708.1;
},
{
anchors = (
{
name = bottom;
pos = (453,0);
},
{
name = bottom_dd;
pos = (670,-407);
},
{
name = caron;
pos = (540,1655);
},
{
name = cross;
pos = (303,674);
},
{
name = marktop;
pos = (570,1357);
},
{
name = top;
pos = (312,1482);
},
{
name = top0315;
pos = (670,1482);
},
{
name = top_dd;
pos = (670,1600);
}
);
layerId = "275CACE8-FD52-4067-B7BC-43A450B7EDC9";
shapes = (
{
closed = 1;
nodes = (
(595,1082,l),
(9,1082,l),
(9,941,l),
(595,941,l)
);
},
{
closed = 1;
nodes = (
(206,1345,l),
(206,269,l),
(206,52,o),
(319,-20,o),
(456,-20,cs),
(522,-20,o),
(570,-9,o),
(599,0,c),
(598,149,l),
(582,145,o),
(543,138,o),
(512,138,cs),
(450,138,o),
(393,156,o),
(393,268,c),
(393,1345,l)
);
}
);
width = 669.84;
}
);
unicode = 116;
},
{
glyphname = u;
lastChange = "2023-09-21 14:36:57 +0000";
layers = (
{
anchors = (
{
name = bottom;
pos = (560,0);
},
{
name = bottom_dd;
pos = (1121,-407);
},
{
name = bottomu;
pos = (514,0);
},
{
name = ogonek;
pos = (951,0);
},
{
name = rhotichook;
pos = (924,654);
},
{
name = top;
pos = (580,1293);
},
{
name = top0315;
pos = (1121,1293);
},
{
name = top_dd;
pos = (1121,1600);
}
);
guides = (
{
pos = (0,202);
},
{
pos = (0,547);
}
);
layerId = "445B0B85-2678-4800-8A4D-B1A9856CF63B";
shapes = (
{
closed = 1;
nodes = (
(897,250,l),
(897,0,l),
(952,0,l),
(952,1082,l),
(897,1082,l)
);
},
{
closed = 1;
nodes = (
(906,423,l),
(906,226,o),
(814,34,o),
(522,34,cs),
(349,34,o),
(222,128,o),
(222,393,c),
(222,1082,l),
(168,1082,l),
(168,395,l),
(168,93,o),
(312,-20,o),
(524,-20,cs),
(822,-20,o),
(952,169,o),
(952,425,c)
);
}
);
width = 1121;
},
{
anchors = (
{
name = bottom;
pos = (578,0);
},
{
name = bottom_dd;
pos = (1159,-407);
},
{
name = bottomu;
pos = (446,0);
},
{
name = ogonek;
pos = (1028,0);
},
{
name = rhotichook;
pos = (932,654);
},
{
name = top;
pos = (576,1290);
},
{
name = top0315;
pos = (1159,1290);
},
{
name = top_dd;
pos = (1159,1600);
}
);
layerId = "20EE6398-45C7-446F-8F4E-C33CF1AD7937";
shapes = (
{
closed = 1;
nodes = (
(713,266,l),
(737,0,l),
(1074,0,l),
(1074,1082,l),
(713,1082,l)
);
},
{
closed = 1;
nodes = (
(747,488,l),
(747,361,o),
(706,270,o),
(565,270,cs),
(484,270,o),
(443,311,o),
(443,379,c),
(443,1082,l),
(83,1082,l),
(83,381,l),
(83,96,o),
(230,-20,o),
(445,-20,cs),
(695,-20,o),
(838,196,o),
(838,490,c)
);
}
);
width = 1158.85;
},
{
anchors = (
{
name = bottom;
pos = (563,0);
},
{
name = bottom_dd;
pos = (1129,-407);
},
{
name = bottomu;
pos = (509,0);
},
{
name = ogonek;
pos = (979,0);
},
{
name = rhotichook;
pos = (920,654);
},
{
name = top;
pos = (567,1290);
},
{
name = top0315;
pos = (1129,1290);
},
{
name = top_dd;
pos = (1129,1600);
}
);
layerId = "275CACE8-FD52-4067-B7BC-43A450B7EDC9";
shapes = (
{
closed = 1;
nodes = (
(802,250,l),
(811,0,l),
(989,0,l),
(989,1082,l),
(802,1082,l)
);
},
{
closed = 1;
nodes = (
(837,478,l),
(837,287,o),
(756,136,o),
(521,136,cs),
(421,136,o),
(323,186,o),
(323,382,c),
(323,1082,l),
(136,1082,l),
(136,384,l),
(136,96,o),
(279,-20,o),
(491,-20,cs),
(802,-20,o),
(915,192,o),
(915,480,c)
);
}
);
width = 1129.19;
}
);
unicode = 117;
},
{
glyphname = v;
lastChange = "2023-09-21 14:36:57 +0000";
layers = (
{
anchors = (
{
name = bottom;
pos = (489,10);
},
{
name = bottom_dd;
pos = (978,-407);
},
{
name = top;
pos = (494,1280);
},
{
name = top0315;
pos = (978,1280);
},
{
name = top_dd;
pos = (978,1600);
}
);
guides = (
{
pos = (0,901);
},
{
pos = (0,555);
}
);
layerId = "445B0B85-2678-4800-8A4D-B1A9856CF63B";
shapes = (
{
closed = 1;
nodes = (
(481,64,l),
(465,0,l),
(516,0,l),
(937,1082,l),
(879,1082,l)
);
},
{
closed = 1;
nodes = (
(101,1082,l),
(43,1082,l),
(463,0,l),
(515,0,l),
(499,63,l)
);
}
);
width = 978;
},
{
anchors = (
{
name = bottom;
pos = (531,10);
},
{
name = bottom_dd;
pos = (1065,-407);
},
{
name = top;
pos = (531,1280);
},
{
name = top0315;
pos = (1065,1280);
},
{
name = top_dd;
pos = (1065,1600);
}
);
layerId = "20EE6398-45C7-446F-8F4E-C33CF1AD7937";
shapes = (
{
closed = 1;
nodes = (
(485,252,l),
(491,0,l),
(715,0,l),
(1063,1082,l),
(684,1082,l)
);
},
{
closed = 1;
nodes = (
(380,1082,l),
(-1,1082,l),
(347,0,l),
(571,0,l),
(575,253,l)
);
}
);
width = 1065.025;
},
{
anchors = (
{
name = bottom;
pos = (504,10);
},
{
name = bottom_dd;
pos = (993,-407);
},
{
name = top;
pos = (505,1280);
},
{
name = top0315;
pos = (993,1280);
},
{
name = top_dd;
pos = (993,1600);
}
);
layerId = "275CACE8-FD52-4067-B7BC-43A450B7EDC9";
shapes = (
{
closed = 1;
nodes = (
(470,166,l),
(441,0,l),
(567,0,l),
(955,1082,l),
(764,1082,l)
);
},
{
closed = 1;
nodes = (
(224,1082,l),
(33,1082,l),
(425,0,l),
(550,0,l),
(528,161,l)
);
}
);
width = 992.56;
}
);
unicode = 118;
},
{
glyphname = w;
lastChange = "2023-09-21 14:36:57 +0000";
layers = (
{
anchors = (
{
name = bottom;
pos = (769,10);
},
{
name = bottom_dd;
pos = (1550,-407);
},
{
name = marktop;
pos = (767,1293);
},
{
name = top;
pos = (767,1293);
},
{
name = top0315;
pos = (1550,1293);
},
{
name = top_dd;
pos = (1550,1600);
}
);
layerId = "445B0B85-2678-4800-8A4D-B1A9856CF63B";
shapes = (
{
closed = 1;
nodes = (
(499,313,l),
(400,0,l),
(451,0,l),
(714,813,l),
(790,1082,l),
(742,1082,l)
);
},
{
closed = 1;
nodes = (
(145,1082,l),
(83,1082,l),
(397,0,l),
(446,0,l),
(366,313,l)
);
},
{
closed = 1;
nodes = (
(1173,313,l),
(1092,0,l),
(1141,0,l),
(1456,1082,l),
(1393,1082,l)
);
},
{
closed = 1;
nodes = (
(797,1082,l),
(749,1082,l),
(820,813,l),
(1087,0,l),
(1138,0,l),
(1039,313,l)
);
}
);
width = 1550;
},
{
anchors = (
{
name = bottom;
pos = (744,10);
},
{
name = bottom_dd;
pos = (1482,-407);
},
{
name = marktop;
pos = (741,1290);
},
{
name = top;
pos = (741,1290);
},
{
name = top0315;
pos = (1482,1290);
},
{
name = top_dd;
pos = (1482,1600);
}
);
layerId = "20EE6398-45C7-446F-8F4E-C33CF1AD7937";
shapes = (
{
closed = 1;
nodes = (
(419,344,l),
(392,0,l),
(571,0,l),
(763,661,l),
(838,1082,l),
(614,1082,l)
);
},
{
closed = 1;
nodes = (
(362,1082,l),
(17,1082,l),
(268,0,l),
(485,0,l),
(477,353,l)
);
},
{
closed = 1;
nodes = (
(1000,371,l),
(994,0,l),
(1212,0,l),
(1461,1082,l),
(1117,1082,l)
);
},
{
closed = 1;
nodes = (
(864,1082,l),
(647,1082,l),
(720,658,l),
(907,0,l),
(1088,0,l),
(1062,344,l)
);
}
);
width = 1481.975;
},
{
anchors = (
{
name = bottom;
pos = (766,10);
},
{
name = bottom_dd;
pos = (1539,-407);
},
{
name = marktop;
pos = (763,1290);
},
{
name = top;
pos = (763,1290);
},
{
name = top0315;
pos = (1539,1290);
},
{
name = top_dd;
pos = (1539,1600);
}
);
layerId = "275CACE8-FD52-4067-B7BC-43A450B7EDC9";
shapes = (
{
closed = 1;
nodes = (
(414,194,l),
(389,0,l),
(508,0,l),
(791,904,l),
(815,1082,l),
(692,1082,l)
);
},
{
closed = 1;
nodes = (
(229,1082,l),
(43,1082,l),
(357,0,l),
(482,0,l),
(466,184,l)
);
},
{
closed = 1;
nodes = (
(1080,190,l),
(1053,0,l),
(1177,0,l),
(1491,1082,l),
(1306,1082,l)
);
},
{
closed = 1;
nodes = (
(843,1082,l),
(712,1082,l),
(735,906,l),
(1026,0,l),
(1145,0,l),
(1115,208,l)
);
}
);
width = 1539.08;
}
);
unicode = 119;
},
{
glyphname = x;
lastChange = "2023-09-21 14:36:57 +0000";
layers = (
{
anchors = (
{
name = bottom;
pos = (514,10);
},
{
name = bottom_dd;
pos = (978,-407);
},
{
name = cross;
pos = (499,553);
},
{
name = right;
pos = (890,0);
},
{
name = top;
pos = (507,1280);
},
{
name = top0315;
pos = (978,1280);
},
{
name = top_dd;
pos = (978,1600);
}
);
guides = (
{
pos = (0,901);
},
{
pos = (0,555);
},
{
angle = 90;
pos = (547,0);
}
);
layerId = "445B0B85-2678-4800-8A4D-B1A9856CF63B";
shapes = (
{
closed = 1;
nodes = (
(143,1082,l),
(75,1082,l),
(455,555,l),
(55,0,l),
(122,0,l),
(488,508,l),
(855,0,l),
(922,0,l),
(522,555,l),
(902,1082,l),
(834,1082,l),
(489,602,l)
);
}
);
width = 978;
},
{
anchors = (
{
name = bottom;
pos = (533,10);
},
{
name = bottom_dd;
pos = (1061,-407);
},
{
name = cross;
pos = (537,551);
},
{
name = right;
pos = (868,0);
},
{
name = top;
pos = (535,1280);
},
{
name = top0315;
pos = (1061,1280);
},
{
name = top_dd;
pos = (1061,1600);
}
);
layerId = "20EE6398-45C7-446F-8F4E-C33CF1AD7937";
shapes = (
{
closed = 1;
nodes = (
(401,1082,l),
(24,1082,l),
(299,556,l),
(8,0,l),
(385,0,l),
(536,294,l),
(690,0,l),
(1066,0,l),
(775,556,l),
(1052,1082,l),
(679,1082,l),
(537,811,l)
);
}
);
width = 1061.125;
},
{
anchors = (
{
name = bottom;
pos = (511,10);
},
{
name = bottom_dd;
pos = (1016,-407);
},
{
name = cross;
pos = (507,553);
},
{
name = right;
pos = (868,0);
},
{
name = top;
pos = (508,1280);
},
{
name = top0315;
pos = (1016,1280);
},
{
name = top_dd;
pos = (1016,1600);
}
);
layerId = "275CACE8-FD52-4067-B7BC-43A450B7EDC9";
shapes = (
{
closed = 1;
nodes = (
(268,1082,l),
(52,1082,l),
(406,548,l),
(41,0,l),
(259,0,l),
(507,407,l),
(756,0,l),
(971,0,l),
(607,548,l),
(960,1082,l),
(742,1082,l),
(504,687,l)
);
}
);
width = 1016.22;
}
);
unicode = 120;
},
{
glyphname = y;
lastChange = "2023-09-21 14:36:57 +0000";
layers = (
{
anchors = (
{
name = bottom;
pos = (717,-158);
},
{
name = bottom_dd;
pos = (978,-407);
},
{
name = marktop;
pos = (519,1293);
},
{
name = rhotichook;
pos = (749,654);
},
{
name = top;
pos = (519,1293);
},
{
name = top0315;
pos = (978,1293);
},
{
name = top_dd;
pos = (978,1600);
}
);
layerId = "445B0B85-2678-4800-8A4D-B1A9856CF63B";
shapes = (
{
closed = 1;
nodes = (
(510,104,l),
(409,-170,ls),
(363,-295,o),
(304,-384,o),
(170,-384,cs),
(157,-384,o),
(117,-380,o),
(97,-375,c),
(98,-426,l),
(114,-433,o),
(156,-437,o),
(178,-437,cs),
(376,-437,o),
(428,-271,o),
(463,-180,cs),
(944,1082,l),
(884,1082,l)
);
},
{
closed = 1;
nodes = (
(102,1082,l),
(43,1082,l),
(485,-21,l),
(528,10,l),
(511,64,l)
);
}
);
width = 978;
},
{
anchors = (
{
name = bottom;
pos = (853,-77);
},
{
name = bottom_dd;
pos = (1069,-407);
},
{
name = marktop;
pos = (529,1290);
},
{
name = rhotichook;
pos = (835,654);
},
{
name = top;
pos = (529,1290);
},
{
name = top0315;
pos = (1069,1290);
},
{
name = top_dd;
pos = (1069,1600);
}
);
layerId = "20EE6398-45C7-446F-8F4E-C33CF1AD7937";
shapes = (
{
closed = 1;
nodes = (
(420,131,l),
(340,-74,ls),
(322,-119,o),
(288,-147,o),
(182,-147,cs),
(166,-147,o),
(157,-148,o),
(141,-148,c),
(141,-416,l),
(205,-433,o),
(216,-437,o),
(285,-437,cs),
(536,-437,o),
(611,-269,o),
(649,-159,cs),
(1080,1082,l),
(694,1082,l)
);
},
{
closed = 1;
nodes = (
(377,1082,l),
(-9,1082,l),
(372,-34,l),
(612,-47,l),
(575,355,l)
);
}
);
width = 1068.925;
},
{
anchors = (
{
name = bottom;
pos = (712,-158);
},
{
name = bottom_dd;
pos = (969,-407);
},
{
name = marktop;
pos = (508,1290);
},
{
name = rhotichook;
pos = (738,654);
},
{
name = top;
pos = (508,1290);
},
{
name = top0315;
pos = (969,1290);
},
{
name = top_dd;
pos = (969,1600);
}
);
layerId = "275CACE8-FD52-4067-B7BC-43A450B7EDC9";
shapes = (
{
closed = 1;
nodes = (
(444,112,l),
(367,-99,ls),
(323,-232,o),
(259,-277,o),
(134,-277,cs),
(124,-277,o),
(95,-274,o),
(84,-272,c),
(84,-421,l),
(104,-427,o),
(159,-437,o),
(189,-437,cs),
(385,-437,o),
(471,-274,o),
(510,-167,cs),
(944,1082,l),
(745,1082,l)
);
},
{
closed = 1;
nodes = (
(226,1082,l),
(22,1082,l),
(419,-21,l),
(553,46,l),
(505,241,l)
);
}
);
width = 968.9;
}
);
unicode = 121;
},
{
glyphname = z;
lastChange = "2023-09-21 14:36:57 +0000";
layers = (
{
anchors = (
{
name = bottom;
pos = (539,10);
},
{
name = bottom_dd;
pos = (978,-407);
},
{
name = top;
pos = (510,1293);
},
{
name = top0315;
pos = (978,1293);
},
{
name = top_dd;
pos = (978,1600);
}
);
layerId = "445B0B85-2678-4800-8A4D-B1A9856CF63B";
shapes = (
{
closed = 1;
nodes = (
(930,54,l),
(102,54,l),
(102,0,l),
(930,0,l)
);
},
{
closed = 1;
nodes = (
(871,1034,l),
(871,1082,l),
(838,1082,l),
(87,44,l),
(87,0,l),
(121,0,l)
);
},
{
closed = 1;
nodes = (
(846,1082,l),
(118,1082,l),
(118,1027,l),
(846,1027,l)
);
}
);
width = 978;
},
{
anchors = (
{
name = bottom;
pos = (525,10);
},
{
name = bottom_dd;
pos = (1061,-407);
},
{
name = top;
pos = (528,1290);
},
{
name = top0315;
pos = (1061,1290);
},
{
name = top_dd;
pos = (1061,1600);
}
);
layerId = "20EE6398-45C7-446F-8F4E-C33CF1AD7937";
shapes = (
{
closed = 1;
nodes = (
(990,290,l),
(150,290,l),
(150,0,l),
(990,0,l)
);
},
{
closed = 1;
nodes = (
(983,883,l),
(983,1082,l),
(735,1082,l),
(65,205,l),
(65,0,l),
(312,0,l)
);
},
{
closed = 1;
nodes = (
(866,1082,l),
(85,1082,l),
(85,792,l),
(866,792,l)
);
}
);
width = 1061.125;
},
{
anchors = (
{
name = bottom;
pos = (525,10);
},
{
name = bottom_dd;
pos = (1016,-407);
},
{
name = top;
pos = (515,1290);
},
{
name = top0315;
pos = (1016,1290);
},
{
name = top_dd;
pos = (1016,1600);
}
);
layerId = "275CACE8-FD52-4067-B7BC-43A450B7EDC9";
shapes = (
{
closed = 1;
nodes = (
(947,150,l),
(160,150,l),
(160,0,l),
(947,0,l)
);
},
{
closed = 1;
nodes = (
(918,952,l),
(918,1082,l),
(800,1082,l),
(89,135,l),
(89,0,l),
(203,0,l)
);
},
{
closed = 1;
nodes = (
(836,1082,l),
(97,1082,l),
(97,931,l),
(836,931,l)
);
}
);
width = 1016.22;
}
);
unicode = 122;
},
{
glyphname = g.alt;
lastChange = "2023-09-21 14:36:57 +0000";
layers = (
{
layerId = "445B0B85-2678-4800-8A4D-B1A9856CF63B";
shapes = (
{
closed = 1;
nodes = (
(147,740,l),
(147,565,o),
(310,419,o),
(532,419,cs),
(753,419,o),
(914,565,o),
(914,740,c),
(914,762,l),
(914,959,o),
(753,1102,o),
(530,1102,cs),
(310,1102,o),
(147,959,o),
(147,762,c)
);
},
{
closed = 1;
nodes = (
(201,762,l),
(201,912,o),
(331,1048,o),
(530,1048,cs),
(730,1048,o),
(860,912,o),
(860,762,c),
(860,740,l),
(860,609,o),
(732,473,o),
(532,473,cs),
(330,473,o),
(201,609,o),
(201,740,c)
);
},
{
closed = 1;
nodes = (
(389,499,l),
(339,465,o),
(248,402,o),
(248,288,cs),
(248,164,o),
(340,124,o),
(429,124,c),
(619,124,l),
(839,124,o),
(935,23,o),
(935,-107,cs),
(935,-232,o),
(778,-384,o),
(494,-384,cs),
(253,-384,o),
(144,-280,o),
(144,-152,cs),
(144,-18,o),
(276,107,o),
(429,125,c),
(428,178,l),
(273,149,o),
(90,34,o),
(90,-152,cs),
(90,-310,o),
(228,-438,o),
(494,-438,cs),
(812,-438,o),
(989,-260,o),
(989,-107,cs),
(989,83,o),
(830,178,o),
(619,178,cs),
(429,178,ls),
(367,178,o),
(302,198,o),
(302,288,cs),
(302,373,o),
(375,425,o),
(411,449,c)
);
},
{
closed = 1;
nodes = (
(978,1082,l),
(640,1082,l),
(660,1028,l),
(980,1028,l)
);
}
);
width = 1076;
},
{
layerId = "20EE6398-45C7-446F-8F4E-C33CF1AD7937";
shapes = (
{
closed = 1;
nodes = (
(21,706,l),
(21,494,o),
(216,330,o),
(521,330,cs),
(825,330,o),
(1018,494,o),
(1018,706,c),
(1018,728,l),
(1018,953,o),
(825,1102,o),
(519,1102,cs),
(216,1102,o),
(21,953,o),
(21,728,c)
);
},
{
closed = 1;
nodes = (
(379,728,l),
(379,793,o),
(429,836,o),
(519,836,cs),
(611,836,o),
(660,793,o),
(660,728,c),
(660,706,l),
(660,644,o),
(613,596,o),
(521,596,cs),
(428,596,o),
(379,644,o),
(379,706,c)
);
},
{
closed = 1;
nodes = (
(373,444,l),
(276,403,o),
(134,338,o),
(134,201,cs),
(134,42,o),
(270,-17,o),
(432,-17,c),
(619,-17,l),
(688,-17,o),
(705,-60,o),
(705,-84,cs),
(705,-128,o),
(654,-173,o),
(494,-173,cs),
(365,-173,o),
(304,-126,o),
(304,-71,cs),
(304,-30,o),
(332,-1,o),
(365,5,c),
(299,111,l),
(151,86,o),
(-30,-2,o),
(-30,-163,cs),
(-30,-309,o),
(154,-438,o),
(494,-438,cs),
(856,-438,o),
(1063,-235,o),
(1063,-60,cs),
(1063,129,o),
(927,249,o),
(691,249,cs),
(500,249,ls),
(427,249,o),
(373,256,o),
(373,314,cs),
(373,360,o),
(424,380,o),
(460,394,c)
);
},
{
closed = 1;
nodes = (
(1063,1082,l),
(663,1082,l),
(672,921,l),
(1065,921,l)
);
}
);
width = 1083.525;
},
{
layerId = "275CACE8-FD52-4067-B7BC-43A450B7EDC9";
shapes = (
{
closed = 1;
nodes = (
(92,722,l),
(92,527,o),
(268,364,o),
(523,364,cs),
(777,364,o),
(950,527,o),
(950,722,c),
(950,744,l),
(950,952,o),
(777,1102,o),
(521,1102,cs),
(268,1102,o),
(92,952,o),
(92,744,c)
);
},
{
closed = 1;
nodes = (
(279,744,l),
(279,856,o),
(377,952,o),
(521,952,cs),
(666,952,o),
(764,856,o),
(764,744,c),
(764,722,l),
(764,618,o),
(668,515,o),
(523,515,cs),
(376,515,o),
(279,618,o),
(279,722,c)
);
},
{
closed = 1;
nodes = (
(316,463,l),
(252,423,o),
(152,358,o),
(152,224,cs),
(152,100,o),
(272,46,o),
(411,46,c),
(619,46,l),
(791,46,o),
(844,-7,o),
(844,-98,cs),
(844,-182,o),
(719,-288,o),
(494,-288,cs),
(304,-288,o),
(217,-214,o),
(217,-125,cs),
(217,-27,o),
(291,50,o),
(374,65,c),
(319,142,l),
(188,114,o),
(30,16,o),
(30,-161,cs),
(30,-309,o),
(193,-438,o),
(494,-438,cs),
(836,-438,o),
(1031,-251,o),
(1031,-98,cs),
(1031,104,o),
(878,196,o),
(619,196,cs),
(447,196,ls),
(376,196,o),
(320,216,o),
(320,279,cs),
(320,354,o),
(375,391,o),
(411,413,c)
);
},
{
closed = 1;
nodes = (
(1040,1082,l),
(649,1082,l),
(660,937,l),
(1042,937,l)
);
}
);
width = 1082.37;
}
);
},
{
glyphname = k.alt;
lastChange = "2023-09-21 14:36:57 +0000";
layers = (
{
anchors = (
{
name = bottom;
pos = (518,114);
},
{
name = cross;
pos = (342,1289);
},
{
name = top;
pos = (544,1612);
},
{
name = top0315;
pos = (969,1612);
}
);
layerId = "445B0B85-2678-4800-8A4D-B1A9856CF63B";
shapes = (
{
closed = 1;
nodes = (
(226,1536,l),
(172,1536,l),
(172,0,l),
(226,0,l)
);
},
{
closed = 1;
nodes = (
(916,1082,l),
(845,1082,l),
(353,607,l),
(194,607,l),
(216,553,l),
(377,553,l)
);
},
{
closed = 1;
nodes = (
(883,0,l),
(953,0,l),
(386,620,l),
(351,578,l)
);
}
);
width = 969;
},
{
anchors = (
{
name = bottom;
pos = (587,19);
},
{
name = cross;
pos = (261,1300);
},
{
name = top;
pos = (721,1597);
},
{
name = top0315;
pos = (1132,1597);
}
);
layerId = "20EE6398-45C7-446F-8F4E-C33CF1AD7937";
shapes = (
{
closed = 1;
nodes = (
(451,1536,l),
(90,1536,l),
(90,0,l),
(451,0,l)
);
},
{
closed = 1;
nodes = (
(1113,1082,l),
(699,1082,l),
(501,695,l),
(203,695,l),
(363,411,l),
(684,411,l)
);
},
{
closed = 1;
nodes = (
(731,0,l),
(1142,0,l),
(751,672,l),
(471,484,l)
);
}
);
width = 1131.725;
},
{
anchors = (
{
name = bottom;
pos = (529,71);
},
{
name = cross;
pos = (249,1289);
},
{
name = top;
pos = (549,1611);
},
{
name = top0315;
pos = (1045,1611);
}
);
layerId = "275CACE8-FD52-4067-B7BC-43A450B7EDC9";
shapes = (
{
closed = 1;
nodes = (
(333,1536,l),
(147,1536,l),
(147,0,l),
(333,0,l)
);
},
{
closed = 1;
nodes = (
(993,1082,l),
(772,1082,l),
(459,654,l),
(245,654,l),
(267,502,l),
(550,502,l)
);
},
{
closed = 1;
nodes = (
(825,0,l),
(1046,0,l),
(553,678,l),
(454,514,l)
);
}
);
width = 1044.53;
}
);
},
{
glyphname = k.alt2;
lastChange = "2023-09-21 14:36:57 +0000";
layers = (
{
layerId = "445B0B85-2678-4800-8A4D-B1A9856CF63B";
shapes = (
{
closed = 1;
nodes = (
(226,1560,l),
(172,1560,l),
(172,0,l),
(226,0,l)
);
},
{
closed = 1;
nodes = (
(846,1082,l),
(773,1082,l),
(246,587,l),
(194,587,l),
(216,533,l),
(267,533,l)
);
},
{
closed = 1;
nodes = (
(801,0,l),
(873,0,l),
(266,596,l),
(231,558,l)
);
}
);
width = 925;
},
{
layerId = "20EE6398-45C7-446F-8F4E-C33CF1AD7937";
shapes = (
{
closed = 1;
nodes = (
(451,1560,l),
(90,1560,l),
(90,0,l),
(451,0,l)
);
},
{
closed = 1;
nodes = (
(1109,1082,l),
(699,1082,l),
(450,696,l),
(203,696,l),
(242,521,l),
(720,521,l)
);
},
{
closed = 1;
nodes = (
(731,0,l),
(1153,0,l),
(686,676,l),
(354,585,l)
);
}
);
width = 1122.775;
},
{
layerId = "275CACE8-FD52-4067-B7BC-43A450B7EDC9";
shapes = (
{
closed = 1;
nodes = (
(333,1560,l),
(147,1560,l),
(147,0,l),
(333,0,l)
);
},
{
closed = 1;
nodes = (
(969,1082,l),
(727,1082,l),
(334,653,l),
(245,653,l),
(267,500,l),
(422,500,l)
);
},
{
closed = 1;
nodes = (
(781,0,l),
(1011,0,l),
(435,658,l),
(327,513,l)
);
}
);
width = 1040.57;
}
);
},
{
glyphname = b.ss06;
lastChange = "2023-09-21 14:36:57 +0000";
layers = (
{
layerId = "445B0B85-2678-4800-8A4D-B1A9856CF63B";
shapes = (
{
closed = 1;
nodes = (
(170,1536,l),
(170,0,l),
(215,0,l),
(224,210,l),
(224,1536,l)
);
},
{
closed = 1;
nodes = (
(1019,552,l),
(1019,893,o),
(848,1102,o),
(591,1102,cs),
(356,1102,o),
(219,948,o),
(172,745,c),
(172,304,l),
(206,133,o),
(349,-21,o),
(593,-21,cs),
(849,-21,o),
(1019,201,o),
(1019,531,cs)
);
},
{
closed = 1;
nodes = (
(963,531,l),
(963,243,o),
(830,33,o),
(594,33,cs),
(367,33,o),
(244,166,o),
(208,329,c),
(208,709,l),
(237,843,o),
(320,1048,o),
(592,1048,cs),
(830,1048,o),
(963,839,o),
(963,552,cs)
);
}
);
width = 1119;
},
{
layerId = "20EE6398-45C7-446F-8F4E-C33CF1AD7937";
shapes = (
{
closed = 1;
nodes = (
(92,1536,l),
(92,0,l),
(404,0,l),
(452,279,l),
(452,1536,l)
);
},
{
closed = 1;
nodes = (
(1127,550,l),
(1127,878,o),
(977,1102,o),
(684,1102,cs),
(424,1102,o),
(324,846,o),
(281,527,c),
(281,539,l),
(325,242,o),
(424,-20,o),
(686,-20,cs),
(977,-20,o),
(1127,215,o),
(1127,529,cs)
);
},
{
closed = 1;
nodes = (
(767,529,l),
(767,383,o),
(733,268,o),
(595,268,cs),
(456,268,o),
(403,361,o),
(410,517,c),
(410,551,l),
(404,734,o),
(459,812,o),
(593,812,cs),
(728,812,o),
(767,701,o),
(767,550,cs)
);
}
);
width = 1182.5;
},
{
layerId = "275CACE8-FD52-4067-B7BC-43A450B7EDC9";
shapes = (
{
closed = 1;
nodes = (
(140,1536,l),
(140,0,l),
(301,0,l),
(327,210,l),
(327,1536,l)
);
},
{
closed = 1;
nodes = (
(1077,551,l),
(1077,881,o),
(906,1102,o),
(635,1102,cs),
(361,1102,o),
(229,905,o),
(197,588,c),
(197,491,l),
(228,177,o),
(361,-20,o),
(637,-20,cs),
(905,-20,o),
(1077,214,o),
(1077,530,cs)
);
},
{
closed = 1;
nodes = (
(890,530,l),
(890,314,o),
(789,136,o),
(590,136,cs),
(407,136,o),
(320,276,o),
(288,417,c),
(288,660,l),
(318,807,o),
(403,947,o),
(588,947,cs),
(789,947,o),
(890,774,o),
(890,551,cs)
);
}
);
width = 1149.94;
}
);
},
{
glyphname = c.ss06;
lastChange = "2023-09-21 14:36:57 +0000";
layers = (
{
layerId = "445B0B85-2678-4800-8A4D-B1A9856CF63B";
shapes = (
{
closed = 1;
nodes = (
(562,33,cs),
(295,33,o),
(154,249,o),
(154,520,cs),
(154,562,ls),
(154,831,o),
(295,1048,o),
(560,1048,c),
(738,1048,o),
(899,940,o),
(909,725,c),
(963,725,l),
(953,973,o),
(769,1102,o),
(560,1102,cs),
(281,1102,o),
(100,879,o),
(100,562,cs),
(100,520,ls),
(100,203,o),
(281,-21,o),
(562,-21,c),
(773,-21,o),
(952,108,o),
(963,328,c),
(909,328,l),
(896,121,o),
(731,33,o)
);
}
);
width = 1062;
},
{
layerId = "20EE6398-45C7-446F-8F4E-C33CF1AD7937";
shapes = (
{
closed = 1;
nodes = (
(579,271,cs),
(448,271,o),
(413,383,o),
(413,531,cs),
(413,550,ls),
(413,694,o),
(449,812,o),
(577,812,c),
(674,812,o),
(722,741,o),
(723,658,c),
(1061,658,l),
(1055,943,o),
(861,1102,o),
(585,1102,cs),
(246,1102,o),
(52,866,o),
(52,550,cs),
(52,531,ls),
(52,215,o),
(246,-20,o),
(588,-20,c),
(852,-20,o),
(1055,143,o),
(1061,397,c),
(723,397,l),
(722,317,o),
(667,271,o)
);
}
);
width = 1108.9;
},
{
layerId = "275CACE8-FD52-4067-B7BC-43A450B7EDC9";
shapes = (
{
closed = 1;
nodes = (
(577,130,cs),
(347,130,o),
(280,329,o),
(280,520,cs),
(280,562,ls),
(280,751,o),
(349,952,o),
(576,952,c),
(724,952,o),
(821,844,o),
(831,710,c),
(1008,710,l),
(998,933,o),
(830,1102,o),
(576,1102,cs),
(251,1102,o),
(93,853,o),
(93,562,cs),
(93,520,ls),
(93,229,o),
(250,-20,o),
(577,-20,c),
(806,-20,o),
(998,149,o),
(1008,342,c),
(831,342,l),
(820,219,o),
(708,130,o)
);
}
);
width = 1074.74;
}
);
},
{
glyphname = d.ss06;
lastChange = "2023-09-21 14:36:57 +0000";
layers = (
{
layerId = "445B0B85-2678-4800-8A4D-B1A9856CF63B";
shapes = (
{
closed = 1;
nodes = (
(895,210,l),
(897,0,l),
(949,0,l),
(949,1536,l),
(895,1536,l)
);
},
{
closed = 1;
nodes = (
(100,531,l),
(100,201,o),
(270,-21,o),
(526,-21,cs),
(770,-21,o),
(911,133,o),
(945,304,c),
(945,745,l),
(898,948,o),
(764,1102,o),
(528,1102,cs),
(271,1102,o),
(100,893,o),
(100,552,cs)
);
},
{
closed = 1;
nodes = (
(156,552,l),
(156,839,o),
(289,1048,o),
(527,1048,cs),
(799,1048,o),
(884,843,o),
(913,709,c),
(913,329,l),
(877,166,o),
(752,33,o),
(525,33,cs),
(289,33,o),
(156,243,o),
(156,531,cs)
);
}
);
width = 1119;
},
{
layerId = "20EE6398-45C7-446F-8F4E-C33CF1AD7937";
shapes = (
{
closed = 1;
nodes = (
(728,257,l),
(776,0,l),
(1090,0,l),
(1090,1536,l),
(728,1536,l)
);
},
{
closed = 1;
nodes = (
(53,530,l),
(53,216,o),
(216,-20,o),
(492,-20,cs),
(740,-20,o),
(856,243,o),
(900,540,c),
(900,528,l),
(857,847,o),
(740,1102,o),
(494,1102,cs),
(217,1102,o),
(53,879,o),
(53,551,cs)
);
},
{
closed = 1;
nodes = (
(413,551,l),
(413,703,o),
(471,812,o),
(587,812,cs),
(704,812,o),
(776,735,o),
(769,552,c),
(769,518,l),
(778,364,o),
(707,270,o),
(585,270,cs),
(466,270,o),
(413,385,o),
(413,530,cs)
);
}
);
width = 1180.125;
},
{
layerId = "275CACE8-FD52-4067-B7BC-43A450B7EDC9";
shapes = (
{
closed = 1;
nodes = (
(839,210,l),
(863,0,l),
(1025,0,l),
(1025,1536,l),
(839,1536,l)
);
},
{
closed = 1;
nodes = (
(91,529,l),
(91,213,o),
(283,-20,o),
(537,-20,cs),
(812,-20,o),
(946,177,o),
(975,491,c),
(975,588,l),
(944,905,o),
(811,1102,o),
(539,1102,cs),
(281,1102,o),
(91,880,o),
(91,550,cs)
);
},
{
closed = 1;
nodes = (
(278,550,l),
(278,773,o),
(384,947,o),
(585,947,cs),
(771,947,o),
(855,807,o),
(886,660,c),
(886,417,l),
(845,267,o),
(767,136,o),
(583,136,cs),
(384,136,o),
(278,313,o),
(278,529,cs)
);
}
);
width = 1171.78;
}
);
},
{
glyphname = g.ss06;
lastChange = "2023-09-21 14:36:57 +0000";
layers = (
{
layerId = "445B0B85-2678-4800-8A4D-B1A9856CF63B";
shapes = (
{
closed = 1;
nodes = (
(903,1082,l),
(894,844,l),
(894,15,ls),
(894,-228,o),
(773,-383,o),
(538,-383,cs),
(418,-383,o),
(336,-362,o),
(242,-320,c),
(225,-367,l),
(314,-412,o),
(440,-436,o),
(540,-436,cs),
(795,-436,o),
(949,-262,o),
(949,15,cs),
(949,1082,l)
);
},
{
closed = 1;
nodes = (
(100,531,l),
(100,201,o),
(270,-21,o),
(526,-21,cs),
(770,-21,o),
(911,133,o),
(945,304,c),
(945,745,l),
(898,948,o),
(763,1102,o),
(528,1102,cs),
(271,1102,o),
(100,893,o),
(100,552,cs)
);
},
{
closed = 1;
nodes = (
(155,552,l),
(155,839,o),
(289,1048,o),
(527,1048,cs),
(799,1048,o),
(880,843,o),
(909,709,c),
(909,329,l),
(873,166,o),
(752,33,o),
(525,33,cs),
(289,33,o),
(155,243,o),
(155,531,cs)
);
}
);
width = 1122;
},
{
layerId = "20EE6398-45C7-446F-8F4E-C33CF1AD7937";
shapes = (
{
closed = 1;
nodes = (
(773,1082,l),
(728,822,l),
(728,91,ls),
(728,-74,o),
(648,-148,o),
(478,-148,cs),
(390,-148,o),
(342,-133,o),
(271,-114,c),
(232,-371,l),
(326,-414,o),
(439,-425,o),
(529,-425,cs),
(874,-425,o),
(1090,-243,o),
(1090,87,cs),
(1090,1082,l)
);
},
{
closed = 1;
nodes = (
(53,531,l),
(53,217,o),
(218,-20,o),
(493,-20,cs),
(755,-20,o),
(854,245,o),
(900,541,c),
(900,530,l),
(855,848,o),
(794,1102,o),
(495,1102,cs),
(218,1102,o),
(53,880,o),
(53,552,cs)
);
},
{
closed = 1;
nodes = (
(413,552,l),
(413,704,o),
(471,812,o),
(587,812,cs),
(721,812,o),
(777,736,o),
(770,553,c),
(770,519,l),
(779,365,o),
(724,270,o),
(585,270,cs),
(466,270,o),
(413,386,o),
(413,531,cs)
);
}
);
width = 1181.1;
},
{
layerId = "275CACE8-FD52-4067-B7BC-43A450B7EDC9";
shapes = (
{
closed = 1;
nodes = (
(868,1082,l),
(838,844,l),
(838,69,ls),
(838,-156,o),
(751,-277,o),
(553,-277,cs),
(448,-277,o),
(334,-241,o),
(252,-185,c),
(196,-322,l),
(300,-394,o),
(449,-427,o),
(555,-427,cs),
(856,-427,o),
(1025,-245,o),
(1025,78,cs),
(1025,1082,l)
);
},
{
closed = 1;
nodes = (
(91,529,l),
(91,213,o),
(276,-20,o),
(536,-20,cs),
(811,-20,o),
(945,177,o),
(975,491,c),
(975,588,l),
(944,905,o),
(810,1102,o),
(538,1102,cs),
(275,1102,o),
(91,880,o),
(91,550,cs)
);
},
{
closed = 1;
nodes = (
(278,550,l),
(278,773,o),
(383,947,o),
(584,947,cs),
(770,947,o),
(854,807,o),
(884,660,c),
(884,417,l),
(844,267,o),
(766,136,o),
(582,136,cs),
(383,136,o),
(278,313,o),
(278,529,cs)
);
}
);
width = 1164.77;
}
);
},
{
glyphname = o.ss06;
lastChange = "2023-09-21 14:36:57 +0000";
layers = (
{
layerId = "445B0B85-2678-4800-8A4D-B1A9856CF63B";
shapes = (
{
closed = 1;
nodes = (
(90,520,l),
(90,203,o),
(294,-21,o),
(565,-21,cs),
(835,-21,o),
(1037,203,o),
(1037,520,c),
(1037,562,l),
(1037,879,o),
(835,1102,o),
(563,1102,cs),
(294,1102,o),
(90,879,o),
(90,562,c)
);
},
{
closed = 1;
nodes = (
(144,562,l),
(144,815,o),
(311,1048,o),
(563,1048,cs),
(816,1048,o),
(983,815,o),
(983,562,c),
(983,520,l),
(983,261,o),
(816,33,o),
(565,33,cs),
(311,33,o),
(144,261,o),
(144,520,c)
);
}
);
width = 1127;
},
{
layerId = "20EE6398-45C7-446F-8F4E-C33CF1AD7937";
shapes = (
{
closed = 1;
nodes = (
(41,531,l),
(41,214,o),
(246,-20,o),
(591,-20,cs),
(935,-20,o),
(1139,214,o),
(1139,531,c),
(1139,550,l),
(1139,867,o),
(935,1102,o),
(589,1102,cs),
(246,1102,o),
(41,867,o),
(41,550,c)
);
},
{
closed = 1;
nodes = (
(401,550,l),
(401,693,o),
(456,812,o),
(589,812,cs),
(725,812,o),
(779,693,o),
(779,550,c),
(779,531,l),
(779,382,o),
(724,271,o),
(591,271,cs),
(455,271,o),
(401,382,o),
(401,531,c)
);
}
);
width = 1180.175;
},
{
layerId = "275CACE8-FD52-4067-B7BC-43A450B7EDC9";
shapes = (
{
closed = 1;
nodes = (
(90,529,l),
(90,216,o),
(289,-20,o),
(592,-20,cs),
(895,-20,o),
(1093,216,o),
(1093,529,c),
(1093,552,l),
(1093,865,o),
(895,1102,o),
(590,1102,cs),
(289,1102,o),
(90,865,o),
(90,552,c)
);
},
{
closed = 1;
nodes = (
(277,552,l),
(277,765,o),
(388,952,o),
(590,952,cs),
(794,952,o),
(907,765,o),
(907,552,c),
(907,529,l),
(907,314,o),
(794,130,o),
(592,130,cs),
(388,130,o),
(277,314,o),
(277,529,c)
);
}
);
width = 1183.42;
}
);
},
{
glyphname = p.ss06;
lastChange = "2023-09-21 14:36:57 +0000";
layers = (
{
layerId = "445B0B85-2678-4800-8A4D-B1A9856CF63B";
shapes = (
{
closed = 1;
nodes = (
(224,874,l),
(212,1082,l),
(170,1082,l),
(170,-416,l),
(224,-416,l)
);
},
{
closed = 1;
nodes = (
(1019,552,l),
(1019,893,o),
(848,1102,o),
(591,1102,cs),
(356,1102,o),
(217,948,o),
(170,745,c),
(170,305,l),
(204,133,o),
(349,-21,o),
(593,-21,cs),
(849,-21,o),
(1019,201,o),
(1019,531,cs)
);
},
{
closed = 1;
nodes = (
(964,531,l),
(964,243,o),
(830,33,o),
(594,33,cs),
(367,33,o),
(242,166,o),
(206,330,c),
(206,709,l),
(235,843,o),
(320,1048,o),
(592,1048,cs),
(830,1048,o),
(964,839,o),
(964,552,cs)
);
}
);
width = 1119;
},
{
layerId = "20EE6398-45C7-446F-8F4E-C33CF1AD7937";
shapes = (
{
closed = 1;
nodes = (
(452,874,l),
(430,1082,l),
(92,1082,l),
(92,-416,l),
(452,-416,l)
);
},
{
closed = 1;
nodes = (
(1127,552,l),
(1127,880,o),
(961,1102,o),
(685,1102,cs),
(424,1102,o),
(326,848,o),
(282,530,c),
(282,542,l),
(327,245,o),
(425,-20,o),
(686,-20,cs),
(961,-20,o),
(1127,217,o),
(1127,531,cs)
);
},
{
closed = 1;
nodes = (
(767,531,l),
(767,386,o),
(715,271,o),
(596,271,cs),
(458,271,o),
(404,365,o),
(412,518,c),
(412,553,l),
(406,736,o),
(461,812,o),
(594,812,cs),
(710,812,o),
(767,704,o),
(767,552,cs)
);
}
);
width = 1179.8;
},
{
layerId = "275CACE8-FD52-4067-B7BC-43A450B7EDC9";
shapes = (
{
closed = 1;
nodes = (
(327,874,l),
(300,1082,l),
(140,1082,l),
(140,-416,l),
(327,-416,l)
);
},
{
closed = 1;
nodes = (
(1075,550,l),
(1075,880,o),
(905,1102,o),
(633,1102,cs),
(360,1102,o),
(219,905,o),
(187,588,c),
(187,472,l),
(218,169,o),
(359,-20,o),
(636,-20,cs),
(904,-20,o),
(1075,213,o),
(1075,529,cs)
);
},
{
closed = 1;
nodes = (
(888,529,l),
(888,313,o),
(779,130,o),
(579,130,cs),
(397,130,o),
(318,258,o),
(278,399,c),
(278,660,l),
(308,807,o),
(393,947,o),
(577,947,cs),
(779,947,o),
(888,773,o),
(888,550,cs)
);
}
);
width = 1166.32;
}
);
},
{
glyphname = q.ss06;
lastChange = "2023-09-21 14:36:57 +0000";
layers = (
{
layerId = "445B0B85-2678-4800-8A4D-B1A9856CF63B";
shapes = (
{
closed = 1;
nodes = (
(895,-416,l),
(949,-416,l),
(949,1082,l),
(900,1082,l),
(895,874,l)
);
},
{
closed = 1;
nodes = (
(100,521,l),
(100,191,o),
(270,-21,o),
(526,-21,cs),
(770,-21,o),
(915,133,o),
(949,304,c),
(949,745,l),
(902,948,o),
(764,1102,o),
(528,1102,cs),
(271,1102,o),
(100,883,o),
(100,542,cs)
);
},
{
closed = 1;
nodes = (
(156,542,l),
(156,829,o),
(289,1048,o),
(527,1048,cs),
(796,1048,o),
(887,834,o),
(913,709,c),
(913,329,l),
(877,166,o),
(752,33,o),
(525,33,cs),
(289,33,o),
(156,233,o),
(156,521,cs)
);
}
);
width = 1119;
},
{
layerId = "20EE6398-45C7-446F-8F4E-C33CF1AD7937";
shapes = (
{
closed = 1;
nodes = (
(728,-416,l),
(1090,-416,l),
(1090,1082,l),
(776,1082,l),
(728,851,l)
);
},
{
closed = 1;
nodes = (
(53,531,l),
(53,217,o),
(218,-20,o),
(492,-20,cs),
(754,-20,o),
(852,243,o),
(898,540,c),
(898,528,l),
(853,847,o),
(754,1102,o),
(494,1102,cs),
(218,1102,o),
(53,880,o),
(53,552,cs)
);
},
{
closed = 1;
nodes = (
(413,552,l),
(413,704,o),
(470,812,o),
(587,812,cs),
(720,812,o),
(774,736,o),
(768,552,c),
(768,518,l),
(777,364,o),
(723,271,o),
(585,271,cs),
(465,271,o),
(413,385,o),
(413,531,cs)
);
}
);
width = 1178.625;
},
{
layerId = "275CACE8-FD52-4067-B7BC-43A450B7EDC9";
shapes = (
{
closed = 1;
nodes = (
(838,-416,l),
(1025,-416,l),
(1025,1082,l),
(863,1082,l),
(838,874,l)
);
},
{
closed = 1;
nodes = (
(91,528,l),
(91,212,o),
(273,-20,o),
(541,-20,cs),
(816,-20,o),
(955,177,o),
(984,491,c),
(984,588,l),
(954,905,o),
(815,1102,o),
(543,1102,cs),
(271,1102,o),
(91,879,o),
(91,549,cs)
);
},
{
closed = 1;
nodes = (
(278,549,l),
(278,773,o),
(387,952,o),
(589,952,cs),
(774,952,o),
(864,806,o),
(895,660,c),
(895,417,l),
(854,267,o),
(770,130,o),
(587,130,cs),
(387,130,o),
(278,312,o),
(278,528,cs)
);
}
);
width = 1180.88;
}
);
},
{
glyphname = e.ss07;
lastChange = "2023-09-21 14:36:57 +0000";
layers = (
{
layerId = "445B0B85-2678-4800-8A4D-B1A9856CF63B";
shapes = (
{
closed = 1;
nodes = (
(561,-21,c),
(731,-21,o),
(837,42,o),
(912,123,c),
(883,165,l),
(783,70,o),
(685,33,o),
(561,33,cs),
(323,33,o),
(141,241,o),
(141,500,cs),
(141,564,ls),
(141,832,o),
(302,1048,o),
(541,1048,c),
(758,1048,o),
(898,881,o),
(898,664,c),
(898,631,l),
(122,631,l),
(122,577,l),
(952,577,l),
(952,660,ls),
(952,935,o),
(781,1102,o),
(541,1102,cs),
(291,1102,o),
(87,880,o),
(87,564,cs),
(87,500,ls),
(87,198,o),
(298,-21,o)
);
}
);
width = 1032;
},
{
layerId = "20EE6398-45C7-446F-8F4E-C33CF1AD7937";
shapes = (
{
closed = 1;
nodes = (
(630,-20,c),
(806,-20,o),
(952,27,o),
(1034,75,c),
(979,329,l),
(903,295,o),
(777,271,o),
(691,271,cs),
(490,271,o),
(419,358,o),
(419,503,cs),
(419,538,ls),
(419,679,o),
(446,812,o),
(586,812,c),
(690,812,o),
(732,767,o),
(732,674,c),
(732,648,l),
(194,648,l),
(194,417,l),
(1084,417,l),
(1084,560,ls),
(1084,895,o),
(899,1102,o),
(586,1102,cs),
(231,1102,o),
(59,850,o),
(59,538,cs),
(59,503,ls),
(59,214,o),
(274,-20,o)
);
}
);
width = 1122.225;
},
{
layerId = "275CACE8-FD52-4067-B7BC-43A450B7EDC9";
shapes = (
{
closed = 1;
nodes = (
(627,-20,c),
(804,-20,o),
(913,42,o),
(972,95,c),
(915,221,l),
(851,172,o),
(758,130,o),
(636,130,cs),
(410,130,o),
(280,305,o),
(280,520,cs),
(280,564,ls),
(280,812,o),
(398,952,o),
(566,952,c),
(755,952,o),
(825,812,o),
(825,666,c),
(825,640,l),
(204,640,l),
(204,490,l),
(1012,490,l),
(1012,611,ls),
(1012,893,o),
(877,1102,o),
(566,1102,cs),
(323,1102,o),
(93,905,o),
(93,564,cs),
(93,520,ls),
(93,205,o),
(303,-20,o)
);
}
);
width = 1086.6;
}
);
},
{
glyphname = g.ss07;
lastChange = "2023-09-21 14:36:57 +0000";
layers = (
{
layerId = "445B0B85-2678-4800-8A4D-B1A9856CF63B";
shapes = (
{
closed = 1;
nodes = (
(904,1082,l),
(895,844,l),
(895,15,ls),
(895,-228,o),
(774,-383,o),
(539,-383,cs),
(419,-383,o),
(337,-362,o),
(243,-320,c),
(227,-374,l),
(316,-415,o),
(441,-436,o),
(541,-436,cs),
(796,-436,o),
(950,-262,o),
(950,15,cs),
(950,1082,l)
);
},
{
closed = 1;
nodes = (
(121,521,l),
(121,191,o),
(271,-21,o),
(527,-21,cs),
(771,-21,o),
(912,133,o),
(946,304,c),
(946,745,l),
(899,948,o),
(764,1102,o),
(529,1102,cs),
(272,1102,o),
(121,883,o),
(121,542,cs)
);
},
{
closed = 1;
nodes = (
(176,542,l),
(176,829,o),
(290,1048,o),
(528,1048,cs),
(800,1048,o),
(881,843,o),
(910,709,c),
(910,329,l),
(874,166,o),
(753,33,o),
(526,33,cs),
(290,33,o),
(176,233,o),
(176,521,cs)
);
}
);
width = 1123;
},
{
layerId = "20EE6398-45C7-446F-8F4E-C33CF1AD7937";
shapes = (
{
closed = 1;
nodes = (
(747,1082,l),
(702,822,l),
(702,94,ls),
(702,-73,o),
(622,-148,o),
(452,-148,cs),
(362,-148,o),
(312,-132,o),
(239,-111,c),
(200,-367,l),
(296,-413,o),
(411,-425,o),
(503,-425,cs),
(849,-425,o),
(1064,-242,o),
(1064,90,cs),
(1064,1082,l)
);
},
{
closed = 1;
nodes = (
(47,532,l),
(47,218,o),
(192,-20,o),
(467,-20,cs),
(729,-20,o),
(828,245,o),
(874,541,c),
(874,530,l),
(829,848,o),
(769,1102,o),
(469,1102,cs),
(192,1102,o),
(47,881,o),
(47,553,cs)
);
},
{
closed = 1;
nodes = (
(407,553,l),
(407,705,o),
(445,812,o),
(562,812,cs),
(695,812,o),
(738,736,o),
(732,553,c),
(732,519,l),
(740,365,o),
(698,270,o),
(560,270,cs),
(440,270,o),
(407,387,o),
(407,532,cs)
);
}
);
width = 1183.425;
},
{
layerId = "275CACE8-FD52-4067-B7BC-43A450B7EDC9";
shapes = (
{
closed = 1;
nodes = (
(853,1082,l),
(824,844,l),
(824,50,ls),
(824,-162,o),
(737,-277,o),
(538,-277,cs),
(446,-277,o),
(347,-248,o),
(274,-204,c),
(218,-341,l),
(311,-400,o),
(446,-427,o),
(540,-427,cs),
(842,-427,o),
(1011,-251,o),
(1011,60,cs),
(1011,1082,l)
);
},
{
closed = 1;
nodes = (
(96,528,l),
(96,212,o),
(262,-20,o),
(522,-20,cs),
(796,-20,o),
(930,177,o),
(961,491,c),
(961,588,l),
(929,905,o),
(796,1102,o),
(524,1102,cs),
(260,1102,o),
(96,879,o),
(96,549,cs)
);
},
{
closed = 1;
nodes = (
(283,549,l),
(283,773,o),
(368,947,o),
(570,947,cs),
(755,947,o),
(839,807,o),
(870,660,c),
(870,417,l),
(829,267,o),
(751,136,o),
(568,136,cs),
(368,136,o),
(283,312,o),
(283,528,cs)
);
}
);
width = 1150.3;
}
);
},
{
glyphname = f_f_i;
lastChange = "2023-09-21 14:36:57 +0000";
layers = (
{
layerId = "445B0B85-2678-4800-8A4D-B1A9856CF63B";
shapes = (
{
closed = 1;
nodes = (
(308,0,l),
(308,1236,l),
(308,1405,o),
(396,1503,o),
(538,1503,cs),
(592,1503,o),
(619,1498,o),
(657,1488,c),
(665,1540,l),
(623,1553,o),
(578,1557,o),
(537,1557,cs),
(361,1557,o),
(254,1443,o),
(254,1236,c),
(254,0,l)
);
},
{
closed = 1;
nodes = (
(694,1082,l),
(66,1082,l),
(66,1027,l),
(694,1027,l)
);
},
{
closed = 1;
nodes = (
(884,0,l),
(884,1216,l),
(884,1398,o),
(988,1503,o),
(1154,1503,cs),
(1271,1503,o),
(1333,1484,o),
(1413,1448,c),
(1421,1500,l),
(1330,1543,o),
(1236,1557,o),
(1153,1557,cs),
(953,1557,o),
(830,1436,o),
(830,1216,c),
(830,0,l)
);
},
{
closed = 1;
nodes = (
(1170,1082,l),
(642,1082,l),
(642,1027,l),
(1170,1027,l)
);
},
{
closed = 1;
nodes = (
(1460,1082,l),
(1406,1082,l),
(1406,0,l),
(1460,0,l)
);
}
);
width = 1643;
},
{
layerId = "20EE6398-45C7-446F-8F4E-C33CF1AD7937";
shapes = (
{
closed = 1;
nodes = (
(524,0,l),
(524,1162,l),
(524,1230,o),
(576,1268,o),
(670,1268,cs),
(705,1268,o),
(728,1265,o),
(751,1259,c),
(749,1535,l),
(699,1547,o),
(647,1557,o),
(587,1557,cs),
(327,1557,o),
(162,1418,o),
(162,1162,c),
(162,0,l)
);
},
{
closed = 1;
nodes = (
(721,1082,l),
(8,1082,l),
(8,822,l),
(721,822,l)
);
},
{
closed = 1;
nodes = (
(1212,0,l),
(1212,1093,l),
(1212,1190,o),
(1281,1244,o),
(1399,1244,cs),
(1530,1244,o),
(1608,1222,o),
(1687,1202,c),
(1737,1499,l),
(1613,1533,o),
(1502,1557,o),
(1377,1557,cs),
(1042,1557,o),
(851,1394,o),
(851,1093,c),
(851,0,l)
);
},
{
closed = 1;
nodes = (
(1418,1082,l),
(697,1082,l),
(697,822,l),
(1418,822,l)
);
},
{
closed = 1;
nodes = (
(1901,1082,l),
(1539,1082,l),
(1539,0,l),
(1901,0,l)
);
}
);
width = 2006.425;
},
{
layerId = "275CACE8-FD52-4067-B7BC-43A450B7EDC9";
shapes = (
{
closed = 1;
nodes = (
(418,0,l),
(418,1197,l),
(418,1328,o),
(487,1400,o),
(605,1400,cs),
(640,1400,o),
(677,1397,o),
(705,1392,c),
(715,1541,l),
(674,1551,o),
(630,1557,o),
(588,1557,cs),
(366,1557,o),
(231,1429,o),
(231,1197,c),
(231,0,l)
);
},
{
closed = 1;
nodes = (
(657,1082,l),
(61,1082,l),
(61,941,l),
(657,941,l)
);
},
{
closed = 1;
nodes = (
(1003,0,l),
(1003,1177,l),
(1003,1321,o),
(1068,1392,o),
(1227,1392,cs),
(1322,1392,o),
(1405,1366,o),
(1465,1342,c),
(1497,1496,l),
(1399,1531,o),
(1310,1557,o),
(1213,1557,cs),
(968,1557,o),
(816,1422,o),
(816,1177,c),
(816,0,l)
);
},
{
closed = 1;
nodes = (
(1224,1082,l),
(646,1082,l),
(646,941,l),
(1224,941,l)
);
},
{
closed = 1;
nodes = (
(1588,1082,l),
(1401,1082,l),
(1401,0,l),
(1588,0,l)
);
}
);
width = 1749.47;
}
);
},
{
glyphname = f_f_l;
lastChange = "2023-09-21 14:36:57 +0000";
layers = (
{
layerId = "445B0B85-2678-4800-8A4D-B1A9856CF63B";
shapes = (
{
closed = 1;
nodes = (
(308,0,l),
(308,1236,l),
(308,1405,o),
(396,1503,o),
(538,1503,cs),
(592,1503,o),
(619,1498,o),
(657,1488,c),
(665,1540,l),
(623,1553,o),
(578,1557,o),
(537,1557,cs),
(361,1557,o),
(254,1443,o),
(254,1236,c),
(254,0,l)
);
},
{
closed = 1;
nodes = (
(704,1082,l),
(66,1082,l),
(66,1027,l),
(704,1027,l)
);
},
{
closed = 1;
nodes = (
(884,0,l),
(884,1236,l),
(884,1405,o),
(972,1503,o),
(1114,1503,cs),
(1218,1503,o),
(1318,1480,o),
(1422,1457,c),
(1460,1496,l),
(1343,1529,o),
(1209,1557,o),
(1113,1557,cs),
(937,1557,o),
(830,1443,o),
(830,1236,c),
(830,0,l)
);
},
{
closed = 1;
nodes = (
(1406,0,l),
(1460,0,l),
(1460,1496,l),
(1406,1496,l)
);
},
{
closed = 1;
nodes = (
(1170,1082,l),
(642,1082,l),
(642,1027,l),
(1170,1027,l)
);
}
);
width = 1643;
},
{
layerId = "20EE6398-45C7-446F-8F4E-C33CF1AD7937";
shapes = (
{
closed = 1;
nodes = (
(524,0,l),
(524,1162,l),
(524,1230,o),
(576,1268,o),
(670,1268,cs),
(705,1268,o),
(728,1265,o),
(751,1259,c),
(749,1535,l),
(699,1547,o),
(647,1557,o),
(587,1557,cs),
(327,1557,o),
(162,1418,o),
(162,1162,c),
(162,0,l)
);
},
{
closed = 1;
nodes = (
(720,1082,l),
(8,1082,l),
(8,822,l),
(720,822,l)
);
},
{
closed = 1;
nodes = (
(1212,0,l),
(1212,1137,l),
(1212,1222,o),
(1281,1268,o),
(1406,1268,cs),
(1521,1268,o),
(1637,1254,o),
(1757,1237,c),
(1901,1545,l),
(1759,1549,o),
(1485,1557,o),
(1349,1557,cs),
(1034,1557,o),
(851,1410,o),
(851,1137,c),
(851,0,l)
);
},
{
closed = 1;
nodes = (
(1539,0,l),
(1901,0,l),
(1901,1545,l),
(1539,1545,l)
);
},
{
closed = 1;
nodes = (
(1417,1082,l),
(697,1082,l),
(697,822,l),
(1417,822,l)
);
}
);
width = 2006.425;
},
{
layerId = "275CACE8-FD52-4067-B7BC-43A450B7EDC9";
shapes = (
{
closed = 1;
nodes = (
(418,0,l),
(418,1197,l),
(418,1328,o),
(487,1400,o),
(605,1400,cs),
(640,1400,o),
(677,1397,o),
(705,1392,c),
(715,1541,l),
(674,1551,o),
(630,1557,o),
(588,1557,cs),
(366,1557,o),
(231,1429,o),
(231,1197,c),
(231,0,l)
);
},
{
closed = 1;
nodes = (
(658,1082,l),
(61,1082,l),
(61,941,l),
(658,941,l)
);
},
{
closed = 1;
nodes = (
(1003,0,l),
(1003,1197,l),
(1003,1328,o),
(1072,1400,o),
(1202,1400,cs),
(1273,1400,o),
(1374,1387,o),
(1502,1363,c),
(1588,1496,l),
(1444,1525,o),
(1275,1557,o),
(1188,1557,cs),
(952,1557,o),
(816,1429,o),
(816,1197,c),
(816,0,l)
);
},
{
closed = 1;
nodes = (
(1401,0,l),
(1588,0,l),
(1588,1496,l),
(1401,1496,l)
);
},
{
closed = 1;
nodes = (
(1233,1082,l),
(646,1082,l),
(646,941,l),
(1233,941,l)
);
}
);
width = 1749.47;
}
);
},
{
glyphname = f_l;
lastChange = "2023-09-21 14:36:57 +0000";
layers = (
{
layerId = "445B0B85-2678-4800-8A4D-B1A9856CF63B";
shapes = (
{
closed = 1;
nodes = (
(308,0,l),
(308,1236,l),
(308,1405,o),
(396,1503,o),
(538,1503,cs),
(642,1503,o),
(742,1480,o),
(846,1457,c),
(884,1496,l),
(767,1529,o),
(633,1557,o),
(537,1557,cs),
(361,1557,o),
(254,1443,o),
(254,1236,c),
(254,0,l)
);
},
{
closed = 1;
nodes = (
(830,0,l),
(884,0,l),
(884,1496,l),
(830,1496,l)
);
},
{
closed = 1;
nodes = (
(594,1082,l),
(66,1082,l),
(66,1027,l),
(594,1027,l)
);
}
);
width = 1067;
},
{
layerId = "20EE6398-45C7-446F-8F4E-C33CF1AD7937";
shapes = (
{
closed = 1;
nodes = (
(524,0,l),
(524,1137,l),
(524,1222,o),
(593,1268,o),
(717,1268,cs),
(833,1268,o),
(949,1254,o),
(1068,1237,c),
(1212,1545,l),
(1070,1549,o),
(796,1557,o),
(661,1557,cs),
(345,1557,o),
(162,1410,o),
(162,1137,c),
(162,0,l)
);
},
{
closed = 1;
nodes = (
(851,0,l),
(1212,0,l),
(1212,1545,l),
(851,1545,l)
);
},
{
closed = 1;
nodes = (
(728,1082,l),
(8,1082,l),
(8,822,l),
(728,822,l)
);
}
);
width = 1318;
},
{
layerId = "275CACE8-FD52-4067-B7BC-43A450B7EDC9";
shapes = (
{
closed = 1;
nodes = (
(418,0,l),
(418,1197,l),
(418,1328,o),
(487,1400,o),
(617,1400,cs),
(688,1400,o),
(789,1387,o),
(917,1363,c),
(1003,1496,l),
(859,1525,o),
(690,1557,o),
(603,1557,cs),
(366,1557,o),
(231,1429,o),
(231,1197,c),
(231,0,l)
);
},
{
closed = 1;
nodes = (
(816,0,l),
(1003,0,l),
(1003,1496,l),
(816,1496,l)
);
},
{
closed = 1;
nodes = (
(648,1082,l),
(61,1082,l),
(61,941,l),
(648,941,l)
);
}
);
width = 1164.37;
}
);
},
{
glyphname = fi;
lastChange = "2023-09-21 14:36:57 +0000";
layers = (
{
layerId = "445B0B85-2678-4800-8A4D-B1A9856CF63B";
shapes = (
{
closed = 1;
nodes = (
(308,0,l),
(308,1216,l),
(308,1398,o),
(412,1503,o),
(578,1503,cs),
(695,1503,o),
(757,1484,o),
(837,1448,c),
(845,1500,l),
(754,1543,o),
(660,1557,o),
(577,1557,cs),
(377,1557,o),
(254,1436,o),
(254,1216,c),
(254,0,l)
);
},
{
closed = 1;
nodes = (
(594,1082,l),
(66,1082,l),
(66,1027,l),
(594,1027,l)
);
},
{
closed = 1;
nodes = (
(884,1082,l),
(830,1082,l),
(830,0,l),
(884,0,l)
);
}
);
width = 1067;
},
{
layerId = "20EE6398-45C7-446F-8F4E-C33CF1AD7937";
shapes = (
{
closed = 1;
nodes = (
(529,0,l),
(529,1093,l),
(529,1190,o),
(597,1244,o),
(716,1244,cs),
(846,1244,o),
(924,1222,o),
(1004,1202,c),
(1053,1499,l),
(929,1533,o),
(818,1557,o),
(693,1557,cs),
(359,1557,o),
(167,1394,o),
(167,1093,c),
(167,0,l)
);
},
{
closed = 1;
nodes = (
(735,1082,l),
(13,1082,l),
(13,822,l),
(735,822,l)
);
},
{
closed = 1;
nodes = (
(1217,1082,l),
(855,1082,l),
(855,0,l),
(1217,0,l)
);
}
);
userData = {
com.schriftgestaltung.hints = (
{
horizontal = 1;
options = 0;
place = (
-2147483648,
0
);
stem = -2;
type = Tag;
}
);
};
width = 1322.8;
},
{
layerId = "275CACE8-FD52-4067-B7BC-43A450B7EDC9";
shapes = (
{
closed = 1;
nodes = (
(389,0,l),
(389,1177,l),
(389,1321,o),
(454,1392,o),
(613,1392,cs),
(708,1392,o),
(791,1366,o),
(851,1342,c),
(882,1496,l),
(785,1531,o),
(695,1557,o),
(599,1557,cs),
(353,1557,o),
(202,1422,o),
(202,1177,c),
(202,0,l)
);
},
{
closed = 1;
nodes = (
(609,1082,l),
(31,1082,l),
(31,941,l),
(609,941,l)
);
},
{
closed = 1;
nodes = (
(974,1082,l),
(787,1082,l),
(787,0,l),
(974,0,l)
);
}
);
userData = {
com.schriftgestaltung.hints = (
{
horizontal = 1;
options = 0;
place = (
0,
0
);
stem = -2;
type = Tag;
}
);
};
width = 1135.25;
}
);
unicode = 64257;
},
{
glyphname = longs_t;
lastChange = "2023-09-21 14:40:03 +0000";
layers = (
{
layerId = "445B0B85-2678-4800-8A4D-B1A9856CF63B";
shapes = (
{
closed = 1;
nodes = (
(294,1082,l),
(66,1082,l),
(66,1027,l),
(294,1027,l)
);
},
{
closed = 1;
nodes = (
(536,1557,cs),
(360,1557,o),
(254,1443,o),
(254,1236,cs),
(254,0,l),
(308,0,l),
(308,1236,ls),
(308,1405,o),
(395,1503,o),
(537,1503,cs),
(609,1503,o),
(707,1481,o),
(757,1452,c),
(757,1279,l),
(812,1279,l),
(812,1488,l),
(738,1525,o),
(636,1557,o)
);
},
{
pos = (519,0);
ref = t;
}
);
width = 1167;
},
{
layerId = "20EE6398-45C7-446F-8F4E-C33CF1AD7937";
shapes = (
{
closed = 1;
nodes = (
(422,1082,l),
(8,1082,l),
(8,822,l),
(422,822,l)
);
},
{
closed = 1;
nodes = (
(601,1557,cs),
(324,1557,o),
(162,1418,o),
(162,1162,cs),
(162,0,l),
(523,0,l),
(523,1162,ls),
(523,1230,o),
(567,1267,o),
(647,1267,cs),
(729,1267,o),
(785,1252,o),
(805,1245,c),
(805,1240,l),
(1165,1240,l),
(1165,1445,l),
(1027,1488,o),
(837,1557,o)
);
},
{
pos = (662,0);
ref = t;
}
);
userData = {
com.schriftgestaltung.componentsAlignment = (
-1
);
com.schriftgestaltung.hints = (
{
horizontal = 1;
options = 0;
place = (
-2147483648,
0
);
stem = -2;
type = Tag;
}
);
};
width = 1367.925;
},
{
layerId = "275CACE8-FD52-4067-B7BC-43A450B7EDC9";
shapes = (
{
closed = 1;
nodes = (
(387,1082,l),
(61,1082,l),
(61,941,l),
(387,941,l)
);
},
{
closed = 1;
nodes = (
(571,1557,cs),
(360,1557,o),
(231,1429,o),
(231,1197,cs),
(231,0,l),
(418,0,l),
(418,1197,ls),
(418,1328,o),
(481,1407,o),
(600,1407,cs),
(660,1407,o),
(747,1391,o),
(787,1370,c),
(787,1248,l),
(974,1248,l),
(974,1457,l),
(850,1518,o),
(689,1557,o)
);
},
{
pos = (581,0);
ref = t;
}
);
userData = {
com.schriftgestaltung.componentsAlignment = (
-1
);
com.schriftgestaltung.hints = (
{
horizontal = 1;
options = 0;
place = (
0,
0
);
stem = -2;
type = Tag;
}
);
};
width = 1263.46;
}
);
},
{
glyphname = s_t;
lastChange = "2023-09-21 14:40:03 +0000";
layers = (
{
layerId = "445B0B85-2678-4800-8A4D-B1A9856CF63B";
shapes = (
{
closed = 1;
nodes = (
(892,793,l),
(892,974,o),
(766,1019,o),
(766,1226,cs),
(766,1353,o),
(848,1431,o),
(972,1431,cs),
(1151,1431,o),
(1218,1316,o),
(1218,1144,c),
(1273,1144,l),
(1273,1325,o),
(1206,1484,o),
(973,1484,cs),
(833,1484,o),
(713,1392,o),
(713,1226,cs),
(713,1089,o),
(783,994,o),
(867,793,c)
);
},
{
closed = 1;
nodes = (
(1519,1082,l),
(1018,1082,l),
(1018,1027,l),
(1519,1027,l)
);
},
{
closed = 1;
nodes = (
(1218,1144,l),
(1218,279,ls),
(1218,62,o),
(1301,-21,o),
(1439,-21,cs),
(1475,-21,o),
(1516,-20,o),
(1553,-7,c),
(1543,42,l),
(1506,37,o),
(1477,33,o),
(1436,33,cs),
(1349,33,o),
(1273,89,o),
(1273,279,cs),
(1273,1144,l)
);
},
{
ref = s;
}
);
width = 1629;
},
{
layerId = "20EE6398-45C7-446F-8F4E-C33CF1AD7937";
shapes = (
{
closed = 1;
nodes = (
(996,745,l),
(996,935,o),
(923,1014,o),
(923,1168,cs),
(923,1230,o),
(950,1314,o),
(1061,1314,cs),
(1118,1314,o),
(1213,1295,o),
(1213,1174,c),
(1573,1174,l),
(1573,1398,o),
(1433,1566,o),
(1073,1566,cs),
(760,1566,o),
(616,1428,o),
(616,1265,cs),
(616,1110,o),
(732,1004,o),
(834,745,c)
);
},
{
closed = 1;
nodes = (
(1746,1082,l),
(1079,1082,l),
(1079,822,l),
(1746,822,l)
);
},
{
closed = 1;
nodes = (
(1213,1174,l),
(1213,364,ls),
(1213,93,o),
(1340,-20,o),
(1564,-20,cs),
(1637,-20,o),
(1700,-10,o),
(1760,11,c),
(1761,279,l),
(1739,275,o),
(1716,274,o),
(1678,274,cs),
(1596,274,o),
(1573,298,o),
(1573,367,cs),
(1573,1174,l)
);
},
{
ref = s;
}
);
userData = {
com.schriftgestaltung.componentsAlignment = (
-1
);
};
width = 1777.9;
},
{
layerId = "275CACE8-FD52-4067-B7BC-43A450B7EDC9";
shapes = (
{
closed = 1;
nodes = (
(947,765,l),
(947,976,o),
(849,1081,o),
(849,1241,cs),
(849,1334,o),
(911,1399,o),
(1028,1399,cs),
(1171,1399,o),
(1228,1304,o),
(1228,1168,c),
(1415,1168,l),
(1415,1334,o),
(1348,1553,o),
(1029,1553,cs),
(815,1553,o),
(670,1427,o),
(670,1264,cs),
(670,1111,o),
(778,959,o),
(843,765,c)
);
},
{
closed = 1;
nodes = (
(1616,1082,l),
(1040,1082,l),
(1040,941,l),
(1616,941,l)
);
},
{
closed = 1;
nodes = (
(1228,1169,l),
(1228,298,ls),
(1228,68,o),
(1341,-20,o),
(1478,-20,cs),
(1545,-20,o),
(1592,-9,o),
(1621,0,c),
(1620,149,l),
(1603,145,o),
(1564,138,o),
(1533,138,cs),
(1472,138,o),
(1415,171,o),
(1415,297,cs),
(1415,1169,l)
);
},
{
ref = s;
}
);
userData = {
com.schriftgestaltung.componentsAlignment = (
-1
);
};
width = 1691.79;
}
);
},
{
glyphname = A.smcp;
lastChange = "2023-09-21 14:36:57 +0000";
layers = (
{
anchors = (
{
name = bottom;
pos = (551,0);
},
{
name = bottom_dd;
pos = (1058,-407);
},
{
name = ogonek;
pos = (1027,0);
},
{
name = right;
pos = (1029,0);
},
{
name = tonos;
pos = (249,1163);
},
{
name = top;
pos = (530,1320);
},
{
name = top0315;
pos = (1058,1320);
},
{
name = top_dd;
pos = (1058,1600);
}
);
guides = (
{
pos = (0,721);
},
{
pos = (0,444);
}
);
layerId = "445B0B85-2678-4800-8A4D-B1A9856CF63B";
shapes = (
{
closed = 1;
nodes = (
(507,1049,l),
(546,1165,l),
(497,1165,l),
(28,0,l),
(87,0,l)
);
},
{
closed = 1;
nodes = (
(971,0,l),
(1029,0,l),
(560,1165,l),
(512,1165,l),
(551,1050,l)
);
},
{
closed = 1;
nodes = (
(843,396,l),
(217,396,l),
(217,342,l),
(843,342,l)
);
}
);
width = 1058;
},
{
anchors = (
{
name = bottom;
pos = (612,0);
},
{
name = bottom_dd;
pos = (1224,-407);
},
{
name = ogonek;
pos = (1157,0);
},
{
name = right;
pos = (1077,0);
},
{
name = tonos;
pos = (168,1163);
},
{
name = top;
pos = (613,1320);
},
{
name = top0315;
pos = (1224,1320);
},
{
name = top_dd;
pos = (1224,1600);
}
);
layerId = "20EE6398-45C7-446F-8F4E-C33CF1AD7937";
shapes = (
{
closed = 1;
nodes = (
(602,747,l),
(683,1165,l),
(434,1165,l),
(-16,0,l),
(346,0,l)
);
},
{
closed = 1;
nodes = (
(877,0,l),
(1239,0,l),
(780,1165,l),
(527,1165,l),
(609,744,l)
);
},
{
closed = 1;
nodes = (
(891,437,l),
(271,437,l),
(271,183,l),
(891,183,l)
);
}
);
width = 1223.875;
},
{
anchors = (
{
name = bottom;
pos = (592,0);
},
{
name = bottom_dd;
pos = (1159.01,-407);
},
{
name = ogonek;
pos = (1099,0);
},
{
name = right;
pos = (1115,0);
},
{
name = tonos;
pos = (322,1163);
},
{
name = top;
pos = (582,1320);
},
{
name = top0315;
pos = (1159.01,1320);
},
{
name = top_dd;
pos = (1159.01,1600);
}
);
layerId = "275CACE8-FD52-4067-B7BC-43A450B7EDC9";
shapes = (
{
closed = 1;
nodes = (
(607,1003,l),
(621,1165,l),
(499,1165,l),
(20,0,l),
(210,0,l)
);
},
{
closed = 1;
nodes = (
(948,0,l),
(1138,0,l),
(666,1165,l),
(542,1165,l),
(555,1006,l)
);
},
{
closed = 1;
nodes = (
(923,431,l),
(230,431,l),
(230,280,l),
(923,280,l)
);
}
);
width = 1159.01;
}
);
},
{
glyphname = AE.smcp;
lastChange = "2023-09-21 14:36:57 +0000";
layers = (
{
anchors = (
{
name = bottom;
pos = (866,0);
},
{
name = top;
pos = (866,1290);
},
{
name = top0315;
pos = (1553,1290);
}
);
layerId = "445B0B85-2678-4800-8A4D-B1A9856CF63B";
shapes = (
{
closed = 1;
nodes = (
(1485,54,l),
(776,54,l),
(776,0,l),
(1485,0,l)
);
},
{
closed = 1;
nodes = (
(1398,630,l),
(776,630,l),
(776,576,l),
(1398,576,l)
);
},
{
closed = 1;
nodes = (
(1485,1165,l),
(776,1165,l),
(776,1111,l),
(1485,1111,l)
);
},
{
closed = 1;
nodes = (
(768,1125,l),
(780,1165,l),
(733,1165,l),
(20,0,l),
(86,0,l)
);
},
{
closed = 1;
nodes = (
(784,400,l),
(265,400,l),
(265,346,l),
(784,346,l)
);
},
{
closed = 1;
nodes = (
(806,1165,l),
(752,1165,l),
(752,0,l),
(806,0,l)
);
}
);
width = 1553;
},
{
anchors = (
{
name = bottom;
pos = (828,0);
},
{
name = top;
pos = (828,1290);
},
{
name = top0315;
pos = (1632,1290);
}
);
layerId = "20EE6398-45C7-446F-8F4E-C33CF1AD7937";
shapes = (
{
closed = 1;
nodes = (
(1577,288,l),
(825,288,l),
(825,0,l),
(1577,0,l)
);
},
{
closed = 1;
nodes = (
(1470,749,l),
(792,749,l),
(792,459,l),
(1470,459,l)
);
},
{
closed = 1;
nodes = (
(1527,1165,l),
(776,1165,l),
(776,877,l),
(1527,877,l)
);
},
{
closed = 1;
nodes = (
(744,1041,l),
(707,1165,l),
(457,1165,l),
(-76,0,l),
(316,0,l)
);
},
{
closed = 1;
nodes = (
(957,456,l),
(261,456,l),
(261,173,l),
(957,173,l)
);
},
{
closed = 1;
nodes = (
(1011,1165,l),
(654,1165,l),
(703,0,l),
(1061,0,l)
);
}
);
userData = {
com.schriftgestaltung.hints = (
{
horizontal = 1;
options = 0;
place = (
-2147483648,
0
);
stem = -2;
type = Tag;
}
);
};
width = 1632;
},
{
anchors = (
{
name = bottom;
pos = (896,0);
},
{
name = top;
pos = (896,1290);
},
{
name = top0315;
pos = (1594,1290);
}
);
layerId = "275CACE8-FD52-4067-B7BC-43A450B7EDC9";
shapes = (
{
closed = 1;
nodes = (
(1522,149,l),
(952,149,l),
(952,0,l),
(1522,0,l)
);
},
{
closed = 1;
nodes = (
(1417,683,l),
(924,683,l),
(924,534,l),
(1417,534,l)
);
},
{
closed = 1;
nodes = (
(1480,1165,l),
(911,1165,l),
(911,1016,l),
(1480,1016,l)
);
},
{
closed = 1;
nodes = (
(778,1054,l),
(789,1165,l),
(671,1165,l),
(9,0,l),
(209,0,l)
);
},
{
closed = 1;
nodes = (
(931,452,l),
(327,452,l),
(327,302,l),
(931,302,l)
);
},
{
closed = 1;
nodes = (
(937,1165,l),
(751,1165,l),
(792,0,l),
(978,0,l)
);
}
);
userData = {
com.schriftgestaltung.hints = (
{
horizontal = 1;
options = 0;
place = (
-1954210120,
0
);
stem = -2;
type = Tag;
}
);
};
width = 1593.95;
}
);
},
